ArefRuqaa-Bold.sfdir
StartChar: exclam
Encoding: 33 33 1
Width: 520
GlyphClass: 2
LayerCount: 2
Back
SplineSet
101 174 m 2,0,-1
 283 362 l 2,1,2
 289 369 289 369 296 369 c 0,3,4
 302 369 302 369 308 363 c 2,5,-1
 457 219 l 2,6,7
 464 212 464 212 464 206 c 256,8,9
 464 200 464 200 458 194 c 2,10,-1
 276 6 l 2,11,12
 269 0 269 0 263 0 c 256,13,14
 257 0 257 0 251 5 c 2,15,-1
 102 149 l 2,16,17
 95 156 95 156 95 162 c 256,18,19
 95 168 95 168 101 174 c 2,0,-1
417 951 m 0,20,21
 420 912 420 912 420 875 c 0,22,23
 420 770 420 770 399 688 c 0,24,25
 370 576 370 576 326 487 c 0,26,27
 314 463 314 463 302 437 c 128,-1,28
 290 411 290 411 271 396 c 0,29,30
 265 391 265 391 261 391 c 0,31,32
 256 391 256 391 256 398 c 1,33,34
 254 410 254 410 254 413 c 0,35,36
 274 534 274 534 274 647 c 0,37,38
 274 789 274 789 242 916 c 0,39,40
 183 1143 183 1143 98 1310 c 0,41,42
 91 1323 91 1323 71 1356 c 0,43,44
 53 1385 53 1385 53 1398 c 2,45,-1
 53 1401 l 1,46,47
 80 1473 80 1473 113 1544 c 128,-1,48
 146 1615 146 1615 177 1689 c 1,49,50
 255 1524 255 1524 327.5 1354.5 c 128,-1,51
 400 1185 400 1185 417 951 c 0,20,21
EndSplineSet
Fore
SplineSet
101 174 m 2
 283 362 l 2
 287 366.666666667 291.333333333 369 296 369 c 0
 300 369 304 367 308 363 c 2
 457 219 l 2
 461.666666667 214.333333333 464 210 464 206 c 256
 464 202 462 198 458 194 c 2
 276 6 l 2
 271.333333333 2 267 0 263 0 c 256
 259 0 255 1.66666666667 251 5 c 2
 102 149 l 2
 97.3333333333 153.666666667 95 158 95 162 c 256
 95 166 97 170 101 174 c 2
327.5 1354.5 m 128
 382.36224753 1226.23584888 420 1060.61047795 420 875 c 0
 420 715.319751342 377.993726236 592.16912807 326 487 c 0
 310.653910507 456.307821014 296.49323389 416.126237281 271 396 c 0
 267 392.666666667 263.666666667 391 261 391 c 0
 257.666666667 391 256 393.333333333 256 398 c 0
 254.666666667 406 254 411 254 413 c 0
 267.333333333 493.666666667 274 571.666666667 274 647 c 0
 274 741.666666667 263.333333333 831.333333333 242 916 c 0
 197.191055062 1088.40051696 145.510918245 1233.0569849 71 1356 c 0
 59 1375.33333333 53 1389.33333333 53 1398 c 2
 53 1401 l 1
 89.8618356597 1499.29822843 136.561418232 1592.46919192 177 1689 c 1
 229 1579 279.166666667 1467.5 327.5 1354.5 c 128
EndSplineSet
EndChar
StartChar: comma-ar
Encoding: 1548 1548 11
Width: 278
GlyphClass: 2
LayerCount: 2
Back
SplineSet
137.20703125 0.9765625 m 1,0,1
 89.35546875 -8.30078125 89.35546875 -8.30078125 56.640625 56.15234375 c 0,2,3
 53.22265625 63.96484375 53.22265625 63.96484375 51.26953125 74.70703125 c 128,-1,4
 49.31640625 85.44921875 49.31640625 85.44921875 49.31640625 100.09765625 c 0,5,6
 49.31640625 142.578125 49.31640625 142.578125 66.162109375 214.35546875 c 128,-1,7
 83.0078125 286.1328125 83.0078125 286.1328125 118.1640625 389.16015625 c 1,8,-1
 117.67578125 385.7421875 l 2,9,10
 117.67578125 386.23046875 117.67578125 386.23046875 117.919921875 386.474609375 c 128,-1,11
 118.1640625 386.71875 118.1640625 386.71875 118.1640625 387.20703125 c 0,12,13
 118.1640625 388.671875 118.1640625 388.671875 119.384765625 391.845703125 c 128,-1,14
 120.60546875 395.01953125 120.60546875 395.01953125 121.58203125 395.99609375 c 2,15,-1
 151.3671875 425.78125 l 2,16,17
 154.296875 428.7109375 154.296875 428.7109375 158.203125 429.19921875 c 128,-1,18
 162.109375 429.6875 162.109375 429.6875 165.283203125 427.978515625 c 128,-1,19
 168.45703125 426.26953125 168.45703125 426.26953125 170.166015625 422.8515625 c 128,-1,20
 171.875 419.43359375 171.875 419.43359375 171.38671875 415.0390625 c 0,21,22
 170.41015625 408.203125 170.41015625 408.203125 163.57421875 380.859375 c 128,-1,23
 156.73828125 353.515625 156.73828125 353.515625 144.04296875 306.640625 c 0,24,25
 137.20703125 280.2734375 137.20703125 280.2734375 133.30078125 255.126953125 c 128,-1,26
 129.39453125 229.98046875 129.39453125 229.98046875 129.39453125 208.984375 c 0,27,28
 129.39453125 181.640625 129.39453125 181.640625 135.25390625 161.1328125 c 0,29,30
 138.18359375 151.3671875 138.18359375 151.3671875 142.578125 145.5078125 c 128,-1,31
 146.97265625 139.6484375 146.97265625 139.6484375 152.34375 139.6484375 c 0,32,33
 167.96875 139.6484375 167.96875 139.6484375 196.2890625 166.50390625 c 1,34,35
 215.8203125 174.31640625 215.8203125 174.31640625 223.14453125 166.015625 c 1,36,37
 229.00390625 160.15625 229.00390625 160.15625 228.515625 149.4140625 c 0,38,39
 224.12109375 81.0546875 224.12109375 81.0546875 201.171875 42.48046875 c 128,-1,40
 178.22265625 3.90625 178.22265625 3.90625 135.7421875 0.9765625 c 1,41,-1
 137.20703125 0.9765625 l 1,0,1
EndSplineSet
Fore
SplineSet
137 1 m 1
 105 -5 79 13 57 56 c 0
 52 68 49 82 49 100 c 0
 49 128 55 166 66 214 c 128
 77 262 95 320 118 389 c 1
 118 387 l 1
 118 389 121 395 122 396 c 2
 151 426 l 2
 159 434 172 426 171 415 c 0
 163 357 129 283 129 209 c 0
 129 184 133 160 143 146 c 128
 146 142 148 140 152 140 c 0
 162 140 177 149 196 167 c 1
 209 172 218 172 223 166 c 0
 227 162 229 156 229 149 c 0
 224 75 202 7 137 1 c 1
EndSplineSet
EndChar
StartChar: uni060C
Encoding: 1548 1548 11
Width: 570
GlyphClass: 2
LayerCount: 2
Back
SplineSet
281 2 m 1,0,1
 183 -17 183 -17 116 115 c 0,2,3
 109 131 109 131 105 153 c 128,-1,4
 101 175 101 175 101 205 c 0,5,6
 101 292 101 292 135.5 439 c 128,-1,7
 170 586 170 586 242 797 c 1,8,-1
 241 790 l 2,9,10
 241 791 241 791 241.5 791.5 c 128,-1,11
 242 792 242 792 242 793 c 0,12,13
 242 796 242 796 244.5 802.5 c 128,-1,14
 247 809 247 809 249 811 c 2,15,-1
 310 872 l 2,16,17
 316 878 316 878 324 879 c 128,-1,18
 332 880 332 880 338.5 876.5 c 128,-1,19
 345 873 345 873 348.5 866 c 128,-1,20
 352 859 352 859 351 850 c 0,21,22
 349 836 349 836 335 780 c 128,-1,23
 321 724 321 724 295 628 c 0,24,25
 281 574 281 574 273 522.5 c 128,-1,26
 265 471 265 471 265 428 c 0,27,28
 265 372 265 372 277 330 c 0,29,30
 283 310 283 310 292 298 c 128,-1,31
 301 286 301 286 312 286 c 0,32,33
 344 286 344 286 402 341 c 1,34,35
 442 357 442 357 457 340 c 1,36,37
 469 328 469 328 468 306 c 0,38,39
 459 166 459 166 412 87 c 128,-1,40
 365 8 365 8 278 2 c 1,41,-1
 281 2 l 1,0,1
EndSplineSet
Fore
SplineSet
281 2 m 1
 215.666666667 -10.6666666667 160.666666667 27 116 115 c 0
 111.333333333 125.666666667 107.666666667 138.333333333 105 153 c 128
 102.333333333 167.666666667 101 185 101 205 c 0
 101 263 112.5 341 135.5 439 c 128
 158.5 537 194 656.333333333 242 797 c 1
 241 790 l 2
 241 790.666666667 241.166666667 791.166666667 241.5 791.5 c 128
 241.833333333 791.833333333 242 792.333333333 242 793 c 0
 242 795 242.833333333 798.166666667 244.5 802.5 c 128
 246.166666667 806.833333333 247.666666667 809.666666667 249 811 c 2
 310 872 l 2
 314 876 318.666666667 878.333333333 324 879 c 128
 329.333333333 879.666666667 334.166666667 878.833333333 338.5 876.5 c 128
 342.833333333 874.166666667 346.166666667 870.666666667 348.5 866 c 128
 350.833333333 861.333333333 351.666666667 856 351 850 c 0
 349.666666667 840.666666667 344.333333333 817.333333333 335 780 c 128
 325.666666667 742.666666667 312.333333333 692 295 628 c 0
 285.666666667 592 278.333333333 556.833333333 273 522.5 c 128
 267.666666667 488.166666667 265 456.666666667 265 428 c 0
 265 390.666666667 269 358 277 330 c 0
 281 316.666666667 286 306 292 298 c 128
 298 290 304.666666667 286 312 286 c 0
 333.333333333 286 363.333333333 304.333333333 402 341 c 1
 428.666666667 351.666666667 447 351.333333333 457 340 c 1
 465 332 468.666666667 320.666666667 468 306 c 0
 462 212.666666667 443.333333333 139.666666667 412 87 c 128
 380.666666667 34.3333333333 336 6 278 2 c 1
 281 2 l 1
EndSplineSet
EndChar
StartChar: semicolon-ar
Encoding: 1563 1563 12
Width: 570
GlyphClass: 2
LayerCount: 2
Back
SplineSet
279 390 m 1,0,-1
 277 389 l 1,1,2
 290 405 290 405 309 405 c 0,3,4
 323 405 323 405 331 399 c 1,5,-1
 482 253 l 2,6,7
 496 239 496 239 496 223 c 256,8,9
 496 207 496 207 484 194 c 1,10,-1
 484 195 l 1,11,-1
 308 13 l 2,12,13
 295 0 295 0 278 0 c 0,14,15
 271 0 271 0 265 2.5 c 0,16,17
 259 5 259 5 251 10 c 1,18,-1
 106 151 l 1,19,-1
 107 149 l 1,20,21
 91 162 91 162 91 181 c 0,22,23
 91 197 91 197 104 210 c 1,24,-1
 104 209 l 1,25,-1
 279 390 l 1,0,-1
EndSplineSet
Refer: 11 1548 N 1 0 0 1 0 453 3
Fore
SplineSet
279 390 m 1
 277 389 l 1
 285.666666667 399.666666667 296.333333333 405 309 405 c 0
 318.333333333 405 325.666666667 403 331 399 c 2
 482 253 l 2
 491.333333333 243.666666667 496 233.666666667 496 223 c 256
 496 212.333333333 492 202.666666667 484 194 c 1
 484 195 l 1
 308 13 l 2
 299.333333333 4.33333333333 289.333333333 0 278 0 c 0
 266.109544438 0 259.756923559 4.52692277498 251 10 c 1
 106 151 l 1
 107 149 l 1
 96.3333333333 157.666666667 91 168.333333333 91 181 c 0
 91 191.666666667 95.3333333333 201.333333333 104 210 c 1
 104 209 l 1
 279 390 l 1
EndSplineSet
Refer: 11 1548 N 1 0 0 1 0 453 3
EndChar
StartChar: uni061B
Encoding: 1563 1563 12
Width: 570
GlyphClass: 2
LayerCount: 2
Fore
SplineSet
279 390 m 1,0,-1
 277 389 l 1,1,2
 290 405 290 405 309 405 c 0,3,4
 323 405 323 405 331 399 c 1,5,-1
 482 253 l 2,6,7
 496 239 496 239 496 223 c 256,8,9
 496 207 496 207 484 194 c 1,10,-1
 484 195 l 1,11,-1
 308 13 l 2,12,13
 295 0 295 0 278 0 c 0,14,15
 271 0 271 0 265 2.5 c 0,16,17
 259 5 259 5 251 10 c 1,18,-1
 106 151 l 1,19,-1
 107 149 l 1,20,21
 91 162 91 162 91 181 c 0,22,23
 91 197 91 197 104 210 c 1,24,-1
 104 209 l 1,25,-1
 279 390 l 1,0,-1
EndSplineSet
Refer: 11 1548 N 1 0 0 1 0 453 3
EndChar
StartChar: question-ar
Encoding: 1567 1567 13
Width: 345
GlyphClass: 2
LayerCount: 2
Back
SplineSet
324.21875 738.76953125 m 1,0,1
 315.91796875 707.03125 315.91796875 707.03125 305.419921875 676.26953125 c 128,-1,2
 294.921875 645.5078125 294.921875 645.5078125 282.2265625 615.72265625 c 1,3,4
 276.85546875 605.95703125 276.85546875 605.95703125 263.671875 599.609375 c 0,5,6
 261.71875 598.6328125 261.71875 598.6328125 259.033203125 597.900390625 c 128,-1,7
 256.34765625 597.16796875 256.34765625 597.16796875 254.39453125 597.16796875 c 0,8,9
 239.74609375 597.16796875 239.74609375 597.16796875 237.3046875 615.234375 c 1,10,11
 232.91015625 672.8515625 232.91015625 672.8515625 169.43359375 675.78125 c 1,12,-1
 164.0625 675.78125 l 2,13,14
 146.97265625 675.78125 146.97265625 675.78125 131.103515625 671.142578125 c 128,-1,15
 115.234375 666.50390625 115.234375 666.50390625 102.5390625 658.69140625 c 1,16,17
 109.375 630.37109375 109.375 630.37109375 126.953125 610.83984375 c 1,18,19
 148.92578125 587.40234375 148.92578125 587.40234375 171.38671875 564.94140625 c 1,20,21
 188.4765625 546.38671875 188.4765625 546.38671875 204.345703125 527.34375 c 128,-1,22
 220.21484375 508.30078125 220.21484375 508.30078125 234.375 487.79296875 c 0,23,24
 263.671875 443.84765625 263.671875 443.84765625 270.01953125 380.37109375 c 1,25,26
 269.04296875 349.609375 269.04296875 349.609375 263.18359375 323.486328125 c 128,-1,27
 257.32421875 297.36328125 257.32421875 297.36328125 247.55859375 275.390625 c 1,28,29
 237.79296875 254.8828125 237.79296875 254.8828125 227.5390625 233.88671875 c 128,-1,30
 217.28515625 212.890625 217.28515625 212.890625 207.51953125 193.359375 c 1,31,32
 203.125 188.4765625 203.125 188.4765625 195.3125 186.03515625 c 1,33,34
 193.84765625 185.05859375 193.84765625 185.05859375 192.626953125 185.05859375 c 128,-1,35
 191.40625 185.05859375 191.40625 185.05859375 189.94140625 185.05859375 c 0,36,37
 175.78125 185.05859375 175.78125 185.05859375 175.78125 199.21875 c 0,38,39
 175.78125 200.68359375 175.78125 200.68359375 176.025390625 202.392578125 c 128,-1,40
 176.26953125 204.1015625 176.26953125 204.1015625 177.734375 207.03125 c 2,41,-1
 176.7578125 205.078125 l 1,42,43
 186.5234375 238.76953125 186.5234375 238.76953125 186.5234375 267.08984375 c 0,44,45
 186.5234375 283.69140625 186.5234375 283.69140625 183.10546875 300.048828125 c 128,-1,46
 179.6875 316.40625 179.6875 316.40625 173.828125 330.56640625 c 1,47,48
 161.1328125 357.91015625 161.1328125 357.91015625 145.263671875 381.591796875 c 128,-1,49
 129.39453125 405.2734375 129.39453125 405.2734375 112.3046875 421.875 c 0,50,51
 87.890625 444.82421875 87.890625 444.82421875 65.4296875 472.900390625 c 128,-1,52
 42.96875 500.9765625 42.96875 500.9765625 28.80859375 536.62109375 c 1,53,54
 26.85546875 545.41015625 26.85546875 545.41015625 26.3671875 554.6875 c 128,-1,55
 25.87890625 563.96484375 25.87890625 563.96484375 25.87890625 573.73046875 c 0,56,57
 25.87890625 641.11328125 25.87890625 641.11328125 65.91796875 720.703125 c 1,58,59
 114.2578125 820.3125 114.2578125 820.3125 214.84375 820.3125 c 0,60,61
 218.75 820.3125 218.75 820.3125 221.923828125 820.3125 c 128,-1,62
 225.09765625 820.3125 225.09765625 820.3125 228.515625 819.82421875 c 1,63,-1
 228.02734375 819.82421875 l 1,64,65
 244.140625 818.84765625 244.140625 818.84765625 257.080078125 813.720703125 c 128,-1,66
 270.01953125 808.59375 270.01953125 808.59375 280.76171875 800.537109375 c 128,-1,67
 291.50390625 792.48046875 291.50390625 792.48046875 300.048828125 782.2265625 c 128,-1,68
 308.59375 771.97265625 308.59375 771.97265625 315.4296875 761.23046875 c 1,69,-1
 318.84765625 753.90625 l 2,70,71
 318.84765625 752.9296875 318.84765625 752.9296875 319.82421875 751.953125 c 1,72,-1
 324.21875 738.76953125 l 1,0,1
182.6171875 190.4296875 m 1,73,-1
 181.640625 189.94140625 l 1,74,75
 187.98828125 197.75390625 187.98828125 197.75390625 197.265625 197.75390625 c 0,76,77
 205.078125 197.75390625 205.078125 197.75390625 208.0078125 194.82421875 c 2,78,-1
 281.73828125 123.53515625 l 2,79,80
 289.0625 116.69921875 289.0625 116.69921875 289.0625 108.88671875 c 256,81,82
 289.0625 101.07421875 289.0625 101.07421875 282.71484375 94.7265625 c 1,83,-1
 282.71484375 95.21484375 l 1,84,-1
 196.77734375 6.34765625 l 2,85,86
 190.91796875 0 190.91796875 0 182.12890625 0 c 0,87,88
 179.19921875 0 179.19921875 0 176.025390625 1.220703125 c 128,-1,89
 172.8515625 2.44140625 172.8515625 2.44140625 168.9453125 4.8828125 c 1,90,-1
 98.14453125 73.73046875 l 1,91,-1
 98.6328125 72.75390625 l 1,92,93
 91.30859375 79.1015625 91.30859375 79.1015625 91.30859375 88.37890625 c 0,94,95
 91.30859375 95.703125 91.30859375 95.703125 97.16796875 102.5390625 c 1,96,-1
 97.16796875 102.05078125 l 1,97,-1
 182.6171875 190.4296875 l 1,73,-1
EndSplineSet
Fore
SplineSet
324 739 m 1
 313 696 299 655 282 616 c 1
 278 609 267 597 254 597 c 0
 244 597 239 603 237 615 c 1
 234 653 211 674 169 676 c 1
 164 676 l 2
 140 676 119 669 103 659 c 1
 108 640 115 624 127 611 c 0
 142 595 156 580 171 565 c 1
 194 540 215 516 234 488 c 0
 254 459 266 422 270 380 c 1
 267 299 236 249 208 193 c 1
 205 190 198 185 193 185 c 128
 192 185 191 185 190 185 c 0
 181 185 176 190 176 199 c 0
 176 201 176 203 177 205 c 0
 184 227 187 248 187 267 c 0
 187 291 181 314 174 331 c 1
 158 365 136 398 112 422 c 0
 79 453 48 490 29 537 c 1
 26 548 26 560 26 574 c 0
 26 619 39 668 66 721 c 1
 98 787 148 820 215 820 c 0
 219 820 219 820 222 820 c 128
 224 820 226 820 228 820 c 0
 274 817 304 787 319 754 c 0
 319 753 319 753 320 752 c 2
 324 739 l 1
183 190 m 1
 182 190 l 1
 186 195 191 198 197 198 c 0
 202 198 206 197 208 195 c 2
 282 124 l 2
 287 119 289 114 289 109 c 256
 289 104 287 99 283 95 c 1
 283 95 l 1
 197 6 l 2
 193 2 188 0 182 0 c 0
 177 0 173 2 169 5 c 1
 98 74 l 1
 99 73 l 1
 94 77 91 82 91 88 c 0
 91 93 93 98 97 103 c 1
 97 102 l 1
 183 190 l 1
EndSplineSet
EndChar
StartChar: uni061F
Encoding: 1567 1567 13
Width: 707
GlyphClass: 2
LayerCount: 2
Back
SplineSet
664 1513 m 1,0,1
 647 1448 647 1448 625.5 1385 c 128,-1,2
 604 1322 604 1322 578 1261 c 1,3,4
 567 1241 567 1241 540 1228 c 0,5,6
 536 1226 536 1226 530.5 1224.5 c 128,-1,7
 525 1223 525 1223 521 1223 c 0,8,9
 491 1223 491 1223 486 1260 c 1,10,11
 477 1378 477 1378 347 1384 c 1,12,-1
 336 1384 l 2,13,14
 301 1384 301 1384 268.5 1374.5 c 128,-1,15
 236 1365 236 1365 210 1349 c 1,16,17
 224 1291 224 1291 260 1251 c 1,18,19
 305 1203 305 1203 351 1157 c 1,20,21
 386 1119 386 1119 418.5 1080 c 128,-1,22
 451 1041 451 1041 480 999 c 0,23,24
 540 909 540 909 553 779 c 1,25,26
 551 716 551 716 539 662.5 c 128,-1,27
 527 609 527 609 507 564 c 1,28,29
 487 522 487 522 466 479 c 128,-1,30
 445 436 445 436 425 396 c 1,31,32
 416 386 416 386 400 381 c 1,33,34
 397 379 397 379 394.5 379 c 128,-1,35
 392 379 392 379 389 379 c 0,36,37
 360 379 360 379 360 408 c 0,38,39
 360 411 360 411 360.5 414.5 c 128,-1,40
 361 418 361 418 364 424 c 2,41,-1
 362 420 l 1,42,43
 382 489 382 489 382 547 c 0,44,45
 382 581 382 581 375 614.5 c 128,-1,46
 368 648 368 648 356 677 c 1,47,48
 330 733 330 733 297.5 781.5 c 128,-1,49
 265 830 265 830 230 864 c 0,50,51
 180 911 180 911 134 968.5 c 128,-1,52
 88 1026 88 1026 59 1099 c 1,53,54
 55 1117 55 1117 54 1136 c 128,-1,55
 53 1155 53 1155 53 1175 c 0,56,57
 53 1313 53 1313 135 1476 c 1,58,59
 234 1680 234 1680 440 1680 c 0,60,61
 448 1680 448 1680 454.5 1680 c 128,-1,62
 461 1680 461 1680 468 1679 c 1,63,-1
 467 1679 l 1,64,65
 500 1677 500 1677 526.5 1666.5 c 128,-1,66
 553 1656 553 1656 575 1639.5 c 128,-1,67
 597 1623 597 1623 614.5 1602 c 128,-1,68
 632 1581 632 1581 646 1559 c 1,69,-1
 653 1544 l 2,70,71
 653 1542 653 1542 655 1540 c 1,72,-1
 664 1513 l 1,0,1
374 390 m 1,73,-1
 372 389 l 1,74,75
 385 405 385 405 404 405 c 0,76,77
 420 405 420 405 426 399 c 2,78,-1
 577 253 l 2,79,80
 592 239 592 239 592 223 c 256,81,82
 592 207 592 207 579 194 c 1,83,-1
 579 195 l 1,84,-1
 403 13 l 2,85,86
 391 0 391 0 373 0 c 0,87,88
 367 0 367 0 360.5 2.5 c 128,-1,89
 354 5 354 5 346 10 c 1,90,-1
 201 151 l 1,91,-1
 202 149 l 1,92,93
 187 162 187 162 187 181 c 0,94,95
 187 196 187 196 199 210 c 1,96,-1
 199 209 l 1,97,-1
 374 390 l 1,73,-1
EndSplineSet
Fore
SplineSet
664 1513 m 1
 652.666666667 1469.66666667 639.833333333 1427 625.5 1385 c 128
 611.166666667 1343 595.333333333 1301.66666667 578 1261 c 1
 570.666666667 1247.66666667 558 1236.66666667 540 1228 c 0
 537.333333333 1226.66666667 534.166666667 1225.5 530.5 1224.5 c 128
 526.833333333 1223.5 523.666666667 1223 521 1223 c 0
 501 1223 489.333333333 1235.33333333 486 1260 c 1
 480 1338.66666667 433.666666667 1380 347 1384 c 1
 336 1384 l 2
 312.666666667 1384 290.166666667 1380.83333333 268.5 1374.5 c 128
 246.833333333 1368.16666667 227.333333333 1359.66666667 210 1349 c 1
 219.333333333 1310.33333333 236 1277.66666667 260 1251 c 1
 290 1219 320.333333333 1187.66666667 351 1157 c 1
 374.333333333 1131.66666667 396.833333333 1106 418.5 1080 c 128
 440.166666667 1054 460.666666667 1027 480 999 c 0
 520 939 544.333333333 865.666666667 553 779 c 1
 551.666666667 737 547 698.166666667 539 662.5 c 128
 531 626.833333333 520.333333333 594 507 564 c 1
 493.666666667 536 480 507.666666667 466 479 c 128
 452 450.333333333 438.333333333 422.666666667 425 396 c 1
 419 389.333333333 410.666666667 384.333333333 400 381 c 1
 398 379.666666667 396.166666667 379 394.5 379 c 128
 392 379 392 379 389 379 c 0
 369.666666667 379 360 388.666666667 360 408 c 0
 360 410 360.166666667 412.166666667 360.5 414.5 c 128
 360.833333333 416.833333333 362 420 364 424 c 2
 362 420 l 1
 375.333333333 466 382 508.333333333 382 547 c 0
 382 569.666666667 379.666666667 592.166666667 375 614.5 c 128
 370.333333333 636.833333333 364 657.666666667 356 677 c 1
 338.666666667 714.333333333 319.166666667 749.166666667 297.5 781.5 c 128
 275.833333333 813.833333333 253.333333333 841.333333333 230 864 c 0
 196.666666667 895.333333333 164.666666667 930.166666667 134 968.5 c 128
 103.333333333 1006.83333333 78.3333333333 1050.33333333 59 1099 c 1
 56.3333333333 1111 54.6666666667 1123.33333333 54 1136 c 128
 53.3333333333 1148.66666667 53 1161.66666667 53 1175 c 0
 53 1267 80.3333333333 1367.33333333 135 1476 c 1
 201 1612 302.666666667 1680 440 1680 c 0
 448 1680 448 1680 454.5 1680 c 128
 458.833333333 1680 463.333333333 1679.66666667 468 1679 c 1
 467 1679 l 1
 489 1677.66666667 508.833333333 1673.5 526.5 1666.5 c 128
 544.166666667 1659.5 560.333333333 1650.5 575 1639.5 c 128
 589.666666667 1628.5 602.833333333 1616 614.5 1602 c 128
 626.166666667 1588 636.666666667 1573.66666667 646 1559 c 1
 653 1544 l 2
 653 1542.66666667 653.666666667 1541.33333333 655 1540 c 1
 664 1513 l 1
374 390 m 1
 372 389 l 1
 380.666666667 399.666666667 391.333333333 405 404 405 c 0
 414.666666667 405 422 403 426 399 c 2
 577 253 l 2
 587 243.666666667 592 233.666666667 592 223 c 256
 592 212.333333333 587.666666667 202.666666667 579 194 c 1
 579 195 l 1
 403 13 l 2
 395 4.33333333333 385 0 373 0 c 0
 369 0 364.833333333 0.833333333333 360.5 2.5 c 128
 356.166666667 4.16666666667 351.333333333 6.66666666667 346 10 c 1
 201 151 l 1
 202 149 l 1
 192 157.666666667 187 168.333333333 187 181 c 0
 187 191 191 200.666666667 199 210 c 1
 199 209 l 1
 374 390 l 1
EndSplineSet
EndChar
StartChar: hamza-ar
Encoding: 1569 1569 54
Width: 883
GlyphClass: 2
AnchorPoint: "Dots Below" 243 -387 basechar 0
AnchorPoint: "Tashkil Below" 306 -387 basechar 0
AnchorPoint: "Dots Above" 558 1197 basechar 0
AnchorPoint: "Tashkil Above" 603 1179 basechar 0
LayerCount: 2
Back
SplineSet
658 645 m 1,0,1
 615 633 615 633 579 620.5 c 128,-1,2
 543 608 543 608 508 582 c 1,3,4
 518 571 518 571 530 563.5 c 128,-1,5
 542 556 542 556 557 551 c 0,6,7
 581 543 581 543 604 533 c 128,-1,8
 627 523 627 523 646 512 c 0,9,10
 669 500 669 500 683 482 c 128,-1,11
 697 464 697 464 701 440 c 0,12,13
 702 437 702 437 702 433 c 128,-1,14
 702 429 702 429 702 426 c 0,15,16
 702 403 702 403 686 370.5 c 128,-1,17
 670 338 670 338 640 296 c 2,18,-1
 538 157 l 1,19,20
 483 84 483 84 404 39 c 0,21,22
 352 10 352 10 261 4 c 0,23,24
 213 1 213 1 175 1 c 0,25,26
 159 1 159 1 145 1.5 c 128,-1,27
 131 2 131 2 120 3 c 0,28,29
 100 5 100 5 90 12 c 128,-1,30
 80 19 80 19 80 36 c 0,31,32
 80 46 80 46 90.5 58 c 128,-1,33
 101 70 101 70 118 81 c 0,34,35
 143 97 143 97 174 113.5 c 128,-1,36
 205 130 205 130 241 147 c 1,37,-1
 240 147 l 1,38,39
 278 164 278 164 314 180 c 128,-1,40
 350 196 350 196 385 211 c 2,41,-1
 461 242 l 1,42,-1
 460 242 l 1,43,-1
 466 244 l 1,44,-1
 454 247 l 2,45,46
 419 256 419 256 389.5 269.5 c 128,-1,47
 360 283 360 283 339 303 c 1,48,-1
 339 302 l 1,49,50
 283 352 283 352 283 405 c 0,51,52
 283 419 283 419 287 432 c 1,53,-1
 287 431 l 1,54,55
 294 459 294 459 307 487 c 128,-1,56
 320 515 320 515 338 546 c 0,57,58
 372 601 372 601 415.5 653 c 128,-1,59
 459 705 459 705 515 755 c 0,60,61
 628 857 628 857 722 889 c 0,62,63
 738 895 738 895 751 895 c 0,64,65
 788 895 788 895 788 860 c 0,66,67
 788 852 788 852 786 847 c 0,68,69
 779 820 779 820 756.5 780.5 c 128,-1,70
 734 741 734 741 705 703 c 1,71,72
 691 683 691 683 682.5 672 c 128,-1,73
 674 661 674 661 671 656 c 1,74,-1
 658 645 l 1,0,1
EndSplineSet
Fore
SplineSet
175 1 m 0
 133.906043484 1 80 -4.13741347563 80 36 c 0
 80 55.0166234588 103.263829406 71.4648307917 118 81 c 0
 196.48096516 131.227817701 294.728636321 172.312272709 385 211 c 1
 460 242 l 1
 466 244 l 1
 415.970863948 256.507284013 370.521550472 272.979475742 339 303 c 1
 339 302 l 1
 301.666666667 335.333333333 283 369.666666667 283 405 c 0
 283 413.974888436 284.534225844 422.641555103 287 431 c 0
 309.064318074 519.25727229 362.774974913 589.972383804 415.5 653 c 128
 444.5 687.666666667 477.666666667 721.666666667 515 755 c 0
 590.333333333 823 659.333333333 867.666666667 722 889 c 0
 732.666666667 893 742.333333333 895 751 895 c 0
 775.666666667 895 788 883.333333333 788 860 c 0
 788 832.368388559 773.564419698 810.457536803 756.5 780.5 c 128
 741.5 754.166666667 724.333333333 728.333333333 705 703 c 0
 691.309614479 683.442306398 680.30972825 671.516213748 671 656 c 1
 658 645 l 1
 597.202118961 628.033149478 553.811401554 616.031326869 508 582 c 1
 531.613863688 556.024749946 569.248045704 548.109545347 604 533 c 128
 645.93552197 514.76716436 702 490.036609115 702 433 c 128
 702 429 702 429 702 426 c 0
 702 410.666666667 696.666666667 392.166666667 686 370.5 c 128
 675.333333333 348.833333333 660 324 640 296 c 2
 538 157 l 2
 501.333333333 108.333333333 456.666666667 69 404 39 c 0
 354.628838799 11.4660831768 259.009701895 1 175 1 c 0
EndSplineSet
EndChar
StartChar: uni0621
Encoding: 1569 1569 54
Width: 883
GlyphClass: 2
AnchorPoint: "Dots Below" 243 -387 basechar 0
AnchorPoint: "Tashkil Below" 306 -387 basechar 0
AnchorPoint: "Dots Above" 558 1197 basechar 0
AnchorPoint: "Tashkil Above" 603 1179 basechar 0
LayerCount: 2
Back
SplineSet
658 645 m 1,0,1
 615 633 615 633 579 620.5 c 128,-1,2
 543 608 543 608 508 582 c 1,3,4
 518 571 518 571 530 563.5 c 128,-1,5
 542 556 542 556 557 551 c 0,6,7
 581 543 581 543 604 533 c 128,-1,8
 627 523 627 523 646 512 c 0,9,10
 669 500 669 500 683 482 c 128,-1,11
 697 464 697 464 701 440 c 0,12,13
 702 437 702 437 702 433 c 128,-1,14
 702 429 702 429 702 426 c 0,15,16
 702 403 702 403 686 370.5 c 128,-1,17
 670 338 670 338 640 296 c 2,18,-1
 538 157 l 1,19,20
 483 84 483 84 404 39 c 0,21,22
 352 10 352 10 261 4 c 0,23,24
 213 1 213 1 175 1 c 0,25,26
 159 1 159 1 145 1.5 c 128,-1,27
 131 2 131 2 120 3 c 0,28,29
 100 5 100 5 90 12 c 128,-1,30
 80 19 80 19 80 36 c 0,31,32
 80 46 80 46 90.5 58 c 128,-1,33
 101 70 101 70 118 81 c 0,34,35
 143 97 143 97 174 113.5 c 128,-1,36
 205 130 205 130 241 147 c 1,37,-1
 240 147 l 1,38,39
 278 164 278 164 314 180 c 128,-1,40
 350 196 350 196 385 211 c 2,41,-1
 461 242 l 1,42,-1
 460 242 l 1,43,-1
 466 244 l 1,44,-1
 454 247 l 2,45,46
 419 256 419 256 389.5 269.5 c 128,-1,47
 360 283 360 283 339 303 c 1,48,-1
 339 302 l 1,49,50
 283 352 283 352 283 405 c 0,51,52
 283 419 283 419 287 432 c 1,53,-1
 287 431 l 1,54,55
 294 459 294 459 307 487 c 128,-1,56
 320 515 320 515 338 546 c 0,57,58
 372 601 372 601 415.5 653 c 128,-1,59
 459 705 459 705 515 755 c 0,60,61
 628 857 628 857 722 889 c 0,62,63
 738 895 738 895 751 895 c 0,64,65
 788 895 788 895 788 860 c 0,66,67
 788 852 788 852 786 847 c 0,68,69
 779 820 779 820 756.5 780.5 c 128,-1,70
 734 741 734 741 705 703 c 1,71,72
 691 683 691 683 682.5 672 c 128,-1,73
 674 661 674 661 671 656 c 1,74,-1
 658 645 l 1,0,1
EndSplineSet
Fore
SplineSet
658 645 m 1
 629.333333333 637 603 628.833333333 579 620.5 c 128
 555 612.166666667 531.333333333 599.333333333 508 582 c 1
 514.666666667 574.666666667 522 568.5 530 563.5 c 128
 538 558.5 547 554.333333333 557 551 c 0
 573 545.666666667 588.666666667 539.666666667 604 533 c 128
 619.333333333 526.333333333 633.333333333 519.333333333 646 512 c 0
 661.333333333 504 673.666666667 494 683 482 c 128
 692.333333333 470 698.333333333 456 701 440 c 0
 701.666666667 438 702 435.666666667 702 433 c 128
 702 429 702 429 702 426 c 0
 702 410.666666667 696.666666667 392.166666667 686 370.5 c 128
 675.333333333 348.833333333 660 324 640 296 c 2
 538 157 l 1
 501.333333333 108.333333333 456.666666667 69 404 39 c 0
 369.333333333 19.6666666667 321.666666667 8 261 4 c 0
 229 2 200.333333333 1 175 1 c 0
 164.333333333 1 154.333333333 1.16666666667 145 1.5 c 128
 135.666666667 1.83333333333 127.333333333 2.33333333333 120 3 c 0
 106.666666667 4.33333333333 96.6666666667 7.33333333333 90 12 c 128
 83.3333333333 16.6666666667 80 24.6666666667 80 36 c 0
 80 42.6666666667 83.5 50 90.5 58 c 128
 97.5 66 106.666666667 73.6666666667 118 81 c 0
 134.666666667 91.6666666667 153.333333333 102.5 174 113.5 c 128
 194.666666667 124.5 217 135.666666667 241 147 c 1
 240 147 l 1
 265.333333333 158.333333333 290 169.333333333 314 180 c 128
 338 190.666666667 361.666666667 201 385 211 c 2
 461 242 l 1
 460 242 l 1
 466 244 l 1
 454 247 l 2
 430.666666667 253 409.166666667 260.5 389.5 269.5 c 128
 369.833333333 278.5 353 289.666666667 339 303 c 1
 339 302 l 1
 301.666666667 335.333333333 283 369.666666667 283 405 c 0
 283 414.333333333 284.333333333 423.333333333 287 432 c 1
 287 431 l 1
 291.666666667 449.666666667 298.333333333 468.333333333 307 487 c 128
 315.666666667 505.666666667 326 525.333333333 338 546 c 0
 360.666666667 582.666666667 386.5 618.333333333 415.5 653 c 128
 444.5 687.666666667 477.666666667 721.666666667 515 755 c 0
 590.333333333 823 659.333333333 867.666666667 722 889 c 0
 732.666666667 893 742.333333333 895 751 895 c 0
 775.666666667 895 788 883.333333333 788 860 c 0
 788 854.666666667 787.333333333 850.333333333 786 847 c 0
 781.333333333 829 771.5 806.833333333 756.5 780.5 c 128
 741.5 754.166666667 724.333333333 728.333333333 705 703 c 1
 695.666666667 689.666666667 688.166666667 679.333333333 682.5 672 c 128
 676.833333333 664.666666667 673 659.333333333 671 656 c 1
 658 645 l 1
EndSplineSet
EndChar
StartChar: alef-ar
Encoding: 1575 1575 55
Width: 248
GlyphClass: 2
AnchorPoint: "top" 124 791 basechar 0
AnchorPoint: "bottom" 132 -22 basechar 0
AnchorPoint: "top.mark" 133 835 basechar 0
AnchorPoint: "bottom.mark" 148 -31 basechar 0
LayerCount: 2
Back
SplineSet
62.98828125 564.453125 m 1,0,-1
 136.23046875 680.6640625 l 2,1,2
 138.671875 684.5703125 138.671875 684.5703125 142.333984375 685.791015625 c 128,-1,3
 145.99609375 687.01171875 145.99609375 687.01171875 149.4140625 686.279296875 c 128,-1,4
 152.83203125 685.546875 152.83203125 685.546875 155.2734375 682.861328125 c 128,-1,5
 157.71484375 680.17578125 157.71484375 680.17578125 158.203125 675.78125 c 2,6,-1
 186.03515625 261.23046875 l 1,7,-1
 112.3046875 145.01953125 l 2,8,9
 107.421875 137.20703125 107.421875 137.20703125 99.609375 139.16015625 c 128,-1,10
 91.796875 141.11328125 91.796875 141.11328125 90.8203125 149.90234375 c 2,11,-1
 62.98828125 564.453125 l 1,0,-1
EndSplineSet
Fore
SplineSet
63 564 m 1
 136 681 l 2
 142 690 157 688 158 676 c 1
 186 261 l 1
 112 145 l 2
 106 135 92 138 91 150 c 1
 63 564 l 1
EndSplineSet
EndChar
StartChar: reh-ar
Encoding: 1585 1585 67
Width: 469
GlyphClass: 2
AnchorPoint: "bottom" 233 -224 basechar 0
AnchorPoint: "bottom.mark" 242 -193 basechar 0
AnchorPoint: "top.mark" 277 431 basechar 0
AnchorPoint: "top" 360 457 basechar 0
LayerCount: 2
Back
SplineSet
447.75390625 272.4609375 m 1,0,1
 442.3828125 248.53515625 442.3828125 248.53515625 434.814453125 222.412109375 c 128,-1,2
 427.24609375 196.2890625 427.24609375 196.2890625 416.015625 168.45703125 c 0,3,4
 395.01953125 114.2578125 395.01953125 114.2578125 371.09375 85.44921875 c 0,5,6
 354.00390625 65.4296875 354.00390625 65.4296875 331.54296875 48.583984375 c 128,-1,7
 309.08203125 31.73828125 309.08203125 31.73828125 284.1796875 20.99609375 c 1,8,9
 260.25390625 11.23046875 260.25390625 11.23046875 229.4921875 5.615234375 c 128,-1,10
 198.73046875 0 198.73046875 0 165.0390625 0 c 2,11,-1
 155.76171875 0 l 1,12,13
 98.14453125 1.46484375 98.14453125 1.46484375 56.640625 5.859375 c 0,14,15
 11.23046875 10.7421875 11.23046875 10.7421875 -1.953125 23.4375 c 0,16,17
 -7.32421875 28.80859375 -7.32421875 28.80859375 -7.32421875 37.59765625 c 0,18,19
 -7.32421875 53.7109375 -7.32421875 53.7109375 20.01953125 69.3359375 c 0,20,21
 34.66796875 77.63671875 34.66796875 77.63671875 63.96484375 88.623046875 c 128,-1,22
 93.26171875 99.609375 93.26171875 99.609375 137.6953125 113.76953125 c 1,23,-1
 137.20703125 113.76953125 l 1,24,25
 165.52734375 122.55859375 165.52734375 122.55859375 194.091796875 132.32421875 c 128,-1,26
 222.65625 142.08984375 222.65625 142.08984375 250 153.076171875 c 128,-1,27
 277.34375 164.0625 277.34375 164.0625 302.734375 176.513671875 c 128,-1,28
 328.125 188.96484375 328.125 188.96484375 350.5859375 203.61328125 c 1,29,30
 371.09375 217.7734375 371.09375 217.7734375 386.962890625 237.060546875 c 128,-1,31
 402.83203125 256.34765625 402.83203125 256.34765625 413.0859375 279.296875 c 1,32,-1
 413.0859375 278.80859375 l 1,33,34
 417.96875 291.9921875 417.96875 291.9921875 433.10546875 291.9921875 c 1,35,36
 439.94140625 291.015625 439.94140625 291.015625 443.359375 287.109375 c 128,-1,37
 446.77734375 283.203125 446.77734375 283.203125 447.75390625 276.3671875 c 1,38,-1
 447.75390625 272.4609375 l 1,0,1
EndSplineSet
Fore
SplineSet
433 292 m 1
 442 291 447 285 448 276 c 1
 448 272 l 1
 433 207 405 126 371 85 c 0
 326 33 262 0 165 0 c 2
 156 0 l 1
 118 1 85 3 57 6 c 0
 27 9 7 15 -2 23 c 0
 -6 27 -7 32 -7 38 c 0
 -7 63 36 79 64 89 c 128
 83 96 108 105 137 114 c 0
 213 138 290 164 351 204 c 0
 378 222 399 248 413 279 c 1
 416 288 423 292 433 292 c 1
EndSplineSet
EndChar
StartChar: seen-ar
Encoding: 1587 1587 69
Width: 933
GlyphClass: 2
AnchorPoint: "bottom" 541 -4 basechar 0
AnchorPoint: "bottom.mark" 602 26 basechar 0
AnchorPoint: "top" 633 703 basechar 0
AnchorPoint: "top.mark" 655 725 basechar 0
LayerCount: 2
Back
SplineSet
398.92578125 205.56640625 m 2,0,1
 385.7421875 170.41015625 385.7421875 170.41015625 354.98046875 126.953125 c 0,2,3
 327.1484375 86.9140625 327.1484375 86.9140625 292.236328125 59.326171875 c 128,-1,4
 257.32421875 31.73828125 257.32421875 31.73828125 215.33203125 16.11328125 c 1,5,6
 171.38671875 0.48828125 171.38671875 0.48828125 133.7890625 0.48828125 c 0,7,8
 99.609375 0.48828125 99.609375 0.48828125 67.87109375 15.625 c 1,9,-1
 67.87109375 15.13671875 l 1,10,11
 37.109375 30.2734375 37.109375 30.2734375 19.04296875 63.720703125 c 128,-1,12
 0.9765625 97.16796875 0.9765625 97.16796875 -4.39453125 145.5078125 c 0,13,14
 -4.8828125 148.92578125 -4.8828125 148.92578125 -4.8828125 153.3203125 c 128,-1,15
 -4.8828125 157.71484375 -4.8828125 157.71484375 -4.8828125 161.1328125 c 0,16,17
 -4.8828125 207.51953125 -4.8828125 207.51953125 17.578125 272.216796875 c 128,-1,18
 40.0390625 336.9140625 40.0390625 336.9140625 81.54296875 413.0859375 c 1,19,20
 90.33203125 427.734375 90.33203125 427.734375 101.07421875 427.734375 c 0,21,22
 102.5390625 427.734375 102.5390625 427.734375 104.248046875 427.490234375 c 128,-1,23
 105.95703125 427.24609375 105.95703125 427.24609375 108.88671875 426.26953125 c 1,24,25
 118.1640625 421.38671875 118.1640625 421.38671875 118.1640625 409.66796875 c 0,26,27
 118.1640625 405.76171875 118.1640625 405.76171875 117.431640625 401.3671875 c 128,-1,28
 116.69921875 396.97265625 116.69921875 396.97265625 114.2578125 391.11328125 c 0,29,30
 108.3984375 378.41796875 108.3984375 378.41796875 100.830078125 363.525390625 c 128,-1,31
 93.26171875 348.6328125 93.26171875 348.6328125 84.47265625 331.0546875 c 0,32,33
 76.171875 314.94140625 76.171875 314.94140625 69.580078125 298.33984375 c 128,-1,34
 62.98828125 281.73828125 62.98828125 281.73828125 59.08203125 264.6484375 c 0,35,36
 54.6875 247.55859375 54.6875 247.55859375 54.6875 230.46875 c 0,37,38
 54.6875 216.796875 54.6875 216.796875 57.6171875 205.078125 c 0,39,40
 62.98828125 181.15234375 62.98828125 181.15234375 95.703125 166.9921875 c 1,41,42
 126.953125 161.62109375 126.953125 161.62109375 151.85546875 161.62109375 c 0,43,44
 201.171875 161.62109375 201.171875 161.62109375 243.1640625 178.22265625 c 0,45,46
 276.3671875 190.91796875 276.3671875 190.91796875 302.978515625 206.298828125 c 128,-1,47
 329.58984375 221.6796875 329.58984375 221.6796875 351.5625 241.69921875 c 1,48,-1
 351.5625 245.1171875 l 2,49,50
 351.5625 276.3671875 351.5625 276.3671875 346.19140625 302.24609375 c 1,51,-1
 346.19140625 301.7578125 l 1,52,53
 342.28515625 317.3828125 342.28515625 317.3828125 337.890625 335.44921875 c 128,-1,54
 333.49609375 353.515625 333.49609375 353.515625 328.125 371.09375 c 1,55,-1
 380.859375 502.44140625 l 2,56,57
 383.7890625 510.25390625 383.7890625 510.25390625 391.11328125 510.498046875 c 128,-1,58
 398.4375 510.7421875 398.4375 510.7421875 402.34375 503.41796875 c 1,59,60
 409.66796875 487.3046875 409.66796875 487.3046875 415.771484375 472.65625 c 128,-1,61
 421.875 458.0078125 421.875 458.0078125 426.26953125 444.3359375 c 0,62,63
 430.17578125 431.640625 430.17578125 431.640625 443.84765625 431.640625 c 0,64,65
 446.2890625 431.640625 446.2890625 431.640625 448.73046875 432.12890625 c 1,66,-1
 448.73046875 431.640625 l 1,67,68
 494.62890625 441.40625 494.62890625 441.40625 539.0625 450.927734375 c 128,-1,69
 583.49609375 460.44921875 583.49609375 460.44921875 628.41796875 470.21484375 c 0,70,71
 715.33203125 489.2578125 715.33203125 489.2578125 793.45703125 520.99609375 c 1,72,73
 836.42578125 537.109375 836.42578125 537.109375 852.05078125 562.5 c 0,74,75
 853.515625 563.96484375 853.515625 563.96484375 855.46875 565.185546875 c 128,-1,76
 857.421875 566.40625 857.421875 566.40625 861.328125 566.40625 c 0,77,78
 863.76953125 566.40625 863.76953125 566.40625 866.2109375 565.185546875 c 128,-1,79
 868.65234375 563.96484375 868.65234375 563.96484375 871.09375 562.98828125 c 1,80,81
 874.51171875 560.05859375 874.51171875 560.05859375 876.46484375 557.373046875 c 128,-1,82
 878.41796875 554.6875 878.41796875 554.6875 878.41796875 547.8515625 c 1,83,84
 858.3984375 488.28125 858.3984375 488.28125 834.9609375 429.443359375 c 128,-1,85
 811.5234375 370.60546875 811.5234375 370.60546875 786.62109375 317.3828125 c 0,86,87
 782.71484375 309.5703125 782.71484375 309.5703125 776.85546875 304.931640625 c 128,-1,88
 770.99609375 300.29296875 770.99609375 300.29296875 762.6953125 300.29296875 c 0,89,90
 753.90625 300.29296875 753.90625 300.29296875 746.58203125 306.15234375 c 0,91,92
 738.28125 312.98828125 738.28125 312.98828125 738.28125 325.68359375 c 0,93,94
 738.28125 329.58984375 738.28125 329.58984375 739.013671875 334.9609375 c 128,-1,95
 739.74609375 340.33203125 739.74609375 340.33203125 742.1875 346.19140625 c 1,96,-1
 742.1875 345.703125 l 1,97,98
 744.62890625 354.4921875 744.62890625 354.4921875 747.55859375 361.572265625 c 128,-1,99
 750.48828125 368.65234375 750.48828125 368.65234375 753.90625 375 c 1,100,101
 719.7265625 361.328125 719.7265625 361.328125 682.6171875 349.853515625 c 128,-1,102
 645.5078125 338.37890625 645.5078125 338.37890625 604.98046875 329.1015625 c 0,103,104
 556.15234375 317.87109375 556.15234375 317.87109375 513.427734375 306.640625 c 128,-1,105
 470.703125 295.41015625 470.703125 295.41015625 427.734375 282.2265625 c 1,106,-1
 398.92578125 205.56640625 l 2,0,1
EndSplineSet
Fore
SplineSet
763 300 m 0
 749 300 738 311 738 326 c 0
 738 333 740 340 742 346 c 1
 745 357 749 366 754 375 c 1
 708 356 658 341 605 329 c 0
 541 314 488 300 428 282 c 1
 399 206 l 2
 380 156 333 92 292 59 c 128
 269 41 243 26 215 16 c 0
 186 6 159 0 134 0 c 0
 111 0 89 6 68 16 c 1
 68 15 l 1
 25 36 3 86 -4 146 c 0
 -4 148 -5 150 -5 153 c 128
 -5 157 -5 158 -5 161 c 0
 -5 192 3 229 18 272 c 128
 33 315 54 362 82 413 c 0
 88 423 94 428 101 428 c 0
 112 428 118 420 118 410 c 0
 118 391 108 379 101 364 c 128
 86 334 67 302 59 265 c 0
 56 254 55 241 55 230 c 0
 55 195 65 180 96 167 c 1
 117 163 135 162 152 162 c 0
 212 162 264 183 303 206 c 128
 321 216 337 229 352 242 c 1
 352 245 l 2
 352 295 340 332 328 371 c 1
 381 502 l 2
 385 512 397 513 402 503 c 1
 411 483 419 464 426 444 c 0
 429 436 435 432 444 432 c 0
 446 432 447 432 449 432 c 1
 449 432 l 1
 569 457 689 479 793 521 c 1
 822 532 842 545 852 562 c 0
 854 564 856 566 861 566 c 0
 865 566 868 564 871 563 c 1
 876 559 878 557 878 548 c 1
 852 470 820 388 787 317 c 0
 783 308 775 300 763 300 c 0
EndSplineSet
EndChar
StartChar: sheen-ar
Encoding: 1588 1588 381
Width: 1000
GlyphClass: 2
AnchorPoint: "top.mark" 655 725 basechar 0
AnchorPoint: "bottom.mark" 602 26 basechar 0
LayerCount: 2
Back
SplineSet
958.0078125 493.1640625 m 1,0,1
 928.7109375 430.6640625 928.7109375 430.6640625 898.4375 371.58203125 c 128,-1,2
 868.1640625 312.5 868.1640625 312.5 833.984375 259.27734375 c 1,3,4
 815.91796875 234.375 815.91796875 234.375 800.29296875 245.60546875 c 1,5,6
 788.0859375 255.37109375 788.0859375 255.37109375 793.9453125 269.53125 c 1,7,-1
 793.9453125 269.04296875 l 1,8,9
 799.31640625 282.71484375 799.31640625 282.71484375 804.931640625 293.9453125 c 128,-1,10
 810.546875 305.17578125 810.546875 305.17578125 815.91796875 314.94140625 c 2,11,-1
 817.3828125 317.3828125 l 1,12,13
 787.59765625 301.7578125 787.59765625 301.7578125 757.080078125 289.306640625 c 128,-1,14
 726.5625 276.85546875 726.5625 276.85546875 694.3359375 266.11328125 c 0,15,16
 652.83203125 252.9296875 652.83203125 252.9296875 608.88671875 239.74609375 c 128,-1,17
 564.94140625 226.5625 564.94140625 226.5625 520.01953125 213.8671875 c 1,18,19
 479.00390625 211.9140625 479.00390625 211.9140625 461.9140625 239.2578125 c 1,20,-1
 461.9140625 238.76953125 l 1,21,22
 458.49609375 243.1640625 458.49609375 243.1640625 457.03125 243.1640625 c 0,23,24
 450.1953125 243.1640625 450.1953125 243.1640625 438.4765625 233.88671875 c 0,25,26
 414.0625 214.35546875 414.0625 214.35546875 391.845703125 183.349609375 c 128,-1,27
 369.62890625 152.34375 369.62890625 152.34375 350.5859375 111.328125 c 0,28,29
 308.10546875 20.99609375 308.10546875 20.99609375 241.2109375 0 c 1,30,31
 212.40234375 0.9765625 212.40234375 0.9765625 193.603515625 17.08984375 c 128,-1,32
 174.8046875 33.203125 174.8046875 33.203125 166.9921875 61.5234375 c 0,33,34
 162.59765625 77.1484375 162.59765625 77.1484375 160.15625 95.947265625 c 128,-1,35
 157.71484375 114.74609375 157.71484375 114.74609375 156.25 136.71875 c 0,36,37
 154.296875 179.19921875 154.296875 179.19921875 143.5546875 194.82421875 c 1,38,-1
 143.5546875 194.3359375 l 1,39,40
 139.16015625 200.1953125 139.16015625 200.1953125 132.080078125 205.078125 c 128,-1,41
 125 209.9609375 125 209.9609375 116.69921875 207.51953125 c 1,42,43
 89.84375 197.75390625 89.84375 197.75390625 70.556640625 177.490234375 c 128,-1,44
 51.26953125 157.2265625 51.26953125 157.2265625 37.109375 135.25390625 c 1,45,-1
 37.109375 135.7421875 l 1,46,47
 27.34375 119.140625 27.34375 119.140625 17.08984375 110.3515625 c 0,48,49
 13.18359375 107.421875 13.18359375 107.421875 8.7890625 107.666015625 c 128,-1,50
 4.39453125 107.91015625 4.39453125 107.91015625 1.220703125 110.107421875 c 128,-1,51
 -1.953125 112.3046875 -1.953125 112.3046875 -3.41796875 116.2109375 c 128,-1,52
 -4.8828125 120.1171875 -4.8828125 120.1171875 -3.41796875 124.51171875 c 0,53,54
 7.8125 158.203125 7.8125 158.203125 19.04296875 186.767578125 c 128,-1,55
 30.2734375 215.33203125 30.2734375 215.33203125 41.015625 239.2578125 c 0,56,57
 52.24609375 263.18359375 52.24609375 263.18359375 73.486328125 287.109375 c 128,-1,58
 94.7265625 311.03515625 94.7265625 311.03515625 125.48828125 333.49609375 c 0,59,60
 170.8984375 367.1875 170.8984375 367.1875 196.2890625 352.5390625 c 1,61,62
 225.5859375 333.984375 225.5859375 333.984375 227.5390625 272.94921875 c 1,63,-1
 227.5390625 256.34765625 l 2,64,65
 227.5390625 231.93359375 227.5390625 231.93359375 226.07421875 213.8671875 c 1,66,67
 226.07421875 204.1015625 226.07421875 204.1015625 229.248046875 190.91796875 c 128,-1,68
 232.421875 177.734375 232.421875 177.734375 238.76953125 166.015625 c 0,69,70
 242.67578125 158.69140625 242.67578125 158.69140625 253.41796875 156.73828125 c 0,71,72
 260.25390625 155.76171875 260.25390625 155.76171875 265.625 157.2265625 c 128,-1,73
 270.99609375 158.69140625 270.99609375 158.69140625 275.390625 161.1328125 c 0,74,75
 291.015625 171.875 291.015625 171.875 305.17578125 185.791015625 c 128,-1,76
 319.3359375 199.70703125 319.3359375 199.70703125 331.0546875 215.8203125 c 0,77,78
 343.75 232.91015625 343.75 232.91015625 355.95703125 249.755859375 c 128,-1,79
 368.1640625 266.6015625 368.1640625 266.6015625 380.37109375 283.69140625 c 1,80,81
 397.4609375 309.5703125 397.4609375 309.5703125 415.771484375 330.078125 c 128,-1,82
 434.08203125 350.5859375 434.08203125 350.5859375 450.1953125 364.74609375 c 1,83,84
 458.984375 371.58203125 458.984375 371.58203125 469.482421875 375.48828125 c 128,-1,85
 479.98046875 379.39453125 479.98046875 379.39453125 492.67578125 379.39453125 c 0,86,87
 506.8359375 379.39453125 506.8359375 379.39453125 522.705078125 374.755859375 c 128,-1,88
 538.57421875 370.1171875 538.57421875 370.1171875 558.59375 358.88671875 c 1,89,90
 630.37109375 374.0234375 630.37109375 374.0234375 699.70703125 396.97265625 c 128,-1,91
 769.04296875 419.921875 769.04296875 419.921875 833.49609375 444.3359375 c 0,92,93
 859.86328125 454.58984375 859.86328125 454.58984375 885.498046875 470.458984375 c 128,-1,94
 911.1328125 486.328125 911.1328125 486.328125 935.05859375 507.8125 c 1,95,96
 945.80078125 516.6015625 945.80078125 516.6015625 953.125 518.5546875 c 0,97,98
 958.984375 520.5078125 958.984375 520.5078125 961.9140625 515.869140625 c 128,-1,99
 964.84375 511.23046875 964.84375 511.23046875 958.49609375 494.140625 c 1,100,-1
 958.0078125 493.1640625 l 1,0,1
EndSplineSet
Fore
SplineSet
493 379 m 0
 520 379 538 371 559 359 c 1
 655 379 748 412 833 444 c 0
 871 459 906 482 935 508 c 0
 942 514 956 525 962 516 c 128
 964 514 963 503 958 493 c 0
 920 411 880 331 834 259 c 1
 822 242 810 239 800 246 c 1
 792 252 790 260 794 269 c 0
 801 287 808 302 817 317 c 1
 730 271 624 243 520 214 c 1
 493 213 473 221 462 239 c 1
 462 239 l 1
 460 242 458 243 457 243 c 0
 452 243 446 240 438 234 c 0
 401 204 374 160 351 111 c 0
 323 51 286 14 241 0 c 1
 171 2 161 68 156 137 c 0
 155 165 151 185 144 195 c 1
 144 194 l 1
 139 200 129 212 117 208 c 1
 82 195 56 164 37 135 c 1
 37 136 l 1
 30 125 17 99 1 110 c 128
 -3 112 -5 118 -3 125 c 0
 11 166 25 203 41 239 c 0
 59 277 90 307 125 333 c 0
 155 355 179 363 196 353 c 1
 216 341 227 314 228 273 c 1
 228 256 l 2
 228 240 227 226 226 214 c 1
 226 185 239 141 275 161 c 1
 319 191 349 240 380 284 c 1
 400 314 425 343 450 365 c 0
 461 373 475 379 493 379 c 0
EndSplineSet
EndChar
StartChar: sad-ar
Encoding: 1589 1589 73
Width: 881
GlyphClass: 2
AnchorPoint: "bottom" 558 92 basechar 0
AnchorPoint: "bottom.mark" 589 97 basechar 0
AnchorPoint: "top" 610 781 basechar 0
AnchorPoint: "top.mark" 633 791 basechar 0
LayerCount: 2
Back
SplineSet
354.4921875 126.953125 m 0,0,1
 299.8046875 47.36328125 299.8046875 47.36328125 214.35546875 16.11328125 c 0,2,3
 170.41015625 0.48828125 170.41015625 0.48828125 133.30078125 0.48828125 c 0,4,5
 98.6328125 0.48828125 98.6328125 0.48828125 67.3828125 15.625 c 1,6,-1
 67.3828125 15.13671875 l 1,7,8
 36.62109375 30.2734375 36.62109375 30.2734375 18.5546875 63.720703125 c 128,-1,9
 0.48828125 97.16796875 0.48828125 97.16796875 -4.8828125 145.5078125 c 0,10,11
 -5.37109375 148.92578125 -5.37109375 148.92578125 -5.37109375 153.3203125 c 128,-1,12
 -5.37109375 157.71484375 -5.37109375 157.71484375 -5.37109375 161.1328125 c 0,13,14
 -5.37109375 207.51953125 -5.37109375 207.51953125 17.08984375 272.216796875 c 128,-1,15
 39.55078125 336.9140625 39.55078125 336.9140625 81.0546875 413.0859375 c 1,16,17
 89.84375 427.734375 89.84375 427.734375 100.5859375 427.734375 c 0,18,19
 101.5625 427.734375 101.5625 427.734375 103.515625 427.490234375 c 128,-1,20
 105.46875 427.24609375 105.46875 427.24609375 108.3984375 426.26953125 c 1,21,22
 117.67578125 421.38671875 117.67578125 421.38671875 117.67578125 409.66796875 c 0,23,24
 117.67578125 405.76171875 117.67578125 405.76171875 116.69921875 401.3671875 c 128,-1,25
 115.72265625 396.97265625 115.72265625 396.97265625 113.76953125 391.11328125 c 1,26,27
 107.91015625 378.41796875 107.91015625 378.41796875 100.341796875 363.525390625 c 128,-1,28
 92.7734375 348.6328125 92.7734375 348.6328125 83.984375 331.0546875 c 0,29,30
 75.68359375 314.94140625 75.68359375 314.94140625 69.091796875 298.33984375 c 128,-1,31
 62.5 281.73828125 62.5 281.73828125 58.59375 264.6484375 c 0,32,33
 54.19921875 247.55859375 54.19921875 247.55859375 54.19921875 230.46875 c 0,34,35
 54.19921875 216.796875 54.19921875 216.796875 57.12890625 205.078125 c 0,36,37
 62.5 181.15234375 62.5 181.15234375 95.21484375 166.9921875 c 1,38,39
 126.46484375 161.62109375 126.46484375 161.62109375 151.3671875 161.62109375 c 0,40,41
 200.1953125 161.62109375 200.1953125 161.62109375 242.1875 178.22265625 c 1,42,43
 275.87890625 190.91796875 275.87890625 190.91796875 302.490234375 206.298828125 c 128,-1,44
 329.1015625 221.6796875 329.1015625 221.6796875 351.07421875 241.69921875 c 1,45,-1
 351.07421875 245.1171875 l 2,46,47
 351.07421875 263.18359375 351.07421875 263.18359375 349.365234375 278.80859375 c 128,-1,48
 347.65625 294.43359375 347.65625 294.43359375 344.7265625 308.59375 c 1,49,-1
 344.7265625 308.10546875 l 1,50,51
 340.8203125 325.1953125 340.8203125 325.1953125 335.693359375 343.75 c 128,-1,52
 330.56640625 362.3046875 330.56640625 362.3046875 325.68359375 378.41796875 c 1,53,-1
 380.37109375 502.9296875 l 2,54,55
 383.30078125 510.25390625 383.30078125 510.25390625 390.625 510.25390625 c 128,-1,56
 397.94921875 510.25390625 397.94921875 510.25390625 401.85546875 502.9296875 c 1,57,-1
 436.03515625 426.7578125 l 1,58,59
 438.96484375 417.96875 438.96484375 417.96875 454.1015625 417.96875 c 0,60,61
 461.42578125 417.96875 461.42578125 417.96875 469.7265625 419.43359375 c 1,62,63
 511.23046875 466.796875 511.23046875 466.796875 554.931640625 513.427734375 c 128,-1,64
 598.6328125 560.05859375 598.6328125 560.05859375 643.06640625 601.5625 c 1,65,66
 668.9453125 625 668.9453125 625 716.796875 634.765625 c 0,67,68
 726.07421875 636.71875 726.07421875 636.71875 738.28125 636.71875 c 0,69,70
 774.90234375 636.71875 774.90234375 636.71875 797.8515625 609.86328125 c 1,71,72
 817.87109375 585.44921875 817.87109375 585.44921875 817.87109375 558.10546875 c 0,73,74
 817.87109375 538.0859375 817.87109375 538.0859375 808.10546875 520.5078125 c 1,75,-1
 808.10546875 520.99609375 l 1,76,77
 796.875 499.51171875 796.875 499.51171875 785.64453125 481.201171875 c 128,-1,78
 774.4140625 462.890625 774.4140625 462.890625 762.20703125 446.2890625 c 0,79,80
 742.1875 419.43359375 742.1875 419.43359375 716.796875 396.728515625 c 128,-1,81
 691.40625 374.0234375 691.40625 374.0234375 660.15625 355.46875 c 0,82,83
 630.859375 338.37890625 630.859375 338.37890625 598.388671875 324.951171875 c 128,-1,84
 565.91796875 311.5234375 565.91796875 311.5234375 533.69140625 303.22265625 c 1,85,86
 503.90625 294.921875 503.90625 294.921875 476.318359375 289.306640625 c 128,-1,87
 448.73046875 283.69140625 448.73046875 283.69140625 422.8515625 279.78515625 c 1,88,89
 403.3203125 198.73046875 403.3203125 198.73046875 354.4921875 126.953125 c 0,0,1
693.84765625 487.79296875 m 1,90,91
 690.4296875 494.140625 690.4296875 494.140625 684.08203125 498.291015625 c 128,-1,92
 677.734375 502.44140625 677.734375 502.44140625 668.45703125 505.37109375 c 0,93,94
 659.66796875 507.8125 659.66796875 507.8125 653.80859375 507.8125 c 0,95,96
 642.08984375 507.8125 642.08984375 507.8125 633.30078125 501.953125 c 1,97,98
 609.375 489.2578125 609.375 489.2578125 589.599609375 471.435546875 c 128,-1,99
 569.82421875 453.61328125 569.82421875 453.61328125 549.8046875 434.08203125 c 1,100,101
 589.84375 442.3828125 589.84375 442.3828125 627.685546875 453.125 c 128,-1,102
 665.52734375 463.8671875 665.52734375 463.8671875 697.75390625 479.00390625 c 1,103,104
 697.265625 480.46875 697.265625 480.46875 696.2890625 482.177734375 c 128,-1,105
 695.3125 483.88671875 695.3125 483.88671875 693.84765625 487.79296875 c 1,90,91
EndSplineSet
Fore
SplineSet
738 637 m 0
 781 637 818 600 818 558 c 0
 818 545 815 533 808 521 c 1
 808 521 l 1
 771 451 727 395 660 355 c 0
 594 316 513 294 423 280 c 1
 410 226 387 175 354 127 c 0
 318 74 271 37 214 16 c 0
 185 6 158 0 133 0 c 0
 110 0 88 6 67 16 c 1
 67 15 l 1
 24 36 2 86 -5 146 c 0
 -5 148 -5 150 -5 153 c 128
 -5 157 -5 158 -5 161 c 0
 -5 192 2 229 17 272 c 128
 32 315 53 362 81 413 c 0
 87 423 94 428 101 428 c 0
 112 428 118 420 118 410 c 0
 118 403 116 397 114 391 c 1
 96 351 70 313 59 265 c 0
 56 254 54 241 54 230 c 0
 54 195 64 180 95 167 c 1
 116 163 134 162 151 162 c 0
 184 162 214 167 242 178 c 0
 286 194 320 214 351 242 c 1
 351 245 l 2
 351 298 338 337 326 378 c 1
 380 503 l 2
 382 508 386 510 391 510 c 128
 396 510 399 508 402 503 c 2
 436 427 l 1
 438 421 444 418 454 418 c 0
 459 418 464 418 470 419 c 1
 524 481 583 546 643 602 c 0
 662 620 697 637 738 637 c 0
698 479 m 1
 697 482 696 484 694 488 c 1
 688 499 671 508 654 508 c 0
 646 508 639 506 633 502 c 1
 600 485 576 459 550 434 c 1
 603 445 655 459 698 479 c 1
EndSplineSet
EndChar
StartChar: tah-ar
Encoding: 1591 1591 77
Width: 681
GlyphClass: 2
AnchorPoint: "Dots Below" 286 -207 basechar 0
AnchorPoint: "Tashkil Below" 325 -145 basechar 0
AnchorPoint: "Tashkil Above" 356 677 basechar 0
AnchorPoint: "Dots Above" 510 475 basechar 0
LayerCount: 2
Back
SplineSet
482.91015625 227.5390625 m 0,1,2
 474.12109375 229.98046875 474.12109375 229.98046875 467.7734375 229.98046875 c 0,3,4
 458.49609375 229.98046875 458.49609375 229.98046875 447.75390625 224.609375 c 1,5,6
 424.31640625 211.42578125 424.31640625 211.42578125 404.052734375 193.603515625 c 128,-1,7
 383.7890625 175.78125 383.7890625 175.78125 364.2578125 156.25 c 1,8,9
 404.296875 164.55078125 404.296875 164.55078125 441.650390625 175.048828125 c 128,-1,10
 479.00390625 185.546875 479.00390625 185.546875 511.71875 201.171875 c 0,11,12
 511.71875 201.66015625 511.71875 201.66015625 511.71875 201.66015625 c 2,13,14
 511.71875 203.125 511.71875 203.125 506.591796875 212.40234375 c 128,-1,0
 501.46484375 221.6796875 501.46484375 221.6796875 482.91015625 227.5390625 c 0,1,2
282.2265625 13.18359375 m 0,15,16
 232.91015625 0 232.91015625 0 195.3125 0 c 0,17,18
 191.40625 0 191.40625 0 187.01171875 0.244140625 c 128,-1,19
 182.6171875 0.48828125 182.6171875 0.48828125 178.7109375 0.9765625 c 0,20,21
 126.46484375 11.71875 126.46484375 11.71875 82.51953125 33.935546875 c 128,-1,22
 38.57421875 56.15234375 38.57421875 56.15234375 1.953125 88.37890625 c 1,23,24
 -2.44140625 90.8203125 -2.44140625 90.8203125 -3.90625 95.703125 c 128,-1,25
 -5.37109375 100.5859375 -5.37109375 100.5859375 -4.39453125 106.93359375 c 1,26,27
 -2.44140625 115.234375 -2.44140625 115.234375 1.708984375 118.408203125 c 128,-1,28
 5.859375 121.58203125 5.859375 121.58203125 12.6953125 121.58203125 c 0,29,30
 24.90234375 121.09375 24.90234375 121.09375 36.62109375 120.849609375 c 128,-1,31
 48.33984375 120.60546875 48.33984375 120.60546875 60.05859375 120.60546875 c 0,32,33
 106.93359375 120.60546875 106.93359375 120.60546875 155.2734375 125 c 0,34,35
 190.4296875 127.9296875 190.4296875 127.9296875 221.19140625 131.8359375 c 128,-1,36
 251.953125 135.7421875 251.953125 135.7421875 284.1796875 141.11328125 c 1,37,38
 324.21875 187.98828125 324.21875 187.98828125 367.67578125 234.130859375 c 128,-1,39
 411.1328125 280.2734375 411.1328125 280.2734375 458.984375 325.1953125 c 1,40,41
 510.25390625 363.76953125 510.25390625 363.76953125 549.8046875 361.328125 c 0,42,43
 590.8203125 358.88671875 590.8203125 358.88671875 613.76953125 330.078125 c 1,44,45
 625 312.98828125 625 312.98828125 625 291.50390625 c 0,46,47
 625 271.97265625 625 271.97265625 614.013671875 247.55859375 c 128,-1,48
 603.02734375 223.14453125 603.02734375 223.14453125 583.984375 197.265625 c 1,49,50
 554.6875 159.1796875 554.6875 159.1796875 521.240234375 128.90625 c 128,-1,51
 487.79296875 98.6328125 487.79296875 98.6328125 451.171875 78.125 c 256,52,53
 414.55078125 57.6171875 414.55078125 57.6171875 372.802734375 41.748046875 c 128,-1,54
 331.0546875 25.87890625 331.0546875 25.87890625 282.2265625 13.18359375 c 0,15,16
278.3203125 477.5390625 m 1,55,-1
 351.5625 594.23828125 l 2,56,57
 356.4453125 601.5625 356.4453125 601.5625 364.501953125 599.609375 c 128,-1,58
 372.55859375 597.65625 372.55859375 597.65625 373.53515625 588.8671875 c 2,59,-1
 394.04296875 274.90234375 l 1,60,-1
 320.80078125 158.69140625 l 2,61,62
 318.359375 154.78515625 318.359375 154.78515625 314.94140625 153.564453125 c 128,-1,63
 311.5234375 152.34375 311.5234375 152.34375 308.10546875 153.076171875 c 128,-1,64
 304.6875 153.80859375 304.6875 153.80859375 302.24609375 156.494140625 c 128,-1,65
 299.8046875 159.1796875 299.8046875 159.1796875 299.31640625 163.57421875 c 2,66,-1
 278.3203125 477.5390625 l 1,55,-1
EndSplineSet
Fore
SplineSet
364 156 m 1
 417 167 468 180 512 201 c 0
 512 202 l 2
 512 203 510 206 507 212 c 128
 503 220 484 230 468 230 c 0
 462 230 455 229 448 225 c 0
 416 207 389 181 364 156 c 1
13 122 m 0
 29 121 44 121 60 121 c 0
 139 121 215 130 284 141 c 1
 339 205 397 267 459 325 c 1
 493 351 524 363 550 361 c 0
 577 359 599 349 614 330 c 1
 621 319 625 306 625 292 c 0
 625 256 603 222 584 197 c 1
 547 149 503 107 451 78 c 256
 401 50 345 30 282 13 c 0
 249 4 220 0 195 0 c 0
 190 0 184 0 179 1 c 0
 107 16 49 47 2 88 c 1
 -7 93 -6 112 2 118 c 128
 5 120 8 122 13 122 c 0
278 478 m 1
 352 594 l 2
 359 604 373 601 374 589 c 1
 394 275 l 1
 321 159 l 2
 315 150 300 152 299 164 c 1
 278 478 l 1
EndSplineSet
EndChar
StartChar: ain-ar
Encoding: 1593 1593 81
Width: 683
GlyphClass: 2
AnchorPoint: "top" 193 756 basechar 0
AnchorPoint: "top.mark" 224 765 basechar 0
AnchorPoint: "bottom" 299 -532 basechar 0
AnchorPoint: "bottom.mark" 303 -523 basechar 0
LayerCount: 2
Back
SplineSet
43.9453125 68.359375 m 1,0,1
 74.70703125 130.859375 74.70703125 130.859375 110.83984375 180.6640625 c 128,-1,2
 146.97265625 230.46875 146.97265625 230.46875 186.03515625 264.16015625 c 1,3,4
 181.640625 269.53125 181.640625 269.53125 176.513671875 275.634765625 c 128,-1,5
 171.38671875 281.73828125 171.38671875 281.73828125 166.015625 289.0625 c 1,6,-1
 166.50390625 288.57421875 l 1,7,8
 148.4375 310.546875 148.4375 310.546875 137.6953125 335.44921875 c 128,-1,9
 126.953125 360.3515625 126.953125 360.3515625 123.046875 388.18359375 c 0,10,11
 120.1171875 409.1796875 120.1171875 409.1796875 120.1171875 431.640625 c 0,12,13
 120.1171875 461.42578125 120.1171875 461.42578125 126.953125 493.1640625 c 1,14,15
 133.30078125 517.578125 133.30078125 517.578125 143.5546875 539.306640625 c 128,-1,16
 153.80859375 561.03515625 153.80859375 561.03515625 167.96875 578.125 c 0,17,18
 197.75390625 613.76953125 197.75390625 613.76953125 239.2578125 613.76953125 c 1,19,20
 260.25390625 612.79296875 260.25390625 612.79296875 279.296875 609.130859375 c 128,-1,21
 298.33984375 605.46875 298.33984375 605.46875 317.3828125 601.07421875 c 2,22,-1
 335.9375 596.6796875 l 2,23,24
 341.30859375 595.703125 341.30859375 595.703125 343.75 591.30859375 c 128,-1,25
 346.19140625 586.9140625 346.19140625 586.9140625 344.23828125 581.54296875 c 2,26,-1
 303.7109375 456.0546875 l 2,27,28
 302.24609375 451.66015625 302.24609375 451.66015625 297.8515625 449.462890625 c 128,-1,29
 293.45703125 447.265625 293.45703125 447.265625 289.0625 448.73046875 c 0,30,31
 247.0703125 461.42578125 247.0703125 461.42578125 205.56640625 467.28515625 c 1,32,33
 208.0078125 456.0546875 208.0078125 456.0546875 211.42578125 446.2890625 c 128,-1,34
 214.84375 436.5234375 214.84375 436.5234375 219.23828125 429.19921875 c 1,35,-1
 218.75 429.6875 l 1,36,37
 230.95703125 410.15625 230.95703125 410.15625 255.37109375 389.16015625 c 1,38,39
 268.5546875 376.953125 268.5546875 376.953125 288.0859375 376.953125 c 0,40,41
 306.640625 376.953125 306.640625 376.953125 333.49609375 389.6484375 c 1,42,-1
 333.49609375 389.16015625 l 1,43,44
 362.3046875 403.80859375 362.3046875 403.80859375 387.20703125 421.142578125 c 128,-1,45
 412.109375 438.4765625 412.109375 438.4765625 434.08203125 459.47265625 c 0,46,47
 437.5 462.890625 437.5 462.890625 441.40625 462.890625 c 128,-1,48
 445.3125 462.890625 445.3125 462.890625 448.2421875 460.693359375 c 128,-1,49
 451.171875 458.49609375 451.171875 458.49609375 452.63671875 454.833984375 c 128,-1,50
 454.1015625 451.171875 454.1015625 451.171875 452.63671875 446.77734375 c 2,51,-1
 409.1796875 334.9609375 l 2,52,53
 403.3203125 319.82421875 403.3203125 319.82421875 390.380859375 305.17578125 c 128,-1,54
 377.44140625 290.52734375 377.44140625 290.52734375 357.421875 274.90234375 c 0,55,56
 338.8671875 260.7421875 338.8671875 260.7421875 322.509765625 247.55859375 c 128,-1,57
 306.15234375 234.375 306.15234375 234.375 291.9921875 221.6796875 c 1,58,-1
 292.48046875 221.6796875 l 1,59,60
 285.64453125 216.30859375 285.64453125 216.30859375 276.3671875 208.0078125 c 128,-1,61
 267.08984375 199.70703125 267.08984375 199.70703125 255.37109375 188.96484375 c 2,62,-1
 225.09765625 161.1328125 l 1,63,-1
 225.09765625 161.62109375 l 1,64,65
 201.66015625 140.625 201.66015625 140.625 179.6875 117.67578125 c 128,-1,66
 157.71484375 94.7265625 157.71484375 94.7265625 136.71875 69.82421875 c 0,67,68
 96.19140625 21.97265625 96.19140625 21.97265625 73.2421875 -27.34375 c 0,69,70
 63.96484375 -46.38671875 63.96484375 -46.38671875 63.96484375 -62.98828125 c 0,71,72
 63.96484375 -72.265625 63.96484375 -72.265625 67.3828125 -80.322265625 c 128,-1,73
 70.80078125 -88.37890625 70.80078125 -88.37890625 76.66015625 -95.703125 c 1,74,75
 124.51171875 -149.4140625 124.51171875 -149.4140625 188.96484375 -171.38671875 c 0,76,77
 255.37109375 -194.3359375 255.37109375 -194.3359375 329.58984375 -196.77734375 c 0,78,79
 335.9375 -197.265625 335.9375 -197.265625 342.041015625 -197.265625 c 128,-1,80
 348.14453125 -197.265625 348.14453125 -197.265625 354.4921875 -197.265625 c 0,81,82
 414.55078125 -197.265625 414.55078125 -197.265625 477.5390625 -187.01171875 c 0,83,84
 517.08984375 -180.17578125 517.08984375 -180.17578125 551.26953125 -173.33984375 c 128,-1,85
 585.44921875 -166.50390625 585.44921875 -166.50390625 615.72265625 -158.69140625 c 1,86,87
 625 -155.76171875 625 -155.76171875 630.37109375 -155.76171875 c 0,88,89
 638.18359375 -155.76171875 638.18359375 -155.76171875 641.11328125 -159.66796875 c 128,-1,90
 644.04296875 -163.57421875 644.04296875 -163.57421875 644.04296875 -168.45703125 c 0,91,92
 644.04296875 -170.8984375 644.04296875 -170.8984375 643.5546875 -173.33984375 c 128,-1,93
 643.06640625 -175.78125 643.06640625 -175.78125 640.13671875 -178.22265625 c 1,94,-1
 640.625 -177.24609375 l 1,95,96
 580.56640625 -250.48828125 580.56640625 -250.48828125 479.98046875 -296.875 c 1,97,-1
 480.46875 -296.875 l 1,98,99
 382.32421875 -343.26171875 382.32421875 -343.26171875 282.2265625 -349.609375 c 0,100,101
 274.90234375 -350.09765625 274.90234375 -350.09765625 267.578125 -350.341796875 c 128,-1,102
 260.25390625 -350.5859375 260.25390625 -350.5859375 253.41796875 -350.5859375 c 0,103,104
 171.875 -350.5859375 171.875 -350.5859375 102.05078125 -316.40625 c 0,105,106
 61.5234375 -296.38671875 61.5234375 -296.38671875 35.15625 -261.23046875 c 128,-1,107
 8.7890625 -226.07421875 8.7890625 -226.07421875 -1.46484375 -175.78125 c 0,108,109
 -6.8359375 -150.390625 -6.8359375 -150.390625 -6.8359375 -121.09375 c 0,110,111
 -6.8359375 -79.1015625 -6.8359375 -79.1015625 6.591796875 -31.005859375 c 128,-1,112
 20.01953125 17.08984375 20.01953125 17.08984375 43.9453125 68.359375 c 1,0,1
EndSplineSet
Fore
SplineSet
641 -177 m 1
 566 -269 413 -351 253 -351 c 0
 163 -351 77 -317 35 -261 c 128
 9 -227 -7 -180 -7 -121 c 0
 -7 -50 18 13 44 68 c 1
 81 144 128 214 186 264 c 1
 180 272 173 280 167 289 c 1
 137 325 120 368 120 432 c 0
 120 452 122 472 127 493 c 1
 141 548 175 614 239 614 c 1
 268 613 292 607 317 601 c 2
 336 597 l 2
 342 596 347 590 344 582 c 2
 304 456 l 2
 302 451 296 447 289 449 c 0
 261 457 234 463 206 467 c 1
 214 429 227 413 255 389 c 0
 264 381 275 377 288 377 c 0
 300 377 315 382 333 390 c 1
 333 389 l 1
 371 409 404 431 434 459 c 0
 436 461 438 463 441 463 c 128
 449 463 456 456 453 447 c 2
 409 335 l 2
 394 297 353 272 323 248 c 128
 312 239 301 230 292 222 c 1
 292 222 l 1
 280 212 268 201 255 189 c 2
 225 161 l 1
 225 162 l 1
 168 111 106 44 73 -27 c 0
 67 -40 64 -52 64 -63 c 0
 64 -77 70 -88 77 -96 c 1
 136 -162 225 -197 342 -197 c 128
 348 -197 348 -197 354 -197 c 0
 446 -197 541 -178 616 -159 c 0
 622 -157 626 -156 630 -156 c 0
 639 -156 644 -160 644 -168 c 0
 644 -173 643 -175 640 -178 c 1
 641 -177 l 1
EndSplineSet
EndChar
StartChar: kaf-ar
Encoding: 1603 1603 91
Width: 568
GlyphClass: 2
AnchorPoint: "top.gaf" 308 769 basechar 0
AnchorPoint: "bottom.mark" 237 -149 basechar 0
AnchorPoint: "bottom" 255 -127 basechar 0
AnchorPoint: "top" 308 769 basechar 0
AnchorPoint: "top.mark" 316 721 basechar 0
LayerCount: 2
Back
SplineSet
468.26171875 236.81640625 m 2,1,-1
 468.26171875 242.1875 l 1,2,-1
 440.91796875 601.5625 l 1,3,-1
 514.16015625 723.6328125 l 2,4,5
 516.6015625 727.5390625 516.6015625 727.5390625 520.263671875 728.759765625 c 128,-1,6
 523.92578125 729.98046875 523.92578125 729.98046875 527.34375 729.248046875 c 128,-1,7
 530.76171875 728.515625 530.76171875 728.515625 533.203125 725.830078125 c 128,-1,8
 535.64453125 723.14453125 535.64453125 723.14453125 536.1328125 718.75 c 2,9,-1
 564.453125 345.21484375 l 1,10,-1
 564.453125 346.19140625 l 1,11,12
 564.94140625 343.75 564.94140625 343.75 564.94140625 340.576171875 c 128,-1,13
 564.94140625 337.40234375 564.94140625 337.40234375 564.94140625 333.984375 c 0,14,15
 564.94140625 313.4765625 564.94140625 313.4765625 560.546875 293.212890625 c 128,-1,16
 556.15234375 272.94921875 556.15234375 272.94921875 547.8515625 254.39453125 c 0,17,18
 538.57421875 233.88671875 538.57421875 233.88671875 527.587890625 213.8671875 c 128,-1,19
 516.6015625 193.84765625 516.6015625 193.84765625 505.37109375 175.29296875 c 1,20,21
 486.81640625 147.4609375 486.81640625 147.4609375 459.228515625 122.314453125 c 128,-1,22
 431.640625 97.16796875 431.640625 97.16796875 395.5078125 73.73046875 c 1,23,24
 323.2421875 28.3203125 323.2421875 28.3203125 247.0703125 10.25390625 c 0,25,26
 208.49609375 0.9765625 208.49609375 0.9765625 171.38671875 0.9765625 c 0,27,28
 134.765625 0.9765625 134.765625 0.9765625 101.07421875 10.25390625 c 1,29,-1
 101.5625 10.25390625 l 1,30,31
 66.40625 19.04296875 66.40625 19.04296875 41.50390625 43.45703125 c 128,-1,32
 16.6015625 67.87109375 16.6015625 67.87109375 2.44140625 104.00390625 c 0,33,34
 0.48828125 109.86328125 0.48828125 109.86328125 -1.46484375 117.1875 c 128,-1,35
 -3.41796875 124.51171875 -3.41796875 124.51171875 -4.8828125 132.32421875 c 128,-1,36
 -6.34765625 140.13671875 -6.34765625 140.13671875 -7.32421875 147.705078125 c 128,-1,37
 -8.30078125 155.2734375 -8.30078125 155.2734375 -8.30078125 161.62109375 c 0,38,39
 -8.30078125 183.59375 -8.30078125 183.59375 -2.44140625 206.787109375 c 128,-1,40
 3.41796875 229.98046875 3.41796875 229.98046875 13.671875 253.41796875 c 1,41,42
 30.76171875 289.55078125 30.76171875 289.55078125 49.560546875 323.974609375 c 128,-1,43
 68.359375 358.3984375 68.359375 358.3984375 85.9375 386.23046875 c 1,44,-1
 85.9375 385.7421875 l 1,45,46
 201.171875 566.89453125 201.171875 566.89453125 277.83203125 581.0546875 c 0,47,48
 284.1796875 582.03125 284.1796875 582.03125 290.283203125 582.763671875 c 128,-1,49
 296.38671875 583.49609375 296.38671875 583.49609375 303.22265625 583.49609375 c 0,50,51
 364.2578125 583.49609375 364.2578125 583.49609375 380.37109375 522.94921875 c 0,52,53
 386.23046875 502.44140625 386.23046875 502.44140625 386.23046875 480.95703125 c 0,54,55
 386.23046875 453.61328125 386.23046875 453.61328125 377.9296875 422.36328125 c 128,-1,56
 369.62890625 391.11328125 369.62890625 391.11328125 354.4921875 356.93359375 c 1,57,58
 331.0546875 307.12890625 331.0546875 307.12890625 289.794921875 270.99609375 c 128,-1,59
 248.53515625 234.86328125 248.53515625 234.86328125 187.98828125 212.890625 c 0,60,61
 180.17578125 210.44921875 180.17578125 210.44921875 175.29296875 215.33203125 c 128,-1,62
 170.41015625 220.21484375 170.41015625 220.21484375 172.8515625 228.02734375 c 2,63,-1
 214.35546875 354.4921875 l 2,64,65
 215.33203125 356.93359375 215.33203125 356.93359375 218.017578125 359.130859375 c 128,-1,66
 220.703125 361.328125 220.703125 361.328125 223.14453125 361.81640625 c 0,67,68
 235.83984375 364.2578125 235.83984375 364.2578125 244.873046875 367.1875 c 128,-1,69
 253.90625 370.1171875 253.90625 370.1171875 260.25390625 372.55859375 c 2,70,-1
 289.55078125 386.23046875 l 1,71,72
 278.80859375 441.40625 278.80859375 441.40625 249.51171875 441.40625 c 0,73,74
 245.1171875 441.40625 245.1171875 441.40625 240.234375 440.673828125 c 128,-1,75
 235.3515625 439.94140625 235.3515625 439.94140625 229.98046875 437.5 c 0,76,77
 202.1484375 425.78125 202.1484375 425.78125 178.7109375 407.470703125 c 128,-1,78
 155.2734375 389.16015625 155.2734375 389.16015625 139.16015625 366.2109375 c 1,79,80
 123.046875 341.796875 123.046875 341.796875 107.421875 317.138671875 c 128,-1,81
 91.796875 292.48046875 91.796875 292.48046875 78.125 267.578125 c 1,82,83
 71.2890625 253.90625 71.2890625 253.90625 71.2890625 242.1875 c 0,84,85
 71.2890625 212.890625 71.2890625 212.890625 111.81640625 181.15234375 c 0,86,87
 142.578125 156.73828125 142.578125 156.73828125 190.91796875 155.2734375 c 0,88,89
 194.3359375 154.78515625 194.3359375 154.78515625 196.77734375 154.78515625 c 128,-1,90
 199.21875 154.78515625 199.21875 154.78515625 201.66015625 154.78515625 c 0,91,92
 244.62890625 154.78515625 244.62890625 154.78515625 289.55078125 164.55078125 c 1,93,94
 315.91796875 170.8984375 315.91796875 170.8984375 341.064453125 178.466796875 c 128,-1,95
 366.2109375 186.03515625 366.2109375 186.03515625 390.625 195.80078125 c 1,96,-1
 390.13671875 195.80078125 l 1,97,98
 439.94140625 216.30859375 439.94140625 216.30859375 454.1015625 223.388671875 c 128,-1,0
 468.26171875 230.46875 468.26171875 230.46875 468.26171875 236.81640625 c 2,1,-1
EndSplineSet
Fore
SplineSet
303 583 m 0
 357 583 386 542 386 481 c 0
 386 435 370 394 354 357 c 1
 321 287 265 241 188 213 c 0
 178 210 170 218 173 228 c 2
 214 354 l 1
 218 363 237 364 245 367 c 128
 251 369 256 371 260 373 c 2
 290 386 l 1
 283 423 270 441 250 441 c 0
 242 441 236 441 230 438 c 0
 193 423 160 397 139 366 c 1
 118 334 97 302 78 268 c 0
 73 259 71 250 71 242 c 0
 71 222 85 202 112 181 c 0
 133 164 162 155 197 155 c 128
 199 155 200 155 202 155 c 0
 231 155 260 158 290 165 c 1
 326 174 358 183 390 196 c 0
 423 210 445 218 454 223 c 128
 463 228 468 233 468 237 c 2
 468 242 l 1
 441 602 l 1
 514 724 l 2
 520 733 535 731 536 719 c 2
 564 346 l 2
 564 344 565 343 565 341 c 128
 565 338 565 337 565 334 c 0
 565 283 546 248 528 214 c 128
 521 201 512 187 505 175 c 1
 478 134 440 102 396 74 c 1
 348 44 298 22 247 10 c 0
 221 4 196 1 171 1 c 0
 147 1 124 4 102 10 c 1
 40 26 2 78 -7 148 c 128
 -8 153 -8 158 -8 162 c 0
 -8 197 2 226 14 253 c 1
 35 298 61 347 86 386 c 1
 86 386 l 1
 163 507 227 572 278 581 c 0
 286 582 294 583 303 583 c 0
EndSplineSet
EndChar
StartChar: meem-ar
Encoding: 1605 1605 99
Width: 505
GlyphClass: 2
AnchorPoint: "Dots Above" 166 586 basechar 0
AnchorPoint: "Tashkil Above" 225 625 basechar 0
AnchorPoint: "Dots Below" 299 -9 basechar 0
AnchorPoint: "Tashkil Below" 317 -24 basechar 0
LayerCount: 2
Back
SplineSet
474.609375 457.51953125 m 1,0,1
 465.33203125 413.0859375 465.33203125 413.0859375 450.927734375 380.37109375 c 128,-1,2
 436.5234375 347.65625 436.5234375 347.65625 415.52734375 324.21875 c 1,3,-1
 416.015625 324.21875 l 1,4,5
 397.4609375 303.7109375 397.4609375 303.7109375 367.919921875 282.71484375 c 128,-1,6
 338.37890625 261.71875 338.37890625 261.71875 304.6875 244.62890625 c 0,7,8
 279.78515625 231.93359375 279.78515625 231.93359375 252.197265625 222.412109375 c 128,-1,9
 224.609375 212.890625 224.609375 212.890625 195.3125 206.54296875 c 0,10,11
 137.6953125 194.82421875 137.6953125 194.82421875 92.28515625 170.41015625 c 0,12,13
 73.73046875 160.15625 73.73046875 160.15625 58.10546875 146.484375 c 1,14,15
 49.31640625 137.6953125 49.31640625 137.6953125 49.31640625 121.58203125 c 0,16,17
 49.31640625 119.140625 49.31640625 119.140625 49.31640625 116.455078125 c 128,-1,18
 49.31640625 113.76953125 49.31640625 113.76953125 50.29296875 109.86328125 c 2,19,-1
 89.84375 -142.578125 l 1,20,21
 94.23828125 -176.26953125 94.23828125 -176.26953125 94.23828125 -210.9375 c 0,22,23
 94.23828125 -277.83203125 94.23828125 -277.83203125 76.66015625 -339.35546875 c 0,24,25
 75.1953125 -343.75 75.1953125 -343.75 71.77734375 -345.703125 c 128,-1,26
 68.359375 -347.65625 68.359375 -347.65625 64.453125 -347.412109375 c 128,-1,27
 60.546875 -347.16796875 60.546875 -347.16796875 57.373046875 -344.482421875 c 128,-1,28
 54.19921875 -341.796875 54.19921875 -341.796875 53.7109375 -337.40234375 c 0,29,30
 46.875 -285.64453125 46.875 -285.64453125 37.353515625 -237.060546875 c 128,-1,31
 27.83203125 -188.4765625 27.83203125 -188.4765625 16.6015625 -142.578125 c 0,32,33
 4.8828125 -93.75 4.8828125 -93.75 -1.220703125 -43.701171875 c 128,-1,34
 -7.32421875 6.34765625 -7.32421875 6.34765625 -7.8125 59.5703125 c 1,35,36
 -7.8125 113.76953125 -7.8125 113.76953125 3.41796875 164.794921875 c 128,-1,37
 14.6484375 215.8203125 14.6484375 215.8203125 33.203125 257.8125 c 1,38,39
 61.03515625 300.29296875 61.03515625 300.29296875 104.98046875 318.359375 c 0,40,41
 125.48828125 326.66015625 125.48828125 326.66015625 150.390625 335.44921875 c 128,-1,42
 175.29296875 344.23828125 175.29296875 344.23828125 201.66015625 351.5625 c 0,43,44
 218.75 356.4453125 218.75 356.4453125 234.130859375 360.595703125 c 128,-1,45
 249.51171875 364.74609375 249.51171875 364.74609375 266.6015625 370.1171875 c 1,46,-1
 301.26953125 445.80078125 l 2,47,48
 314.94140625 475.09765625 314.94140625 475.09765625 328.857421875 490.234375 c 128,-1,49
 342.7734375 505.37109375 342.7734375 505.37109375 359.86328125 506.34765625 c 1,50,51
 375 510.7421875 375 510.7421875 403.80859375 510.7421875 c 0,52,53
 408.69140625 510.7421875 408.69140625 510.7421875 414.55078125 510.7421875 c 128,-1,54
 420.41015625 510.7421875 420.41015625 510.7421875 425.78125 510.25390625 c 0,55,56
 483.88671875 507.32421875 483.88671875 507.32421875 474.609375 457.51953125 c 1,0,1
EndSplineSet
Fore
SplineSet
475 458 m 1
 463 403 446 358 416 324 c 1
 416 324 l 1
 365 268 283 226 195 207 c 0
 141 196 93 176 58 146 c 1
 52 140 49 133 49 122 c 0
 49 120 49 119 49 116 c 128
 49 114 49 113 50 110 c 2
 90 -143 l 1
 93 -165 94 -188 94 -211 c 0
 94 -256 89 -298 77 -339 c 0
 73 -350 55 -350 54 -337 c 0
 45 -269 32 -205 17 -143 c 0
 2 -81 -7 -15 -8 60 c 0
 -8 135 10 205 33 258 c 1
 62 302 98 317 150 335 c 128
 187 348 228 358 267 370 c 1
 301 446 l 2
 310 466 320 480 329 490 c 128
 338 500 349 505 360 506 c 1
 370 509 385 511 404 511 c 0
 409 511 409 511 415 511 c 128
 459 511 482 496 475 458 c 1
EndSplineSet
EndChar
StartChar: waw-ar
Encoding: 1608 1608 110
Width: 491
GlyphClass: 2
AnchorPoint: "bottom" 224 -92 basechar 0
AnchorPoint: "bottom.mark" 288 -171 basechar 0
AnchorPoint: "top" 386 606 basechar 0
AnchorPoint: "top.mark" 396 633 basechar 0
LayerCount: 2
Back
SplineSet
227.5390625 7.8125 m 1,0,1
 205.56640625 3.90625 205.56640625 3.90625 183.10546875 1.953125 c 128,-1,2
 160.64453125 0 160.64453125 0 136.71875 0 c 0,3,4
 131.8359375 0 131.8359375 0 126.708984375 0 c 128,-1,5
 121.58203125 0 121.58203125 0 116.2109375 0.48828125 c 0,6,7
 89.35546875 1.46484375 89.35546875 1.46484375 61.767578125 3.41796875 c 128,-1,8
 34.1796875 5.37109375 34.1796875 5.37109375 7.8125 7.8125 c 0,9,10
 -7.8125 8.7890625 -7.8125 8.7890625 -7.8125 25.390625 c 0,11,12
 -7.8125 36.62109375 -7.8125 36.62109375 1.46484375 42.96875 c 1,13,14
 40.0390625 64.453125 40.0390625 64.453125 80.322265625 83.0078125 c 128,-1,15
 120.60546875 101.5625 120.60546875 101.5625 163.57421875 118.1640625 c 0,16,17
 206.0546875 134.27734375 206.0546875 134.27734375 247.802734375 150.87890625 c 128,-1,18
 289.55078125 167.48046875 289.55078125 167.48046875 331.54296875 184.5703125 c 0,19,20
 351.5625 192.3828125 351.5625 192.3828125 368.65234375 204.345703125 c 128,-1,21
 385.7421875 216.30859375 385.7421875 216.30859375 399.90234375 231.93359375 c 1,22,-1
 399.90234375 233.3984375 l 1,23,24
 399.4140625 233.88671875 399.4140625 233.88671875 399.4140625 235.3515625 c 0,25,26
 399.4140625 236.328125 399.4140625 236.328125 399.169921875 237.548828125 c 128,-1,27
 398.92578125 238.76953125 398.92578125 238.76953125 398.92578125 240.72265625 c 1,28,-1
 399.4140625 239.2578125 l 2,29,30
 398.92578125 241.69921875 398.92578125 241.69921875 398.193359375 243.65234375 c 128,-1,31
 397.4609375 245.60546875 397.4609375 245.60546875 396.484375 247.55859375 c 1,32,33
 389.16015625 246.09375 389.16015625 246.09375 382.080078125 245.60546875 c 128,-1,34
 375 245.1171875 375 245.1171875 367.1875 245.1171875 c 0,35,36
 363.28125 245.1171875 363.28125 245.1171875 359.130859375 245.361328125 c 128,-1,37
 354.98046875 245.60546875 354.98046875 245.60546875 352.05078125 246.09375 c 0,38,39
 319.82421875 248.53515625 319.82421875 248.53515625 304.6875 266.6015625 c 1,40,-1
 304.6875 266.11328125 l 1,41,42
 297.8515625 273.92578125 297.8515625 273.92578125 294.43359375 282.470703125 c 128,-1,43
 291.015625 291.015625 291.015625 291.015625 291.015625 301.26953125 c 0,44,45
 291.015625 318.84765625 291.015625 318.84765625 301.26953125 338.8671875 c 0,46,47
 309.5703125 354.4921875 309.5703125 354.4921875 316.89453125 370.1171875 c 128,-1,48
 324.21875 385.7421875 324.21875 385.7421875 331.54296875 402.34375 c 0,49,50
 346.6796875 437.98828125 346.6796875 437.98828125 371.09375 465.33203125 c 1,51,52
 382.8125 477.5390625 382.8125 477.5390625 397.4609375 477.5390625 c 0,53,54
 401.3671875 477.5390625 401.3671875 477.5390625 404.78515625 477.05078125 c 128,-1,55
 408.203125 476.5625 408.203125 476.5625 412.109375 474.609375 c 1,56,-1
 411.62109375 474.609375 l 1,57,58
 420.8984375 470.703125 420.8984375 470.703125 428.22265625 466.552734375 c 128,-1,59
 435.546875 462.40234375 435.546875 462.40234375 440.91796875 457.03125 c 0,60,61
 489.2578125 407.71484375 489.2578125 407.71484375 489.2578125 339.35546875 c 2,62,-1
 489.2578125 332.51953125 l 1,63,64
 488.28125 297.36328125 488.28125 297.36328125 478.271484375 262.20703125 c 128,-1,65
 468.26171875 227.05078125 468.26171875 227.05078125 451.171875 193.359375 c 1,66,67
 433.59375 161.1328125 433.59375 161.1328125 409.66796875 130.615234375 c 128,-1,68
 385.7421875 100.09765625 385.7421875 100.09765625 355.95703125 74.21875 c 0,69,70
 296.38671875 21.97265625 296.38671875 21.97265625 228.02734375 7.8125 c 1,71,-1
 227.5390625 7.8125 l 1,0,1
EndSplineSet
Fore
SplineSet
305 266 m 1
 297 275 291 285 291 301 c 0
 291 325 308 351 317 370 c 128
 333 405 347 438 371 465 c 0
 379 473 387 478 397 478 c 0
 415 478 432 466 441 457 c 0
 473 424 489 385 489 339 c 2
 489 333 l 1
 488 279 471 232 451 193 c 1
 406 111 327 28 228 8 c 1
 228 8 l 1
 199 3 170 0 137 0 c 0
 132 0 132 0 127 0 c 128
 87 0 46 5 8 8 c 0
 -2 9 -8 14 -8 25 c 0
 -8 32 -5 39 1 43 c 1
 102 99 221 140 332 185 c 0
 359 196 382 212 400 232 c 1
 400 233 l 2
 400 233 399 234 399 235 c 0
 399 237 399 239 399 241 c 0
 398 244 397 246 396 248 c 1
 387 246 378 245 367 245 c 0
 339 245 317 252 305 267 c 1
 305 266 l 1
EndSplineSet
EndChar
StartChar: alefMaksura-ar
Encoding: 1609 1609 112
Width: 615
GlyphClass: 2
AnchorPoint: "bottom" 259 -97 basechar 0
AnchorPoint: "top" 286 620 basechar 0
AnchorPoint: "bottom.mark" 308 -141 basechar 0
AnchorPoint: "top.mark" 321 681 basechar 0
LayerCount: 2
Back
SplineSet
75.1953125 23.92578125 m 0,0,1
 6.8359375 61.5234375 6.8359375 61.5234375 -2.44140625 128.90625 c 1,2,-1
 -2.44140625 128.41796875 l 1,3,4
 -5.37109375 147.4609375 -5.37109375 147.4609375 -5.37109375 168.9453125 c 0,5,6
 -5.37109375 190.91796875 -5.37109375 190.91796875 -1.708984375 214.599609375 c 128,-1,7
 1.953125 238.28125 1.953125 238.28125 8.30078125 260.7421875 c 0,8,9
 18.06640625 292.96875 18.06640625 292.96875 31.982421875 327.1484375 c 128,-1,10
 45.8984375 361.328125 45.8984375 361.328125 62.98828125 390.625 c 0,11,12
 80.078125 420.8984375 80.078125 420.8984375 95.703125 446.044921875 c 128,-1,13
 111.328125 471.19140625 111.328125 471.19140625 124.51171875 489.2578125 c 1,14,15
 129.8828125 494.62890625 129.8828125 494.62890625 136.71875 494.62890625 c 0,16,17
 137.6953125 494.62890625 137.6953125 494.62890625 139.6484375 494.384765625 c 128,-1,18
 141.6015625 494.140625 141.6015625 494.140625 144.53125 492.67578125 c 2,19,-1
 143.06640625 493.65234375 l 1,20,21
 152.83203125 490.234375 152.83203125 490.234375 152.83203125 479.4921875 c 0,22,23
 152.83203125 477.05078125 152.83203125 477.05078125 152.34375 474.853515625 c 128,-1,24
 151.85546875 472.65625 151.85546875 472.65625 150.87890625 470.21484375 c 0,25,26
 144.04296875 455.56640625 144.04296875 455.56640625 135.009765625 437.98828125 c 128,-1,27
 125.9765625 420.41015625 125.9765625 420.41015625 114.74609375 399.90234375 c 0,28,29
 104.00390625 380.859375 104.00390625 380.859375 95.703125 361.083984375 c 128,-1,30
 87.40234375 341.30859375 87.40234375 341.30859375 80.56640625 320.80078125 c 1,31,-1
 80.56640625 321.2890625 l 1,32,33
 76.171875 306.15234375 76.171875 306.15234375 73.73046875 291.259765625 c 128,-1,34
 71.2890625 276.3671875 71.2890625 276.3671875 71.2890625 261.23046875 c 0,35,36
 71.2890625 256.8359375 71.2890625 256.8359375 71.533203125 252.685546875 c 128,-1,37
 71.77734375 248.53515625 71.77734375 248.53515625 72.265625 244.140625 c 0,38,39
 75.1953125 209.47265625 75.1953125 209.47265625 108.3984375 183.59375 c 0,40,41
 123.046875 171.875 123.046875 171.875 144.04296875 165.283203125 c 128,-1,42
 165.0390625 158.69140625 165.0390625 158.69140625 191.40625 156.73828125 c 0,43,44
 198.73046875 156.25 198.73046875 156.25 207.03125 156.005859375 c 128,-1,45
 215.33203125 155.76171875 215.33203125 155.76171875 222.16796875 155.76171875 c 0,46,47
 240.72265625 155.76171875 240.72265625 155.76171875 259.521484375 157.470703125 c 128,-1,48
 278.3203125 159.1796875 278.3203125 159.1796875 295.8984375 162.59765625 c 0,49,50
 389.16015625 179.6875 389.16015625 179.6875 469.23828125 224.12109375 c 1,51,52
 453.125 227.5390625 453.125 227.5390625 438.232421875 231.689453125 c 128,-1,53
 423.33984375 235.83984375 423.33984375 235.83984375 409.1796875 242.1875 c 0,54,55
 363.76953125 262.20703125 363.76953125 262.20703125 351.07421875 306.15234375 c 0,56,57
 348.14453125 316.89453125 348.14453125 316.89453125 348.14453125 329.1015625 c 0,58,59
 348.14453125 369.140625 348.14453125 369.140625 383.30078125 432.12890625 c 0,60,61
 427.734375 510.7421875 427.734375 510.7421875 458.984375 540.52734375 c 1,62,-1
 458.49609375 540.52734375 l 1,63,64
 465.33203125 547.36328125 465.33203125 547.36328125 473.6328125 554.443359375 c 128,-1,65
 481.93359375 561.5234375 481.93359375 561.5234375 493.65234375 570.3125 c 1,66,-1
 493.1640625 570.3125 l 1,67,68
 515.13671875 587.890625 515.13671875 587.890625 546.38671875 590.33203125 c 0,69,70
 551.26953125 590.33203125 551.26953125 590.33203125 558.59375 588.37890625 c 1,71,-1
 558.10546875 588.8671875 l 1,72,73
 565.91796875 587.890625 565.91796875 587.890625 569.3359375 583.251953125 c 128,-1,74
 572.75390625 578.61328125 572.75390625 578.61328125 572.75390625 572.265625 c 0,75,76
 572.75390625 570.3125 572.75390625 570.3125 572.509765625 568.603515625 c 128,-1,77
 572.265625 566.89453125 572.265625 566.89453125 570.3125 563.4765625 c 1,78,-1
 570.80078125 563.4765625 l 1,79,80
 565.91796875 553.22265625 565.91796875 553.22265625 561.5234375 543.212890625 c 128,-1,81
 557.12890625 533.203125 557.12890625 533.203125 553.22265625 522.4609375 c 0,82,83
 546.38671875 505.37109375 546.38671875 505.37109375 539.55078125 489.501953125 c 128,-1,84
 532.71484375 473.6328125 532.71484375 473.6328125 523.92578125 458.984375 c 0,85,86
 521.97265625 456.0546875 521.97265625 456.0546875 518.06640625 454.58984375 c 128,-1,87
 514.16015625 453.125 514.16015625 453.125 510.7421875 454.1015625 c 0,88,89
 507.8125 455.078125 507.8125 455.078125 505.126953125 455.078125 c 128,-1,90
 502.44140625 455.078125 502.44140625 455.078125 499.0234375 455.078125 c 0,91,92
 487.79296875 455.078125 487.79296875 455.078125 474.609375 450.68359375 c 1,93,-1
 475.09765625 451.171875 l 1,94,95
 464.35546875 447.265625 464.35546875 447.265625 456.787109375 442.138671875 c 128,-1,96
 449.21875 437.01171875 449.21875 437.01171875 444.82421875 430.17578125 c 1,97,-1
 444.82421875 430.6640625 l 1,98,99
 441.40625 425.78125 441.40625 425.78125 441.40625 421.38671875 c 0,100,101
 441.40625 418.9453125 441.40625 418.9453125 442.87109375 415.52734375 c 128,-1,102
 444.3359375 412.109375 444.3359375 412.109375 446.77734375 408.203125 c 0,103,104
 452.63671875 400.390625 452.63671875 400.390625 468.505859375 392.578125 c 128,-1,105
 484.375 384.765625 484.375 384.765625 511.23046875 377.44140625 c 0,106,107
 529.296875 372.0703125 529.296875 372.0703125 551.26953125 369.140625 c 1,108,-1
 550.78125 369.140625 l 1,109,110
 563.4765625 367.1875 563.4765625 367.1875 573.73046875 362.060546875 c 128,-1,111
 583.984375 356.93359375 583.984375 356.93359375 592.28515625 348.6328125 c 0,112,113
 610.83984375 328.61328125 610.83984375 328.61328125 610.83984375 301.7578125 c 0,114,115
 610.83984375 272.4609375 610.83984375 272.4609375 586.42578125 233.88671875 c 1,116,117
 570.80078125 210.44921875 570.80078125 210.44921875 547.36328125 185.05859375 c 128,-1,118
 523.92578125 159.66796875 523.92578125 159.66796875 493.1640625 134.27734375 c 0,119,120
 462.40234375 109.375 462.40234375 109.375 429.19921875 87.890625 c 128,-1,121
 395.99609375 66.40625 395.99609375 66.40625 359.375 48.828125 c 1,122,123
 323.2421875 30.76171875 323.2421875 30.76171875 285.64453125 19.287109375 c 128,-1,124
 248.046875 7.8125 248.046875 7.8125 212.40234375 2.44140625 c 0,125,126
 193.84765625 -0.48828125 193.84765625 -0.48828125 174.8046875 -0.48828125 c 0,127,128
 119.140625 -0.48828125 119.140625 -0.48828125 75.1953125 23.92578125 c 0,0,1
EndSplineSet
Fore
SplineSet
573 572 m 0
 573 568 572 567 570 563 c 1
 571 563 l 1
 555 529 543 490 524 459 c 0
 520 452 513 455 505 455 c 128
 502 455 502 455 499 455 c 0
 492 455 484 454 475 451 c 1
 475 451 l 1
 462 446 452 440 445 430 c 1
 445 431 l 1
 443 428 441 424 441 421 c 0
 441 416 445 412 447 408 c 0
 459 392 485 384 511 377 c 0
 523 373 537 371 551 369 c 0
 585 364 611 338 611 302 c 0
 611 282 602 260 586 234 c 1
 548 177 489 127 429 88 c 128
 407 74 383 61 359 49 c 0
 316 27 265 10 212 2 c 0
 200 0 188 0 175 -0 c 0
 83 0 8 55 -2 128 c 0
 -4 141 -5 155 -5 169 c 0
 -5 232 13 280 32 327 c 128
 49 370 74 410 96 446 c 128
 106 463 116 477 125 489 c 1
 129 493 132 495 137 495 c 0
 140 495 142 494 145 493 c 1
 143 494 l 1
 150 492 153 486 153 479 c 0
 153 475 152 473 151 470 c 0
 128 422 99 375 81 321 c 0
 76 303 71 283 71 261 c 0
 71 183 138 156 222 156 c 0
 248 156 274 159 296 163 c 0
 358 174 416 194 469 224 c 1
 413 236 366 256 351 306 c 0
 349 313 348 321 348 329 c 0
 348 393 431 515 459 541 c 1
 458 541 l 1
 469 552 480 560 494 570 c 1
 493 570 l 1
 508 582 525 588 546 590 c 0
 549 590 554 589 559 588 c 1
 558 589 l 1
 567 588 573 582 573 572 c 0
EndSplineSet
EndChar
StartChar: dammatan-ar
Encoding: 1612 1612 414
Width: 0
GlyphClass: 4
AnchorPoint: "top.mark" 0 0 mark 0
AnchorPoint: "top.mkmk" 0 0 mark 0
LayerCount: 2
Back
SplineSet
129.716796875 279.115234375 m 1,0,1
 148.299804688 249.692382812 148.299804688 249.692382812 133.09765625 215.288085938 c 0,2,3
 117.896484375 180.883789062 117.896484375 180.883789062 106.94140625 176.498046875 c 0,4,5
 91.357421875 170.258789062 91.357421875 170.258789062 97.390625 194.40625 c 0,6,7
 103.571289062 219.141601562 103.571289062 219.141601562 98.8095703125 232.489257812 c 0,8,9
 90.537109375 255.681640625 90.537109375 255.681640625 40.9306640625 245.495117188 c 0,10,11
 -8.67578125 235.30859375 -8.67578125 235.30859375 -69.2197265625 181.399414062 c 0,12,13
 -104.442382812 150.037109375 -104.442382812 150.037109375 -114.083007812 127.899414062 c 0,14,15
 -123.723632812 105.76171875 -123.723632812 105.76171875 -122.055664062 98.185546875 c 0,16,17
 -120.388671875 90.609375 -120.388671875 90.609375 -118.896484375 87.2490234375 c 0,18,19
 -108.686523438 64.2587890625 -108.686523438 64.2587890625 -60.7705078125 82.43359375 c 0,20,21
 -46.94140625 87.6796875 -46.94140625 87.6796875 -38.4609375 92.390625 c 2,22,-1
 -25.2353515625 99.73828125 l 1,23,-1
 -55.1982421875 35.986328125 l 1,24,25
 -105.682617188 2.330078125 -105.682617188 2.330078125 -141.013671875 31.62890625 c 0,26,27
 -151.978515625 40.72265625 -151.978515625 40.72265625 -159.291992188 59.5244140625 c 0,28,29
 -166.60546875 78.326171875 -166.60546875 78.326171875 -162.787109375 102.256835938 c 0,30,31
 -158.967773438 126.188476562 -158.967773438 126.188476562 -146.865234375 146.548828125 c 1,32,33
 -95.6162109375 258.559570312 -95.6162109375 258.559570312 39.4599609375 299.936523438 c 0,34,35
 106.146484375 320.36328125 106.146484375 320.36328125 129.716796875 279.115234375 c 1,0,1
EndSplineSet
Refer: 19 1615 N 1 0 0 1 0 0 2
Fore
SplineSet
130 279 m 1
 142 259 143 238 133 215 c 0
 123 192 114 179 107 176 c 0
 97 172 93 178 97 194 c 0
 109 241 93 256 41 245 c 0
 8 238 -29 217 -69 181 c 0
 -92 160 -108 143 -114 128 c 0
 -123 107 -125 100 -119 87 c 0
 -112 72 -93 70 -61 82 c 0
 -52 85 -44 89 -38 92 c 2
 -25 100 l 1
 -55 36 l 1
 -104 4 -143 20 -159 60 c 0
 -171 90 -160 125 -147 147 c 1
 -113 222 -51 272 39 300 c 0
 83 314 114 306 130 279 c 1
EndSplineSet
Refer: 19 1615 N 1 0 0 1 0 0 2
EndChar
StartChar: uni064C
Encoding: 1612 1612 414
Width: 0
GlyphClass: 4
AnchorPoint: "Tashkil Above" 0 0 mark 0
AnchorPoint: "Mark Mark Above" 0 0 mark 0
LayerCount: 2
Back
SplineSet
265.66015625 571.627929688 m 1,0,1
 303.717773438 511.369140625 303.717773438 511.369140625 272.584960938 440.909179688 c 0,2,3
 241.451171875 370.44921875 241.451171875 370.44921875 219.016601562 361.467773438 c 0,4,5
 187.099609375 348.689453125 187.099609375 348.689453125 199.456054688 398.143554688 c 0,6,7
 212.11328125 448.802734375 212.11328125 448.802734375 202.362304688 476.137695312 c 0,8,9
 185.420898438 523.635742188 185.420898438 523.635742188 83.826171875 502.774414062 c 0,10,11
 -17.767578125 481.912109375 -17.767578125 481.912109375 -141.762695312 371.505859375 c 0,12,13
 -213.8984375 307.275390625 -213.8984375 307.275390625 -233.642578125 261.9375 c 0,14,15
 -253.385742188 216.599609375 -253.385742188 216.599609375 -249.970703125 201.083984375 c 0,16,17
 -246.555664062 185.567382812 -246.555664062 185.567382812 -243.5 178.686523438 c 0,18,19
 -222.58984375 131.602539062 -222.58984375 131.602539062 -124.458984375 168.82421875 c 0,20,21
 -96.1357421875 179.567382812 -96.1357421875 179.567382812 -78.7685546875 189.215820312 c 2,22,-1
 -51.681640625 204.264648438 l 1,23,-1
 -113.046875 73.69921875 l 1,24,25
 -216.4375 4.7724609375 -216.4375 4.7724609375 -288.795898438 64.7763671875 c 0,26,27
 -311.252929688 83.3994140625 -311.252929688 83.3994140625 -326.23046875 121.905273438 c 0,28,29
 -341.208984375 160.411132812 -341.208984375 160.411132812 -333.387695312 209.422851562 c 0,30,31
 -325.56640625 258.434570312 -325.56640625 258.434570312 -300.779296875 300.1328125 c 1,32,33
 -195.821289062 529.529296875 -195.821289062 529.529296875 80.814453125 614.26953125 c 0,34,35
 217.387695312 656.104492188 217.387695312 656.104492188 265.66015625 571.627929688 c 1,0,1
EndSplineSet
Refer: 19 1615 N 1 0 0 1 0 0 2
Fore
SplineSet
265.66015625 571.627929688 m 1
 291.031901042 531.455403646 293.340169271 487.882486979 272.584960938 440.909179688 c 0
 251.829101563 393.935872396 233.972981771 367.455403646 219.016601562 361.467773438 c 0
 197.738606771 352.948893229 191.218424479 365.174153646 199.456054688 398.143554688 c 0
 207.894205729 431.916341146 208.862955729 457.914388021 202.362304688 476.137695312 c 0
 191.068033855 507.803059896 151.555989584 516.681966146 83.826171875 502.774414062 c 0
 16.0970052083 488.866210937 -59.099283854 445.110026042 -141.762695312 371.505859375 c 0
 -189.853190104 328.685546875 -220.479817708 292.162760417 -233.642578125 261.9375 c 0
 -246.8046875 231.712239583 -252.247395834 211.427734375 -249.970703125 201.083984375 c 0
 -247.694010416 190.739583333 -245.537109375 183.273763021 -243.5 178.686523438 c 0
 -229.559895833 147.297200521 -189.879557292 144.009765625 -124.458984375 168.82421875 c 0
 -105.576822917 175.986328125 -90.3466796875 182.783528645 -78.7685546875 189.215820312 c 2
 -51.681640625 204.264648438 l 1
 -113.046875 73.69921875 l 1
 -181.973958333 27.748046875 -240.556966146 24.7737630208 -288.795898438 64.7763671875 c 0
 -303.767252605 77.1917317708 -316.245442709 96.234700521 -326.23046875 121.905273438 c 0
 -336.216145833 147.575846354 -338.601888021 176.748372395 -333.387695312 209.422851562 c 0
 -328.173502604 242.097330729 -317.304036458 272.333984375 -300.779296875 300.1328125 c 1
 -230.807291666 453.063802083 -103.609375 557.776041667 80.814453125 614.26953125 c 0
 171.86328125 642.159505209 233.478515625 627.945638021 265.66015625 571.627929688 c 1
EndSplineSet
Refer: 19 1615 N 1 0 0 1 0 0 2
EndChar
StartChar: fatha-ar
Encoding: 1614 1614 18
Width: 0
GlyphClass: 4
AnchorPoint: "Mark Mark Above" -20 122 basemark 0
AnchorPoint: "Mark Mark Above" 0 0 mark 0
AnchorPoint: "Tashkil Above" 0 0 mark 0
LayerCount: 2
Back
SplineSet
-103.515625 -3.90625 m 1,0,1
 -88.37890625 2.44140625 -88.37890625 2.44140625 -63.96484375 11.71875 c 128,-1,2
 -39.55078125 20.99609375 -39.55078125 20.99609375 -11.474609375 31.25 c 128,-1,3
 16.6015625 41.50390625 16.6015625 41.50390625 46.142578125 52.24609375 c 128,-1,4
 75.68359375 62.98828125 75.68359375 62.98828125 101.07421875 71.77734375 c 0,5,6
 108.3984375 74.21875 108.3984375 74.21875 112.79296875 68.84765625 c 128,-1,7
 117.1875 63.4765625 117.1875 63.4765625 113.28125 56.640625 c 2,8,-1
 83.0078125 8.30078125 l 1,9,-1
 -25.87890625 -30.76171875 l 2,10,11
 -53.22265625 -40.52734375 -53.22265625 -40.52734375 -77.392578125 -50.78125 c 128,-1,12
 -101.5625 -61.03515625 -101.5625 -61.03515625 -123.53515625 -71.77734375 c 0,13,14
 -126.953125 -73.73046875 -126.953125 -73.73046875 -130.37109375 -72.75390625 c 128,-1,15
 -133.7890625 -71.77734375 -133.7890625 -71.77734375 -135.986328125 -69.3359375 c 128,-1,16
 -138.18359375 -66.89453125 -138.18359375 -66.89453125 -138.671875 -63.4765625 c 128,-1,17
 -139.16015625 -60.05859375 -139.16015625 -60.05859375 -137.20703125 -56.640625 c 2,18,-1
 -103.515625 -3.90625 l 1,0,1
EndSplineSet
Fore
SplineSet
-104 -4 m 1
 -41 22 35 49 101 72 c 0
 110 75 119 67 113 57 c 2
 83 8 l 1
 -26 -31 l 2
 -61 -43 -93 -57 -124 -72 c 0
 -133 -77 -142 -66 -137 -57 c 1
 -104 -4 l 1
EndSplineSet
EndChar
StartChar: uni064E
Encoding: 1614 1614 18
Width: 0
GlyphClass: 4
AnchorPoint: "Mark Mark Above" -40 250 basemark 0
AnchorPoint: "Mark Mark Above" 0 0 mark 0
AnchorPoint: "Tashkil Above" 0 0 mark 0
LayerCount: 2
Back
SplineSet
-212 -8 m 1,0,1
 -181 5 -181 5 -131 24 c 128,-1,2
 -81 43 -81 43 -23.5 64 c 128,-1,3
 34 85 34 85 94.5 107 c 128,-1,4
 155 129 155 129 207 147 c 0,5,6
 222 152 222 152 231 141 c 128,-1,7
 240 130 240 130 232 116 c 2,8,-1
 170 17 l 1,9,-1
 -53 -63 l 2,10,11
 -109 -83 -109 -83 -158.5 -104 c 128,-1,12
 -208 -125 -208 -125 -253 -147 c 0,13,14
 -260 -151 -260 -151 -267 -149 c 128,-1,15
 -274 -147 -274 -147 -278.5 -142 c 128,-1,16
 -283 -137 -283 -137 -284 -130 c 128,-1,17
 -285 -123 -285 -123 -281 -116 c 2,18,-1
 -212 -8 l 1,0,1
EndSplineSet
Fore
SplineSet
-212 -8 m 1
 -191.333333333 0.666666666667 -164.333333333 11.3333333333 -131 24 c 128
 -97.6666666667 36.6666666667 -61.8333333333 50 -23.5 64 c 128
 14.8333333333 78 54.1666666667 92.3333333333 94.5 107 c 128
 134.833333333 121.666666667 172.333333333 135 207 147 c 0
 217 150.333333333 225 148.333333333 231 141 c 128
 237 133.666666667 237.333333333 125.333333333 232 116 c 2
 170 17 l 1
 -53 -63 l 2
 -90.3333333333 -76.3333333333 -125.5 -90 -158.5 -104 c 128
 -191.5 -118 -223 -132.333333333 -253 -147 c 0
 -257.666666667 -149.666666667 -262.333333333 -150.333333333 -267 -149 c 128
 -271.666666667 -147.666666667 -275.5 -145.333333333 -278.5 -142 c 128
 -281.5 -138.666666667 -283.333333333 -134.666666667 -284 -130 c 128
 -284.666666667 -125.333333333 -283.666666667 -120.666666667 -281 -116 c 2
 -212 -8 l 1
EndSplineSet
EndChar
StartChar: damma-ar
Encoding: 1615 1615 19
Width: 0
GlyphClass: 4
AnchorPoint: "top.mkmk" 0 0 mark 0
AnchorPoint: "top.mark" 0 0 mark 0
LayerCount: 2
Back
SplineSet
-98.14453125 -26.3671875 m 1,0,1
 -84.9609375 -18.06640625 -84.9609375 -18.06640625 -68.603515625 -7.8125 c 128,-1,2
 -52.24609375 2.44140625 -52.24609375 2.44140625 -35.888671875 13.18359375 c 128,-1,3
 -19.53125 23.92578125 -19.53125 23.92578125 -4.638671875 34.423828125 c 128,-1,4
 10.25390625 44.921875 10.25390625 44.921875 20.5078125 53.7109375 c 1,5,6
 9.27734375 60.546875 9.27734375 60.546875 0.732421875 68.359375 c 128,-1,7
 -7.8125 76.171875 -7.8125 76.171875 -13.18359375 87.40234375 c 1,8,9
 -15.625 91.30859375 -15.625 91.30859375 -16.6015625 96.435546875 c 128,-1,10
 -17.578125 101.5625 -17.578125 101.5625 -17.578125 106.93359375 c 0,11,12
 -17.578125 112.79296875 -17.578125 112.79296875 -16.11328125 120.1171875 c 0,13,14
 -11.71875 137.20703125 -11.71875 137.20703125 5.37109375 158.203125 c 1,15,16
 14.16015625 167.96875 14.16015625 167.96875 23.193359375 175.048828125 c 128,-1,17
 32.2265625 182.12890625 32.2265625 182.12890625 41.9921875 186.03515625 c 1,18,-1
 41.50390625 186.03515625 l 1,19,20
 46.875 188.4765625 46.875 188.4765625 51.513671875 189.453125 c 128,-1,21
 56.15234375 190.4296875 56.15234375 190.4296875 60.05859375 190.4296875 c 0,22,23
 69.82421875 190.4296875 69.82421875 190.4296875 77.1484375 186.03515625 c 0,24,25
 94.7265625 174.8046875 94.7265625 174.8046875 96.6796875 149.90234375 c 0,26,27
 97.16796875 147.94921875 97.16796875 147.94921875 97.16796875 145.263671875 c 128,-1,28
 97.16796875 142.578125 97.16796875 142.578125 97.16796875 140.13671875 c 0,29,30
 97.16796875 119.62890625 97.16796875 119.62890625 88.37890625 91.30859375 c 1,31,32
 92.28515625 87.40234375 92.28515625 87.40234375 94.970703125 81.787109375 c 128,-1,33
 97.65625 76.171875 97.65625 76.171875 98.14453125 69.3359375 c 0,34,35
 98.14453125 65.4296875 98.14453125 65.4296875 97.412109375 61.03515625 c 128,-1,36
 96.6796875 56.640625 96.6796875 56.640625 94.23828125 51.26953125 c 1,37,-1
 94.23828125 51.7578125 l 1,38,39
 92.7734375 47.36328125 92.7734375 47.36328125 89.599609375 41.748046875 c 128,-1,40
 86.42578125 36.1328125 86.42578125 36.1328125 82.03125 28.3203125 c 0,41,42
 79.58984375 23.92578125 79.58984375 23.92578125 74.462890625 23.193359375 c 128,-1,43
 69.3359375 22.4609375 69.3359375 22.4609375 65.4296875 26.3671875 c 2,44,-1
 58.59375 32.2265625 l 1,45,46
 41.50390625 10.7421875 41.50390625 10.7421875 23.4375 -4.638671875 c 128,-1,47
 5.37109375 -20.01953125 5.37109375 -20.01953125 -15.869140625 -31.005859375 c 128,-1,48
 -37.109375 -41.9921875 -37.109375 -41.9921875 -61.767578125 -50.29296875 c 128,-1,49
 -86.42578125 -58.59375 -86.42578125 -58.59375 -116.69921875 -65.91796875 c 1,50,-1
 -124.0234375 -66.89453125 l 1,51,52
 -127.9296875 -66.89453125 -127.9296875 -66.89453125 -131.103515625 -63.720703125 c 128,-1,53
 -134.27734375 -60.546875 -134.27734375 -60.546875 -134.27734375 -56.15234375 c 0,54,55
 -134.27734375 -48.828125 -134.27734375 -48.828125 -120.1171875 -40.0390625 c 2,56,-1
 -97.65625 -26.3671875 l 1,57,-1
 -98.14453125 -26.3671875 l 1,0,1
33.203125 124.0234375 m 1,58,59
 36.62109375 121.09375 36.62109375 121.09375 40.771484375 118.408203125 c 128,-1,60
 44.921875 115.72265625 44.921875 115.72265625 49.31640625 112.79296875 c 1,61,-1
 49.31640625 116.69921875 l 2,62,63
 49.31640625 125.9765625 49.31640625 125.9765625 46.38671875 128.90625 c 24,64,65
 44.287109375 130.47265625 44.287109375 130.47265625 41.9921875 129.8828125 c 0,66,67
 36.62109375 127.9296875 36.62109375 127.9296875 33.203125 124.0234375 c 1,58,59
EndSplineSet
Fore
SplineSet
-124 -67 m 1
 -129 -67 -134 -62 -134 -56 c 0
 -134 -51 -129 -46 -120 -40 c 2
 -98 -26 l 1
 -98 -26 l 1
 -59 -1 -13 25 21 54 c 1
 3 65 -18 79 -18 107 c 0
 -18 143 21 190 60 190 c 0
 84 190 97 169 97 145 c 128
 97 142 97 142 97 140 c 0
 97 126 94 110 88 91 c 1
 93 86 97 78 98 69 c 0
 98 51 89 41 82 28 c 0
 75 16 64 28 59 32 c 1
 16 -22 -39 -47 -117 -66 c 1
 -124 -67 l 1
33 124 m 1
 38 120 43 117 49 113 c 1
 49 117 l 2
 49 124 48 132 42 130 c 0
 38 129 35 127 33 124 c 1
EndSplineSet
EndChar
StartChar: uni064F
Encoding: 1615 1615 19
Width: 0
GlyphClass: 4
AnchorPoint: "Mark Mark Above" 0 0 mark 0
AnchorPoint: "Tashkil Above" 0 0 mark 0
LayerCount: 2
Back
SplineSet
-201 -54 m 1,0,1
 -174 -37 -174 -37 -140.5 -16 c 128,-1,2
 -107 5 -107 5 -73.5 27 c 128,-1,3
 -40 49 -40 49 -9.5 70.5 c 128,-1,4
 21 92 21 92 42 110 c 1,5,6
 19 124 19 124 1.5 140 c 128,-1,7
 -16 156 -16 156 -27 179 c 1,8,9
 -32 187 -32 187 -34 197.5 c 128,-1,10
 -36 208 -36 208 -36 219 c 0,11,12
 -36 231 -36 231 -33 246 c 0,13,14
 -24 281 -24 281 11 324 c 1,15,16
 29 344 29 344 47.5 358.5 c 128,-1,17
 66 373 66 373 86 381 c 1,18,-1
 85 381 l 1,19,20
 96 386 96 386 105.5 388 c 128,-1,21
 115 390 115 390 123 390 c 0,22,23
 143 390 143 390 158 381 c 0,24,25
 194 358 194 358 198 307 c 0,26,27
 199 303 199 303 199 297.5 c 128,-1,28
 199 292 199 292 199 287 c 0,29,30
 199 245 199 245 181 187 c 1,31,32
 189 179 189 179 194.5 167.5 c 128,-1,33
 200 156 200 156 201 142 c 0,34,35
 201 134 201 134 199.5 125 c 128,-1,36
 198 116 198 116 193 105 c 1,37,-1
 193 106 l 1,38,39
 190 97 190 97 183.5 85.5 c 128,-1,40
 177 74 177 74 168 58 c 0,41,42
 163 49 163 49 152.5 47.5 c 128,-1,43
 142 46 142 46 134 54 c 2,44,-1
 120 66 l 1,45,46
 85 22 85 22 48 -9.5 c 128,-1,47
 11 -41 11 -41 -32.5 -63.5 c 128,-1,48
 -76 -86 -76 -86 -126.5 -103 c 128,-1,49
 -177 -120 -177 -120 -239 -135 c 1,50,-1
 -254 -137 l 1,51,52
 -262 -137 -262 -137 -268.5 -130.5 c 128,-1,53
 -275 -124 -275 -124 -275 -115 c 0,54,55
 -275 -100 -275 -100 -246 -82 c 2,56,-1
 -200 -54 l 1,57,-1
 -201 -54 l 1,0,1
68 254 m 1,58,59
 75 248 75 248 83.5 242.5 c 128,-1,60
 92 237 92 237 101 231 c 1,61,-1
 101 239 l 2,62,63
 101 258 101 258 95 264 c 24,64,65
 90.699890471 267.208543264 90.699890471 267.208543264 86 266 c 0,66,67
 75 262 75 262 68 254 c 1,58,59
EndSplineSet
Fore
SplineSet
-201 -54 m 1
 -183 -42.6666666667 -162.833333333 -30 -140.5 -16 c 128
 -118.166666667 -2 -95.8333333333 12.3333333333 -73.5 27 c 128
 -51.1666666667 41.6666666667 -29.8333333333 56.1666666667 -9.5 70.5 c 128
 10.8333333333 84.8333333333 28 98 42 110 c 1
 26.6666666667 119.333333333 13.1666666667 129.333333333 1.5 140 c 128
 -10.1666666667 150.666666667 -19.6666666667 163.666666667 -27 179 c 1
 -30.3333333333 184.333333333 -32.6666666667 190.5 -34 197.5 c 128
 -35.3333333333 204.5 -36 211.666666667 -36 219 c 0
 -36 227 -35 236 -33 246 c 0
 -27 269.333333333 -12.3333333333 295.333333333 11 324 c 1
 23 337.333333333 35.1666666667 348.833333333 47.5 358.5 c 128
 59.8333333333 368.166666667 72.6666666667 375.666666667 86 381 c 1
 85 381 l 1
 92.3333333333 384.333333333 99.1666666667 386.666666667 105.5 388 c 128
 111.833333333 389.333333333 117.666666667 390 123 390 c 0
 136.333333333 390 148 387 158 381 c 0
 182 365.666666667 195.333333333 341 198 307 c 0
 198.666666667 304.333333333 199 301.166666667 199 297.5 c 128
 199 292 199 292 199 287 c 0
 199 259 193 225.666666667 181 187 c 1
 186.333333333 181.666666667 190.833333333 175.166666667 194.5 167.5 c 128
 198.166666667 159.833333333 200.333333333 151.333333333 201 142 c 0
 201 136.666666667 200.5 131 199.5 125 c 128
 198.5 119 196.333333333 112.333333333 193 105 c 1
 193 106 l 1
 191 100 187.833333333 93.1666666667 183.5 85.5 c 128
 179.166666667 77.8333333333 174 68.6666666667 168 58 c 0
 164.666666667 52 159.5 48.5 152.5 47.5 c 128
 145.5 46.5 139.333333333 48.6666666667 134 54 c 2
 120 66 l 1
 96.6666666667 36.6666666667 72.6666666667 11.5 48 -9.5 c 128
 23.3333333333 -30.5 -3.5 -48.5 -32.5 -63.5 c 128
 -61.5 -78.5 -92.8333333333 -91.6666666667 -126.5 -103 c 128
 -160.166666667 -114.333333333 -197.666666667 -125 -239 -135 c 1
 -254 -137 l 1
 -259.333333333 -137 -264.166666667 -134.833333333 -268.5 -130.5 c 128
 -272.833333333 -126.166666667 -275 -121 -275 -115 c 0
 -275 -105 -265.333333333 -94 -246 -82 c 2
 -200 -54 l 1
 -201 -54 l 1
68 254 m 1
 72.6666666667 250 77.8333333333 246.166666667 83.5 242.5 c 128
 89.1666666667 238.833333333 95 235 101 231 c 1
 101 239 l 2
 101 251.666666667 99 260 95 264 c 24
 92.133260314 266.139028843 89.133260314 266.805695509 86 266 c 0
 78.6666666667 263.333333333 72.6666666667 259.333333333 68 254 c 1
EndSplineSet
EndChar
StartChar: shadda-ar
Encoding: 1617 1617 21
Width: 0
GlyphClass: 4
AnchorPoint: "Mark Mark Below" -10 -400 basemark 0
AnchorPoint: "Mark Mark Above" -20 350 basemark 0
AnchorPoint: "Mark Mark Above" 0 0 mark 0
AnchorPoint: "Tashkil Above" 0 0 mark 0
LayerCount: 2
Back
SplineSet
-142 -144 m 1,0,1
 -171 -142 -171 -142 -190.5 -133 c 128,-1,2
 -210 -124 -210 -124 -223 -109.5 c 128,-1,3
 -236 -95 -236 -95 -242 -76 c 128,-1,4
 -248 -57 -248 -57 -250 -36 c 0,5,6
 -251 -32 -251 -32 -251 -26.5 c 128,-1,7
 -251 -21 -251 -21 -251 -16 c 0,8,9
 -251 -2 -251 -2 -249.5 13 c 128,-1,10
 -248 28 -248 28 -243 45 c 256,11,12
 -238 62 -238 62 -234.5 77 c 128,-1,13
 -231 92 -231 92 -227 104 c 1,14,-1
 -227 105 l 2,15,16
 -227 107 -227 107 -226 109 c 1,17,18
 -226 112 -226 112 -224.5 114.5 c 128,-1,19
 -223 117 -223 117 -221 122 c 1,20,-1
 -224 118 l 1,21,22
 -222 124 -222 124 -218 133 c 128,-1,23
 -214 142 -214 142 -208 151 c 128,-1,24
 -202 160 -202 160 -193 165.5 c 128,-1,25
 -184 171 -184 171 -171 170 c 0,26,27
 -163 169 -163 169 -158 162.5 c 128,-1,28
 -153 156 -153 156 -153 148 c 0,29,30
 -153 146 -153 146 -152.5 145 c 128,-1,31
 -152 144 -152 144 -154 139 c 0,32,33
 -154 137 -154 137 -154.5 134.5 c 128,-1,34
 -155 132 -155 132 -155 130 c 0,35,36
 -157 122 -157 122 -158 114 c 128,-1,37
 -159 106 -159 106 -160 97 c 0,38,39
 -161 89 -161 89 -161.5 82.5 c 128,-1,40
 -162 76 -162 76 -162 70 c 2,41,-1
 -162 58 l 1,42,43
 -160 46 -160 46 -153.5 37 c 128,-1,44
 -147 28 -147 28 -132 23 c 1,45,46
 -133 24 -133 24 -128 24 c 0,47,48
 -114 24 -114 24 -90 32 c 0,49,50
 -78 36 -78 36 -68.5 49 c 128,-1,51
 -59 62 -59 62 -52 79.5 c 128,-1,52
 -45 97 -45 97 -41 115 c 128,-1,53
 -37 133 -37 133 -36 147 c 1,54,-1
 -1 180 l 2,55,56
 10 191 10 191 22.5 185 c 128,-1,57
 35 179 35 179 35 165 c 0,58,59
 35 163 35 163 34.5 162 c 128,-1,60
 34 161 34 161 34 160 c 2,61,-1
 34 153 l 1,62,63
 33 148 33 148 33 142.5 c 128,-1,64
 33 137 33 137 33 132 c 256,65,66
 33 127 33 127 33.5 120 c 128,-1,67
 34 113 34 113 35 107 c 0,68,69
 36 89 36 89 48 79 c 1,70,71
 68 59 68 59 77 59 c 2,72,-1
 80 59 l 1,73,74
 93 63 93 63 103 76.5 c 128,-1,75
 113 90 113 90 118 110 c 1,76,-1
 117 109 l 1,77,78
 122 132 122 132 122 146 c 2,79,-1
 122 153 l 2,80,81
 122 156 122 156 124.5 161.5 c 128,-1,82
 127 167 127 167 129 169 c 2,83,-1
 165 202 l 2,84,85
 176 212 176 212 188 206.5 c 128,-1,86
 200 201 200 201 200 186 c 0,87,88
 200 182 200 182 199.5 178.5 c 128,-1,89
 199 175 199 175 199 171 c 0,90,91
 197 144 197 144 193.5 107 c 128,-1,92
 190 70 190 70 182 33.5 c 128,-1,93
 174 -3 174 -3 159.5 -35.5 c 128,-1,94
 145 -68 145 -68 123 -87 c 0,95,96
 111 -98 111 -98 96.5 -104 c 128,-1,97
 82 -110 82 -110 65 -110 c 0,98,99
 49 -110 49 -110 22 -102 c 1,100,101
 8 -94 8 -94 -2.5 -85.5 c 128,-1,102
 -13 -77 -13 -77 -21 -68 c 1,103,104
 -41 -98 -41 -98 -73.5 -119 c 128,-1,105
 -106 -140 -106 -140 -138 -144 c 1,106,-1
 -142 -144 l 1,0,1
EndSplineSet
Fore
SplineSet
-21 -68 m 1
 -43.988691234 -102.483036851 -89.9080703688 -137.988508795 -138 -144 c 1
 -142 -144 l 1
 -210.976371094 -139.243008891 -251 -98.14811174 -251 -26.5 c 128
 -251 -21 -251 -21 -251 -16 c 0
 -251 28.6340510582 -238.645177629 69.0644671162 -227 104 c 1
 -227 105 l 2
 -227 106.333333333 -226.666666667 107.666666667 -226 109 c 0
 -226 114.415221032 -223.096294092 116.75926477 -221 122 c 1
 -224 118 l 1
 -216.355758298 140.932725111 -203.175806773 172.475062061 -171 170 c 0
 -160.882654289 168.735331785 -153 159.089860296 -153 148 c 0
 -153 143.462696411 -151.644678112 144.88830472 -154 139 c 0
 -154 136.438944675 -155 132.560515354 -155 130 c 0
 -159.383031286 112.467874851 -162 90.5750058296 -162 70 c 2
 -162 58 l 1
 -158.890227893 39.341367353 -149.817585636 28.9391952118 -132 23 c 1
 -132.666666667 23.6666666667 -131.333333333 24 -128 24 c 0
 -108.075450327 24 -80.1401711725 33.0713447111 -68.5 49 c 128
 -51.3198062084 72.509738873 -38.6157088983 110.380075428 -36 147 c 1
 -1 180 l 2
 13.6988473753 194.698847375 35 183.406991543 35 165 c 0
 35 162.644435113 34 161.816902324 34 160 c 2
 34 153 l 2
 33.3333333333 149.666666667 33 146.166666667 33 142.5 c 128
 33 137 33 137 33 132 c 256
 33 109.727664993 35.0811188793 89.7657342673 48 79 c 1
 61.3333333333 65.6666666667 71 59 77 59 c 2
 80 59 l 1
 100.019412396 65.1598191988 112.328485898 87.3139435879 118 110 c 1
 117 109 l 1
 120.333333333 124.333333333 122 136.666666667 122 146 c 2
 122 153 l 2
 122 157.143967162 126.927949914 166.927949914 129 169 c 2
 165 202 l 2
 180.27363844 215.885125856 200 204.958781858 200 186 c 0
 200 180.561055325 199 176.439484646 199 171 c 0
 190.962039469 62.4875328018 178.812882641 -69.9394968392 96.5 -104 c 128
 86.8333333333 -108 76.3333333333 -110 65 -110 c 0
 28.6363154541 -110 -2.8980374939 -88.3647078195 -21 -68 c 1
EndSplineSet
EndChar
StartChar: uni0651
Encoding: 1617 1617 21
Width: 0
GlyphClass: 4
AnchorPoint: "Mark Mark Below" -10 -400 basemark 0
AnchorPoint: "Mark Mark Above" -20 350 basemark 0
AnchorPoint: "Mark Mark Above" 0 0 mark 0
AnchorPoint: "Tashkil Above" 0 0 mark 0
LayerCount: 2
Back
SplineSet
-142 -144 m 1,0,1
 -171 -142 -171 -142 -190.5 -133 c 128,-1,2
 -210 -124 -210 -124 -223 -109.5 c 128,-1,3
 -236 -95 -236 -95 -242 -76 c 128,-1,4
 -248 -57 -248 -57 -250 -36 c 0,5,6
 -251 -32 -251 -32 -251 -26.5 c 128,-1,7
 -251 -21 -251 -21 -251 -16 c 0,8,9
 -251 -2 -251 -2 -249.5 13 c 128,-1,10
 -248 28 -248 28 -243 45 c 256,11,12
 -238 62 -238 62 -234.5 77 c 128,-1,13
 -231 92 -231 92 -227 104 c 1,14,-1
 -227 105 l 2,15,16
 -227 107 -227 107 -226 109 c 1,17,18
 -226 112 -226 112 -224.5 114.5 c 128,-1,19
 -223 117 -223 117 -221 122 c 1,20,-1
 -224 118 l 1,21,22
 -222 124 -222 124 -218 133 c 128,-1,23
 -214 142 -214 142 -208 151 c 128,-1,24
 -202 160 -202 160 -193 165.5 c 128,-1,25
 -184 171 -184 171 -171 170 c 0,26,27
 -163 169 -163 169 -158 162.5 c 128,-1,28
 -153 156 -153 156 -153 148 c 0,29,30
 -153 146 -153 146 -152.5 145 c 128,-1,31
 -152 144 -152 144 -154 139 c 0,32,33
 -154 137 -154 137 -154.5 134.5 c 128,-1,34
 -155 132 -155 132 -155 130 c 0,35,36
 -157 122 -157 122 -158 114 c 128,-1,37
 -159 106 -159 106 -160 97 c 0,38,39
 -161 89 -161 89 -161.5 82.5 c 128,-1,40
 -162 76 -162 76 -162 70 c 2,41,-1
 -162 58 l 1,42,43
 -160 46 -160 46 -153.5 37 c 128,-1,44
 -147 28 -147 28 -132 23 c 1,45,46
 -133 24 -133 24 -128 24 c 0,47,48
 -114 24 -114 24 -90 32 c 0,49,50
 -78 36 -78 36 -68.5 49 c 128,-1,51
 -59 62 -59 62 -52 79.5 c 128,-1,52
 -45 97 -45 97 -41 115 c 128,-1,53
 -37 133 -37 133 -36 147 c 1,54,-1
 -1 180 l 2,55,56
 10 191 10 191 22.5 185 c 128,-1,57
 35 179 35 179 35 165 c 0,58,59
 35 163 35 163 34.5 162 c 128,-1,60
 34 161 34 161 34 160 c 2,61,-1
 34 153 l 1,62,63
 33 148 33 148 33 142.5 c 128,-1,64
 33 137 33 137 33 132 c 256,65,66
 33 127 33 127 33.5 120 c 128,-1,67
 34 113 34 113 35 107 c 0,68,69
 36 89 36 89 48 79 c 1,70,71
 68 59 68 59 77 59 c 2,72,-1
 80 59 l 1,73,74
 93 63 93 63 103 76.5 c 128,-1,75
 113 90 113 90 118 110 c 1,76,-1
 117 109 l 1,77,78
 122 132 122 132 122 146 c 2,79,-1
 122 153 l 2,80,81
 122 156 122 156 124.5 161.5 c 128,-1,82
 127 167 127 167 129 169 c 2,83,-1
 165 202 l 2,84,85
 176 212 176 212 188 206.5 c 128,-1,86
 200 201 200 201 200 186 c 0,87,88
 200 182 200 182 199.5 178.5 c 128,-1,89
 199 175 199 175 199 171 c 0,90,91
 197 144 197 144 193.5 107 c 128,-1,92
 190 70 190 70 182 33.5 c 128,-1,93
 174 -3 174 -3 159.5 -35.5 c 128,-1,94
 145 -68 145 -68 123 -87 c 0,95,96
 111 -98 111 -98 96.5 -104 c 128,-1,97
 82 -110 82 -110 65 -110 c 0,98,99
 49 -110 49 -110 22 -102 c 1,100,101
 8 -94 8 -94 -2.5 -85.5 c 128,-1,102
 -13 -77 -13 -77 -21 -68 c 1,103,104
 -41 -98 -41 -98 -73.5 -119 c 128,-1,105
 -106 -140 -106 -140 -138 -144 c 1,106,-1
 -142 -144 l 1,0,1
EndSplineSet
Fore
SplineSet
-142 -144 m 1
 -161.333333333 -142.666666667 -177.5 -139 -190.5 -133 c 128
 -203.5 -127 -214.333333333 -119.166666667 -223 -109.5 c 128
 -231.666666667 -99.8333333333 -238 -88.6666666667 -242 -76 c 128
 -246 -63.3333333333 -248.666666667 -50 -250 -36 c 0
 -250.666666667 -33.3333333333 -251 -30.1666666667 -251 -26.5 c 128
 -251 -21 -251 -21 -251 -16 c 0
 -251 -6.66666666667 -250.5 3 -249.5 13 c 128
 -248.5 23 -246.333333333 33.6666666667 -243 45 c 256
 -239.666666667 56.3333333333 -236.833333333 67 -234.5 77 c 128
 -232.166666667 87 -229.666666667 96 -227 104 c 1
 -227 105 l 2
 -227 106.333333333 -226.666666667 107.666666667 -226 109 c 1
 -226 111 -225.5 112.833333333 -224.5 114.5 c 128
 -223.5 116.166666667 -222.333333333 118.666666667 -221 122 c 1
 -224 118 l 1
 -222.666666667 122 -220.666666667 127 -218 133 c 128
 -215.333333333 139 -212 145 -208 151 c 128
 -204 157 -199 161.833333333 -193 165.5 c 128
 -187 169.166666667 -179.666666667 170.666666667 -171 170 c 0
 -165.666666667 169.333333333 -161.333333333 166.833333333 -158 162.5 c 128
 -154.666666667 158.166666667 -153 153.333333333 -153 148 c 0
 -153 146.666666667 -152.833333333 145.666666667 -152.5 145 c 128
 -152.166666667 144.333333333 -152.666666667 142.333333333 -154 139 c 0
 -154 137.666666667 -154.166666667 136.166666667 -154.5 134.5 c 128
 -154.833333333 132.833333333 -155 131.333333333 -155 130 c 0
 -156.333333333 124.666666667 -157.333333333 119.333333333 -158 114 c 128
 -158.666666667 108.666666667 -159.333333333 103 -160 97 c 0
 -160.666666667 91.6666666667 -161.166666667 86.8333333333 -161.5 82.5 c 128
 -161.833333333 78.1666666667 -162 74 -162 70 c 2
 -162 58 l 1
 -160.666666667 50 -157.833333333 43 -153.5 37 c 128
 -149.166666667 31 -142 26.3333333333 -132 23 c 1
 -132.666666667 23.6666666667 -131.333333333 24 -128 24 c 0
 -118.666666667 24 -106 26.6666666667 -90 32 c 0
 -82 34.6666666667 -74.8333333333 40.3333333333 -68.5 49 c 128
 -62.1666666667 57.6666666667 -56.6666666667 67.8333333333 -52 79.5 c 128
 -47.3333333333 91.1666666667 -43.6666666667 103 -41 115 c 128
 -38.3333333333 127 -36.6666666667 137.666666667 -36 147 c 1
 -1 180 l 2
 6.33333333333 187.333333333 14.1666666667 189 22.5 185 c 128
 30.8333333333 181 35 174.333333333 35 165 c 0
 35 163.666666667 34.8333333333 162.666666667 34.5 162 c 128
 34.1666666667 161.333333333 34 160.666666667 34 160 c 2
 34 153 l 1
 33.3333333333 149.666666667 33 146.166666667 33 142.5 c 128
 33 137 33 137 33 132 c 256
 33 128.666666667 33.1666666667 124.666666667 33.5 120 c 128
 33.8333333333 115.333333333 34.3333333333 111 35 107 c 0
 35.6666666667 95 40 85.6666666667 48 79 c 1
 61.3333333333 65.6666666667 71 59 77 59 c 2
 80 59 l 1
 88.6666666667 61.6666666667 96.3333333333 67.5 103 76.5 c 128
 109.666666667 85.5 114.666666667 96.6666666667 118 110 c 1
 117 109 l 1
 120.333333333 124.333333333 122 136.666666667 122 146 c 2
 122 153 l 2
 122 155 122.833333333 157.833333333 124.5 161.5 c 128
 126.166666667 165.166666667 127.666666667 167.666666667 129 169 c 2
 165 202 l 2
 172.333333333 208.666666667 180 210.166666667 188 206.5 c 128
 196 202.833333333 200 196 200 186 c 0
 200 183.333333333 199.833333333 180.833333333 199.5 178.5 c 128
 199.166666667 176.166666667 199 173.666666667 199 171 c 0
 197.666666667 153 195.833333333 131.666666667 193.5 107 c 128
 191.166666667 82.3333333333 187.333333333 57.8333333333 182 33.5 c 128
 176.666666667 9.16666666667 169.166666667 -13.8333333333 159.5 -35.5 c 128
 149.833333333 -57.1666666667 137.666666667 -74.3333333333 123 -87 c 0
 115 -94.3333333333 106.166666667 -100 96.5 -104 c 128
 86.8333333333 -108 76.3333333333 -110 65 -110 c 0
 54.3333333333 -110 40 -107.333333333 22 -102 c 1
 12.6666666667 -96.6666666667 4.5 -91.1666666667 -2.5 -85.5 c 128
 -9.5 -79.8333333333 -15.6666666667 -74 -21 -68 c 1
 -34.3333333333 -88 -51.8333333333 -105 -73.5 -119 c 128
 -95.1666666667 -133 -116.666666667 -141.333333333 -138 -144 c 1
 -142 -144 l 1
EndSplineSet
EndChar
StartChar: sukun-ar
Encoding: 1618 1618 22
AltUni2: 0006e1.ffffffff.0
Width: 0
GlyphClass: 4
AnchorPoint: "top.mkmk" 0 0 mark 0
AnchorPoint: "top.mark" 0 0 mark 0
LayerCount: 2
Back
SplineSet
-17.08984375 -15.625 m 0,0,1
 4.8828125 -4.8828125 4.8828125 -4.8828125 19.775390625 3.41796875 c 128,-1,2
 34.66796875 11.71875 34.66796875 11.71875 43.9453125 19.04296875 c 1,3,4
 36.62109375 20.5078125 36.62109375 20.5078125 25.146484375 21.97265625 c 128,-1,5
 13.671875 23.4375 13.671875 23.4375 -0.48828125 24.90234375 c 0,6,7
 -7.32421875 25.87890625 -7.32421875 25.87890625 -14.404296875 26.123046875 c 128,-1,8
 -21.484375 26.3671875 -21.484375 26.3671875 -26.85546875 26.3671875 c 0,9,10
 -52.734375 26.3671875 -52.734375 26.3671875 -63.4765625 19.53125 c 1,11,12
 -65.91796875 17.08984375 -65.91796875 17.08984375 -69.091796875 14.404296875 c 128,-1,13
 -72.265625 11.71875 -72.265625 11.71875 -75.68359375 8.30078125 c 0,14,15
 -86.42578125 -1.46484375 -86.42578125 -1.46484375 -92.7734375 -2.9296875 c 0,16,17
 -97.65625 -3.90625 -97.65625 -3.90625 -101.318359375 -0.732421875 c 128,-1,18
 -104.98046875 2.44140625 -104.98046875 2.44140625 -104.98046875 7.8125 c 0,19,20
 -104.98046875 15.625 -104.98046875 15.625 -91.30859375 48.828125 c 1,21,-1
 -91.30859375 48.33984375 l 1,22,23
 -78.61328125 79.58984375 -78.61328125 79.58984375 -54.19921875 109.86328125 c 1,24,25
 -38.57421875 128.41796875 -38.57421875 128.41796875 13.18359375 128.41796875 c 2,26,-1
 30.2734375 128.41796875 l 1,27,28
 97.16796875 125 97.16796875 125 114.74609375 107.421875 c 0,29,30
 126.46484375 96.19140625 126.46484375 96.19140625 126.46484375 75.68359375 c 0,31,32
 126.46484375 53.7109375 126.46484375 53.7109375 112.3046875 26.85546875 c 0,33,34
 86.42578125 -23.92578125 86.42578125 -23.92578125 32.2265625 -49.31640625 c 0,35,36
 8.30078125 -61.03515625 8.30078125 -61.03515625 -14.16015625 -65.673828125 c 128,-1,37
 -36.62109375 -70.3125 -36.62109375 -70.3125 -62.98828125 -71.77734375 c 1,38,-1
 -72.75390625 -71.2890625 l 2,39,40
 -79.1015625 -71.2890625 -79.1015625 -71.2890625 -81.787109375 -66.650390625 c 128,-1,41
 -84.47265625 -62.01171875 -84.47265625 -62.01171875 -82.03125 -56.15234375 c 0,42,43
 -77.63671875 -44.921875 -77.63671875 -44.921875 -17.08984375 -15.625 c 0,0,1
EndSplineSet
Fore
SplineSet
44 19 m 1
 24 23 -2 26 -27 26 c 0
 -44 26 -56 25 -63 20 c 1
 -70 13 -90 -11 -101 -1 c 128
 -103 1 -105 4 -105 8 c 0
 -105 13 -100 26 -91 48 c 0
 -83 69 -70 90 -54 110 c 0
 -44 122 -22 128 13 128 c 2
 30 128 l 1
 75 126 103 119 115 107 c 0
 123 100 126 90 126 76 c 0
 126 61 121 45 112 27 c 0
 82 -32 22 -67 -63 -72 c 1
 -73 -71 l 2
 -81 -71 -86 -65 -82 -56 c 0
 -79 -49 -57 -36 -17 -16 c 0
 7 -4 27 5 44 19 c 1
EndSplineSet
EndChar
StartChar: uni0652
Encoding: 1618 1618 22
AltUni2: 0006e1.ffffffff.0
Width: 0
GlyphClass: 4
AnchorPoint: "Mark Mark Above" 0 0 mark 0
AnchorPoint: "Tashkil Above" 0 0 mark 0
LayerCount: 2
Back
SplineSet
-35 -32 m 0,0,1
 10 -10 10 -10 40.5 7 c 128,-1,2
 71 24 71 24 90 39 c 1,3,4
 75 42 75 42 51.5 45 c 128,-1,5
 28 48 28 48 -1 51 c 0,6,7
 -15 53 -15 53 -29.5 53.5 c 128,-1,8
 -44 54 -44 54 -55 54 c 0,9,10
 -108 54 -108 54 -130 40 c 1,11,12
 -135 35 -135 35 -141.5 29.5 c 128,-1,13
 -148 24 -148 24 -155 17 c 0,14,15
 -177 -3 -177 -3 -190 -6 c 0,16,17
 -200 -8 -200 -8 -207.5 -1.5 c 128,-1,18
 -215 5 -215 5 -215 16 c 0,19,20
 -215 32 -215 32 -187 100 c 1,21,-1
 -187 99 l 1,22,23
 -161 163 -161 163 -111 225 c 1,24,25
 -79 263 -79 263 27 263 c 2,26,-1
 62 263 l 1,27,28
 199 256 199 256 235 220 c 0,29,30
 259 197 259 197 259 155 c 0,31,32
 259 110 259 110 230 55 c 0,33,34
 177 -49 177 -49 66 -101 c 0,35,36
 17 -125 17 -125 -29 -134.5 c 128,-1,37
 -75 -144 -75 -144 -129 -147 c 1,38,-1
 -149 -146 l 2,39,40
 -162 -146 -162 -146 -167.5 -136.5 c 128,-1,41
 -173 -127 -173 -127 -168 -115 c 0,42,43
 -159 -92 -159 -92 -35 -32 c 0,0,1
EndSplineSet
Fore
SplineSet
-35 -32 m 0
 -5 -17.3333333333 20.1666666667 -4.33333333333 40.5 7 c 128
 60.8333333333 18.3333333333 77.3333333333 29 90 39 c 1
 80 41 67.1666666667 43 51.5 45 c 128
 35.8333333333 47 18.3333333333 49 -1 51 c 0
 -10.3333333333 52.3333333333 -19.8333333333 53.1666666667 -29.5 53.5 c 128
 -39.1666666667 53.8333333333 -47.6666666667 54 -55 54 c 0
 -90.3333333333 54 -115.333333333 49.3333333333 -130 40 c 1
 -133.333333333 36.6666666667 -137.166666667 33.1666666667 -141.5 29.5 c 128
 -145.833333333 25.8333333333 -150.333333333 21.6666666667 -155 17 c 0
 -169.666666667 3.66666666667 -181.333333333 -4 -190 -6 c 0
 -196.666666667 -7.33333333333 -202.5 -5.83333333333 -207.5 -1.5 c 128
 -212.5 2.83333333333 -215 8.66666666667 -215 16 c 0
 -215 26.6666666667 -205.666666667 54.6666666667 -187 100 c 1
 -187 99 l 1
 -169.666666667 141.666666667 -144.333333333 183.666666667 -111 225 c 1
 -89.6666666667 250.333333333 -43.6666666667 263 27 263 c 2
 62 263 l 1
 153.333333333 258.333333333 211 244 235 220 c 0
 251 204.666666667 259 183 259 155 c 0
 259 125 249.333333333 91.6666666667 230 55 c 0
 194.666666667 -14.3333333333 140 -66.3333333333 66 -101 c 0
 33.3333333333 -117 1.66666666667 -128.166666667 -29 -134.5 c 128
 -59.6666666667 -140.833333333 -93 -145 -129 -147 c 1
 -149 -146 l 2
 -157.666666667 -146 -163.833333333 -142.833333333 -167.5 -136.5 c 128
 -171.166666667 -130.166666667 -171.333333333 -123 -168 -115 c 0
 -162 -99.6666666667 -117.666666667 -72 -35 -32 c 0
EndSplineSet
EndChar
StartChar: madda-ar
Encoding: 1619 1619 23
Width: 0
GlyphClass: 4
AnchorPoint: "Mark Mark Above" 0 0 mark 0
AnchorPoint: "Dots Above" 0 0 mark 0
LayerCount: 2
Back
SplineSet
132.8125 0.9765625 m 1,0,1
 112.3046875 -11.71875 112.3046875 -11.71875 87.40234375 -20.99609375 c 128,-1,2
 62.5 -30.2734375 62.5 -30.2734375 32.2265625 -36.62109375 c 0,3,4
 23.4375 -38.57421875 23.4375 -38.57421875 14.16015625 -39.55078125 c 128,-1,5
 4.8828125 -40.52734375 4.8828125 -40.52734375 -5.859375 -40.52734375 c 0,6,7
 -27.34375 -40.52734375 -27.34375 -40.52734375 -47.607421875 -35.64453125 c 128,-1,8
 -67.87109375 -30.76171875 -67.87109375 -30.76171875 -86.9140625 -20.5078125 c 1,9,-1
 -86.42578125 -20.5078125 l 1,10,11
 -87.40234375 -20.01953125 -87.40234375 -20.01953125 -89.35546875 -20.01953125 c 0,12,13
 -90.8203125 -20.01953125 -90.8203125 -20.01953125 -91.30859375 -20.5078125 c 2,14,-1
 -105.95703125 -29.296875 l 2,15,16
 -119.62890625 -37.59765625 -119.62890625 -37.59765625 -142.08984375 -61.5234375 c 1,17,18
 -147.94921875 -66.89453125 -147.94921875 -66.89453125 -154.541015625 -70.3125 c 128,-1,19
 -161.1328125 -73.73046875 -161.1328125 -73.73046875 -166.50390625 -71.2890625 c 0,20,21
 -168.9453125 -70.3125 -168.9453125 -70.3125 -171.142578125 -66.89453125 c 128,-1,22
 -173.33984375 -63.4765625 -173.33984375 -63.4765625 -173.33984375 -61.03515625 c 0,23,24
 -173.33984375 -51.7578125 -173.33984375 -51.7578125 -155.76171875 -21.484375 c 1,25,-1
 -155.76171875 -21.97265625 l 1,26,27
 -127.9296875 25.390625 -127.9296875 25.390625 -71.77734375 53.7109375 c 0,28,29
 -68.84765625 54.6875 -68.84765625 54.6875 -64.453125 54.6875 c 0,30,31
 -56.640625 54.6875 -56.640625 54.6875 -47.36328125 49.8046875 c 0,32,33
 -11.71875 32.2265625 -11.71875 32.2265625 27.83203125 32.2265625 c 0,34,35
 36.1328125 32.2265625 36.1328125 32.2265625 45.41015625 33.203125 c 128,-1,36
 54.6875 34.1796875 54.6875 34.1796875 64.453125 35.64453125 c 1,37,38
 123.53515625 47.8515625 123.53515625 47.8515625 155.2734375 75.1953125 c 1,39,-1
 154.296875 74.70703125 l 1,40,41
 156.73828125 77.1484375 156.73828125 77.1484375 159.66796875 78.125 c 128,-1,42
 162.59765625 79.1015625 162.59765625 79.1015625 165.0390625 79.1015625 c 0,43,44
 178.22265625 79.1015625 178.22265625 79.1015625 178.22265625 59.5703125 c 1,45,-1
 132.8125 0.9765625 l 1,0,1
EndSplineSet
Fore
SplineSet
154 75 m 1
 157 78 161 79 165 79 c 0
 174 79 178 73 178 60 c 1
 133 1 l 1
 98 -21 50 -41 -6 -41 c 0
 -38 -41 -64 -33 -87 -21 c 0
 -88 -21 -88 -20 -89 -20 c 0
 -90 -20 -91 -21 -91 -21 c 2
 -106 -29 l 2
 -115 -35 -127 -46 -142 -62 c 1
 -148 -68 -163 -79 -171 -67 c 128
 -172 -65 -173 -63 -173 -61 c 0
 -173 -55 -168 -41 -156 -21 c 1
 -156 -22 l 1
 -137 10 -109 35 -72 54 c 0
 -70 55 -67 55 -64 55 c 0
 -59 55 -53 53 -47 50 c 0
 -23 38 2 32 28 32 c 0
 41 32 52 34 64 36 c 1
 103 44 134 57 155 75 c 1
 154 75 l 1
EndSplineSet
EndChar
StartChar: uni0653
Encoding: 1619 1619 23
Width: 0
GlyphClass: 4
AnchorPoint: "Mark Mark Above" 0 0 mark 0
AnchorPoint: "Dots Above" 0 0 mark 0
LayerCount: 2
Back
SplineSet
272 2 m 1,0,1
 230 -24 230 -24 179 -43 c 128,-1,2
 128 -62 128 -62 66 -75 c 0,3,4
 48 -79 48 -79 29 -81 c 128,-1,5
 10 -83 10 -83 -12 -83 c 0,6,7
 -56 -83 -56 -83 -97.5 -73 c 128,-1,8
 -139 -63 -139 -63 -178 -42 c 1,9,-1
 -177 -42 l 1,10,11
 -179 -41 -179 -41 -183 -41 c 0,12,13
 -186 -41 -186 -41 -187 -42 c 2,14,-1
 -217 -60 l 2,15,16
 -245 -77 -245 -77 -291 -126 c 1,17,18
 -303 -137 -303 -137 -316.5 -144 c 128,-1,19
 -330 -151 -330 -151 -341 -146 c 0,20,21
 -346 -144 -346 -144 -350.5 -137 c 128,-1,22
 -355 -130 -355 -130 -355 -125 c 0,23,24
 -355 -106 -355 -106 -319 -44 c 1,25,-1
 -319 -45 l 1,26,27
 -262 52 -262 52 -147 110 c 0,28,29
 -141 112 -141 112 -132 112 c 0,30,31
 -116 112 -116 112 -97 102 c 0,32,33
 -24 66 -24 66 57 66 c 0,34,35
 74 66 74 66 93 68 c 128,-1,36
 112 70 112 70 132 73 c 1,37,38
 253 98 253 98 318 154 c 1,39,-1
 316 153 l 1,40,41
 321 158 321 158 327 160 c 128,-1,42
 333 162 333 162 338 162 c 0,43,44
 365 162 365 162 365 122 c 1,45,-1
 272 2 l 1,0,1
EndSplineSet
Fore
SplineSet
272 2 m 1
 244 -15.3333333333 213 -30.3333333333 179 -43 c 128
 145 -55.6666666667 107.333333333 -66.3333333333 66 -75 c 0
 54 -77.6666666667 41.6666666667 -79.6666666667 29 -81 c 128
 16.3333333333 -82.3333333333 2.66666666667 -83 -12 -83 c 0
 -41.3333333333 -83 -69.8333333333 -79.6666666667 -97.5 -73 c 128
 -125.166666667 -66.3333333333 -152 -56 -178 -42 c 1
 -177 -42 l 1
 -178.333333333 -41.3333333333 -180.333333333 -41 -183 -41 c 0
 -185 -41 -186.333333333 -41.3333333333 -187 -42 c 2
 -217 -60 l 2
 -235.666666667 -71.3333333333 -260.333333333 -93.3333333333 -291 -126 c 1
 -299 -133.333333333 -307.5 -139.333333333 -316.5 -144 c 128
 -325.5 -148.666666667 -333.666666667 -149.333333333 -341 -146 c 0
 -344.333333333 -144.666666667 -347.5 -141.666666667 -350.5 -137 c 128
 -353.5 -132.333333333 -355 -128.333333333 -355 -125 c 0
 -355 -112.333333333 -343 -85.3333333333 -319 -44 c 1
 -319 -45 l 1
 -281 19.6666666667 -223.666666667 71.3333333333 -147 110 c 0
 -143 111.333333333 -138 112 -132 112 c 0
 -121.333333333 112 -109.666666667 108.666666667 -97 102 c 0
 -48.3333333333 78 3 66 57 66 c 0
 68.3333333333 66 80.3333333333 66.6666666667 93 68 c 128
 105.666666667 69.3333333333 118.666666667 71 132 73 c 1
 212.666666667 89.6666666667 274.666666667 116.666666667 318 154 c 1
 316 153 l 1
 319.333333333 156.333333333 323 158.666666667 327 160 c 128
 331 161.333333333 334.666666667 162 338 162 c 0
 356 162 365 148.666666667 365 122 c 1
 272 2 l 1
EndSplineSet
EndChar
StartChar: hamzaabove-ar
Encoding: 1620 1620 25
Width: 0
GlyphClass: 4
AnchorPoint: "top.mkmk" 0 239 basemark 0
AnchorPoint: "top" 0 0 mark 0
LayerCount: 2
Back
SplineSet
45.8984375 109.86328125 m 2,0,1
 41.9921875 101.5625 41.9921875 101.5625 35.15625 95.458984375 c 128,-1,2
 28.3203125 89.35546875 28.3203125 89.35546875 19.04296875 84.9609375 c 0,3,4
 16.6015625 83.49609375 16.6015625 83.49609375 12.20703125 81.0546875 c 128,-1,5
 7.8125 78.61328125 7.8125 78.61328125 5.37109375 76.171875 c 1,6,7
 8.7890625 73.73046875 8.7890625 73.73046875 14.6484375 72.265625 c 0,8,9
 23.4375 69.82421875 23.4375 69.82421875 30.517578125 66.89453125 c 128,-1,10
 37.59765625 63.96484375 37.59765625 63.96484375 43.9453125 60.05859375 c 0,11,12
 62.5 47.36328125 62.5 47.36328125 62.5 27.83203125 c 0,13,14
 62.5 22.4609375 62.5 22.4609375 61.279296875 17.333984375 c 128,-1,15
 60.05859375 12.20703125 60.05859375 12.20703125 57.6171875 6.8359375 c 0,16,17
 46.38671875 -21.97265625 46.38671875 -21.97265625 16.6015625 -43.45703125 c 0,18,19
 -8.7890625 -61.5234375 -8.7890625 -61.5234375 -36.1328125 -65.91796875 c 0,20,21
 -46.38671875 -67.3828125 -46.38671875 -67.3828125 -56.640625 -69.091796875 c 128,-1,22
 -66.89453125 -70.80078125 -66.89453125 -70.80078125 -78.125 -72.75390625 c 2,23,-1
 -86.42578125 -74.21875 l 2,24,25
 -91.30859375 -75.1953125 -91.30859375 -75.1953125 -94.482421875 -72.265625 c 128,-1,26
 -97.65625 -69.3359375 -97.65625 -69.3359375 -98.876953125 -65.4296875 c 128,-1,27
 -100.09765625 -61.5234375 -100.09765625 -61.5234375 -98.876953125 -57.373046875 c 128,-1,28
 -97.65625 -53.22265625 -97.65625 -53.22265625 -93.26171875 -51.26953125 c 2,29,-1
 -72.265625 -42.48046875 l 1,30,31
 -58.10546875 -35.64453125 -58.10546875 -35.64453125 -42.48046875 -28.80859375 c 128,-1,32
 -26.85546875 -21.97265625 -26.85546875 -21.97265625 -12.6953125 -14.6484375 c 1,33,34
 -14.6484375 -13.18359375 -14.6484375 -13.18359375 -16.6015625 -12.6953125 c 0,35,36
 -22.4609375 -10.25390625 -22.4609375 -10.25390625 -27.34375 -7.8125 c 128,-1,37
 -32.2265625 -5.37109375 -32.2265625 -5.37109375 -37.109375 -2.44140625 c 1,38,-1
 -36.62109375 -2.44140625 l 1,39,40
 -60.546875 11.23046875 -60.546875 11.23046875 -60.546875 34.66796875 c 0,41,42
 -60.546875 56.15234375 -60.546875 56.15234375 -37.59765625 86.42578125 c 0,43,44
 -18.06640625 111.81640625 -18.06640625 111.81640625 -2.197265625 129.150390625 c 128,-1,45
 13.671875 146.484375 13.671875 146.484375 23.92578125 154.78515625 c 0,46,47
 28.80859375 158.69140625 28.80859375 158.69140625 35.888671875 162.353515625 c 128,-1,48
 42.96875 166.015625 42.96875 166.015625 51.26953125 169.921875 c 0,49,50
 55.17578125 171.875 55.17578125 171.875 58.59375 170.8984375 c 128,-1,51
 62.01171875 169.921875 62.01171875 169.921875 64.453125 167.48046875 c 128,-1,52
 66.89453125 165.0390625 66.89453125 165.0390625 67.626953125 161.376953125 c 128,-1,53
 68.359375 157.71484375 68.359375 157.71484375 66.89453125 153.80859375 c 2,54,-1
 45.8984375 109.86328125 l 2,0,1
EndSplineSet
Fore
SplineSet
46 110 m 2
 39 95 26 89 12 81 c 128
 9 79 7 78 5 76 c 1
 11 72 24 70 31 67 c 128
 48 60 62 47 62 28 c 0
 62 20 61 13 58 7 c 0
 45 -27 5 -59 -36 -66 c 0
 -53 -68 -69 -71 -86 -74 c 0
 -98 -76 -105 -56 -93 -51 c 2
 -72 -42 l 1
 -53 -33 -31 -25 -13 -15 c 1
 -20 -9 -29 -7 -37 -2 c 1
 -37 -2 l 1
 -53 7 -61 19 -61 35 c 0
 -61 65 -19 111 -2 129 c 128
 18 151 26 158 51 170 c 0
 61 175 71 165 67 154 c 1
 46 110 l 2
EndSplineSet
EndChar
StartChar: uni0654
Encoding: 1620 1620 25
Width: 0
GlyphClass: 4
AnchorPoint: "Mark Mark Above" 0 490 basemark 0
AnchorPoint: "Dots Above" 0 0 mark 0
LayerCount: 2
Back
SplineSet
94 225 m 2,0,1
 86 208 86 208 72 195.5 c 128,-1,2
 58 183 58 183 39 174 c 0,3,4
 34 171 34 171 25 166 c 128,-1,5
 16 161 16 161 11 156 c 1,6,7
 18 151 18 151 30 148 c 0,8,9
 48 143 48 143 62.5 137 c 128,-1,10
 77 131 77 131 90 123 c 0,11,12
 128 97 128 97 128 57 c 0,13,14
 128 46 128 46 125.5 35.5 c 128,-1,15
 123 25 123 25 118 14 c 0,16,17
 95 -45 95 -45 34 -89 c 0,18,19
 -18 -126 -18 -126 -74 -135 c 0,20,21
 -95 -138 -95 -138 -116 -141.5 c 128,-1,22
 -137 -145 -137 -145 -160 -149 c 2,23,-1
 -177 -152 l 2,24,25
 -187 -154 -187 -154 -193.5 -148 c 128,-1,26
 -200 -142 -200 -142 -202.5 -134 c 128,-1,27
 -205 -126 -205 -126 -202.5 -117.5 c 128,-1,28
 -200 -109 -200 -109 -191 -105 c 2,29,-1
 -148 -87 l 1,30,31
 -119 -73 -119 -73 -87 -59 c 128,-1,32
 -55 -45 -55 -45 -26 -30 c 1,33,34
 -30 -27 -30 -27 -34 -26 c 0,35,36
 -46 -21 -46 -21 -56 -16 c 128,-1,37
 -66 -11 -66 -11 -76 -5 c 1,38,-1
 -75 -5 l 1,39,40
 -124 23 -124 23 -124 71 c 0,41,42
 -124 115 -124 115 -77 177 c 0,43,44
 -37 229 -37 229 -4.5 264.5 c 128,-1,45
 28 300 28 300 49 317 c 0,46,47
 59 325 59 325 73.5 332.5 c 128,-1,48
 88 340 88 340 105 348 c 0,49,50
 113 352 113 352 120 350 c 128,-1,51
 127 348 127 348 132 343 c 128,-1,52
 137 338 137 338 138.5 330.5 c 128,-1,53
 140 323 140 323 137 315 c 2,54,-1
 94 225 l 2,0,1
EndSplineSet
Fore
SplineSet
94 225 m 2
 88.6666666667 213.666666667 81.3333333333 203.833333333 72 195.5 c 128
 62.6666666667 187.166666667 51.6666666667 180 39 174 c 0
 35.6666666667 172 31 169.333333333 25 166 c 128
 19 162.666666667 14.3333333333 159.333333333 11 156 c 1
 15.6666666667 152.666666667 22 150 30 148 c 0
 42 144.666666667 52.8333333333 141 62.5 137 c 128
 72.1666666667 133 81.3333333333 128.333333333 90 123 c 0
 115.333333333 105.666666667 128 83.6666666667 128 57 c 0
 128 49.6666666667 127.166666667 42.5 125.5 35.5 c 128
 123.833333333 28.5 121.333333333 21.3333333333 118 14 c 0
 102.666666667 -25.3333333333 74.6666666667 -59.6666666667 34 -89 c 0
 -0.666666666667 -113.666666667 -36.6666666667 -129 -74 -135 c 0
 -88 -137 -102 -139.166666667 -116 -141.5 c 128
 -130 -143.833333333 -144.666666667 -146.333333333 -160 -149 c 2
 -177 -152 l 2
 -183.666666667 -153.333333333 -189.166666667 -152 -193.5 -148 c 128
 -197.833333333 -144 -200.833333333 -139.333333333 -202.5 -134 c 128
 -204.166666667 -128.666666667 -204.166666667 -123.166666667 -202.5 -117.5 c 128
 -200.833333333 -111.833333333 -197 -107.666666667 -191 -105 c 2
 -148 -87 l 1
 -128.666666667 -77.6666666667 -108.333333333 -68.3333333333 -87 -59 c 128
 -65.6666666667 -49.6666666667 -45.3333333333 -40 -26 -30 c 1
 -28.6666666667 -28 -31.3333333333 -26.6666666667 -34 -26 c 0
 -42 -22.6666666667 -49.3333333333 -19.3333333333 -56 -16 c 128
 -62.6666666667 -12.6666666667 -69.3333333333 -9 -76 -5 c 1
 -75 -5 l 1
 -107.666666667 13.6666666667 -124 39 -124 71 c 0
 -124 100.333333333 -108.333333333 135.666666667 -77 177 c 0
 -50.3333333333 211.666666667 -26.1666666667 240.833333333 -4.5 264.5 c 128
 17.1666666667 288.166666667 35 305.666666667 49 317 c 0
 55.6666666667 322.333333333 63.8333333333 327.5 73.5 332.5 c 128
 83.1666666667 337.5 93.6666666667 342.666666667 105 348 c 0
 110.333333333 350.666666667 115.333333333 351.333333333 120 350 c 128
 124.666666667 348.666666667 128.666666667 346.333333333 132 343 c 128
 135.333333333 339.666666667 137.5 335.5 138.5 330.5 c 128
 139.5 325.5 139 320.333333333 137 315 c 2
 94 225 l 2
EndSplineSet
EndChar
StartChar: noonghunnaabove-ar
Encoding: 1624 1624 383
Width: 0
GlyphClass: 4
AnchorPoint: "Mark Mark Above" 0 0 mark 0
AnchorPoint: "Tashkil Above" 0 0 mark 0
LayerCount: 2
Back
SplineSet
2.44140625 -68.359375 m 1,0,1
 -13.671875 -67.3828125 -13.671875 -67.3828125 -25.146484375 -61.767578125 c 128,-1,2
 -36.62109375 -56.15234375 -36.62109375 -56.15234375 -44.921875 -47.36328125 c 1,3,4
 -50.78125 -39.0625 -50.78125 -39.0625 -54.6875 -29.296875 c 128,-1,5
 -58.59375 -19.53125 -58.59375 -19.53125 -59.5703125 -7.8125 c 0,6,7
 -60.546875 1.46484375 -60.546875 1.46484375 -59.5703125 12.939453125 c 128,-1,8
 -58.59375 24.4140625 -58.59375 24.4140625 -55.17578125 37.109375 c 0,9,10
 -51.26953125 50.29296875 -51.26953125 50.29296875 -47.36328125 61.03515625 c 128,-1,11
 -43.45703125 71.77734375 -43.45703125 71.77734375 -39.55078125 79.58984375 c 0,12,13
 -29.78515625 99.609375 -29.78515625 99.609375 -21.484375 111.81640625 c 1,14,-1
 -21.484375 111.328125 l 1,15,16
 -9.765625 127.9296875 -9.765625 127.9296875 1.46484375 127.9296875 c 0,17,18
 6.34765625 127.9296875 6.34765625 127.9296875 8.544921875 126.46484375 c 128,-1,19
 10.7421875 125 10.7421875 125 12.6953125 123.53515625 c 0,20,21
 13.671875 122.55859375 13.671875 122.55859375 14.892578125 119.140625 c 128,-1,22
 16.11328125 115.72265625 16.11328125 115.72265625 16.11328125 114.74609375 c 0,23,24
 16.11328125 111.328125 16.11328125 111.328125 15.625 108.642578125 c 128,-1,25
 15.13671875 105.95703125 15.13671875 105.95703125 12.6953125 103.515625 c 1,26,27
 5.37109375 92.28515625 5.37109375 92.28515625 0.244140625 83.251953125 c 128,-1,28
 -4.8828125 74.21875 -4.8828125 74.21875 -5.859375 67.3828125 c 0,29,30
 -6.8359375 63.4765625 -6.8359375 63.4765625 -7.32421875 60.546875 c 128,-1,31
 -7.8125 57.6171875 -7.8125 57.6171875 -7.8125 54.19921875 c 128,-1,32
 -7.8125 50.78125 -7.8125 50.78125 -7.32421875 47.607421875 c 128,-1,33
 -6.8359375 44.43359375 -6.8359375 44.43359375 -5.859375 41.9921875 c 0,34,35
 -2.44140625 33.69140625 -2.44140625 33.69140625 3.90625 28.80859375 c 0,36,37
 14.6484375 20.99609375 14.6484375 20.99609375 26.85546875 20.01953125 c 1,38,39
 36.62109375 18.5546875 36.62109375 18.5546875 47.36328125 22.4609375 c 1,40,41
 57.12890625 25.390625 57.12890625 25.390625 64.453125 34.1796875 c 1,42,-1
 63.96484375 33.69140625 l 1,43,44
 72.75390625 46.875 72.75390625 46.875 85.9375 40.52734375 c 1,45,46
 94.7265625 31.25 94.7265625 31.25 88.37890625 16.11328125 c 1,47,-1
 86.9140625 13.18359375 l 1,48,-1
 87.40234375 13.671875 l 1,49,-1
 77.63671875 -9.27734375 l 2,50,51
 73.73046875 -17.578125 73.73046875 -17.578125 69.091796875 -24.658203125 c 128,-1,52
 64.453125 -31.73828125 64.453125 -31.73828125 59.08203125 -37.59765625 c 0,53,54
 45.8984375 -52.24609375 45.8984375 -52.24609375 35.64453125 -59.08203125 c 1,55,-1
 36.1328125 -58.59375 l 1,56,57
 27.83203125 -63.96484375 27.83203125 -63.96484375 19.53125 -66.40625 c 128,-1,58
 11.23046875 -68.84765625 11.23046875 -68.84765625 2.9296875 -68.359375 c 1,59,-1
 2.44140625 -68.359375 l 1,0,1
EndSplineSet
Fore
SplineSet
1 128 m 0
 9 128 16 123 16 115 c 0
 16 110 16 107 13 104 c 1
 3 89 -8 75 -8 54 c 128
 -8 17 43 10 64 34 c 1
 70 43 77 45 86 41 c 1
 93 34 91 24 87 14 c 2
 78 -9 l 1
 67 -33 45 -59 20 -66 c 128
 14 -68 9 -68 3 -68 c 2
 2 -68 l 1
 -51 -65 -70 -19 -55 37 c 0
 -47 65 -34 93 -21 112 c 1
 -21 111 l 1
 -13 122 -6 128 1 128 c 0
EndSplineSet
EndChar
StartChar: uni0658
Encoding: 1624 1624 383
Width: 0
GlyphClass: 4
AnchorPoint: "Mark Mark Above" 0 0 mark 0
AnchorPoint: "Tashkil Above" 0 0 mark 0
LayerCount: 2
Back
SplineSet
5 -140 m 1,0,1
 -28 -138 -28 -138 -51.5 -126.5 c 128,-1,2
 -75 -115 -75 -115 -92 -97 c 1,3,4
 -104 -80 -104 -80 -112 -60 c 128,-1,5
 -120 -40 -120 -40 -122 -16 c 0,6,7
 -124 3 -124 3 -122 26.5 c 128,-1,8
 -120 50 -120 50 -113 76 c 0,9,10
 -105 103 -105 103 -97 125 c 128,-1,11
 -89 147 -89 147 -81 163 c 0,12,13
 -61 204 -61 204 -44 229 c 1,14,-1
 -44 228 l 1,15,16
 -20 262 -20 262 3 262 c 0,17,18
 13 262 13 262 17.5 259 c 128,-1,19
 22 256 22 256 26 253 c 0,20,21
 28 251 28 251 30.5 244 c 128,-1,22
 33 237 33 237 33 235 c 0,23,24
 33 228 33 228 32 222.5 c 128,-1,25
 31 217 31 217 26 212 c 1,26,27
 11 189 11 189 0.5 170.5 c 128,-1,28
 -10 152 -10 152 -12 138 c 0,29,30
 -14 130 -14 130 -15 124 c 128,-1,31
 -16 118 -16 118 -16 111 c 128,-1,32
 -16 104 -16 104 -15 97.5 c 128,-1,33
 -14 91 -14 91 -12 86 c 0,34,35
 -5 69 -5 69 8 59 c 0,36,37
 30 43 30 43 55 41 c 1,38,39
 75 38 75 38 97 46 c 1,40,41
 117 52 117 52 132 70 c 1,42,-1
 131 69 l 1,43,44
 149 96 149 96 176 83 c 1,45,46
 194 64 194 64 181 33 c 1,47,-1
 178 27 l 1,48,-1
 179 28 l 1,49,-1
 159 -19 l 2,50,51
 151 -36 151 -36 141.5 -50.5 c 128,-1,52
 132 -65 132 -65 121 -77 c 0,53,54
 94 -107 94 -107 73 -121 c 1,55,-1
 74 -120 l 1,56,57
 57 -131 57 -131 40 -136 c 128,-1,58
 23 -141 23 -141 6 -140 c 1,59,-1
 5 -140 l 1,0,1
EndSplineSet
Fore
SplineSet
3 262 m 0
 20.1075451245 262 33 251.300456802 33 235 c 0
 33 223.922395194 32.0857344343 218.085734434 26 212 c 1
 6.265491577 181.740420419 -16 154.322764173 -16 111 c 128
 -16 35.4417209457 88.2369507134 19.1099003729 131 69 c 1
 143 87 158 91.6666666667 176 83 c 1
 190.071549763 68.1466974721 187.553280117 49.3832002931 179 28 c 2
 159 -19 l 1
 135.502032487 -68.9331809684 91.6870561799 -120.797924654 40 -136 c 128
 28.6666666667 -139.333333333 17.3333333333 -140.666666667 6 -140 c 2
 5 -140 l 1
 -102.732367286 -133.470765621 -144.030542907 -39.256302216 -113 76 c 0
 -96.270182412 132.463134363 -70.7928363773 189.598770033 -44 229 c 1
 -44 228 l 1
 -28 250.666666667 -12.3333333333 262 3 262 c 0
EndSplineSet
EndChar
StartChar: uni065A
Encoding: 1626 1626 419
Width: 0
GlyphClass: 4
AnchorPoint: "Tashkil Above" 0 0 mark 0
LayerCount: 2
Back
SplineSet
178 226 m 1,0,1
 172 204 172 204 169 182.5 c 128,-1,2
 166 161 166 161 166 140 c 1,3,4
 127 90 127 90 99.5 35 c 0,5,6
 56 -52 56 -52 47 -79 c 0,7,8
 45 -85 45 -85 43.5 -90.5 c 128,-1,9
 42 -96 42 -96 40 -101 c 0,10,11
 37 -112 37 -112 32.5 -122 c 128,-1,12
 28 -132 28 -132 21 -141 c 0,13,14
 17 -146 17 -146 8 -150 c 1,15,-1
 8 -150 l 1,16,17
 2 -152 2 -152 -3 -152 c 0,18,19
 -15 -152 -15 -152 -18 -144 c 0,20,21
 -30 -103 -30 -103 -47 -66.5 c 128,-1,22
 -64 -30 -64 -30 -86 3 c 0,23,24
 -108 37 -108 37 -132 71 c 128,-1,25
 -156 105 -156 105 -181 138 c 1,26,27
 -173 157 -173 157 -162 178.5 c 128,-1,28
 -151 200 -151 200 -141 221 c 1,29,-1
 -141 220 l 1,30,-1
 -136 230 l 2,31,32
 -133.533203125 234.93359375 -133.533203125 234.93359375 -125 236 c 0,33,34
 -117 237 -117 237 -113 231 c 0,35,36
 -32 124 -32 124 24 19 c 1,37,38
 50 76 50 76 81.5 128 c 128,-1,39
 113 180 113 180 148 229 c 1,40,-1
 148 229 l 1,41,42
 151 235 151 235 163 235 c 0,43,44
 164 235 164 235 166 235 c 128,-1,45
 168 235 168 235 171 234 c 1,46,-1
 178 226 l 1,0,1
EndSplineSet
Fore
SplineSet
178 226 m 1
 174 211.333333333 171 196.833333333 169 182.5 c 128
 167 168.166666667 166 154 166 140 c 1
 140 106.666666667 117.833333333 71.6666666667 99.5 35 c 0
 70.5 -23 53 -61 47 -79 c 0
 45.6666666667 -83 44.5 -86.8333333333 43.5 -90.5 c 128
 42.5 -94.1666666667 41.3333333333 -97.6666666667 40 -101 c 0
 38 -108.333333333 35.5 -115.333333333 32.5 -122 c 128
 29.5 -128.666666667 25.6666666667 -135 21 -141 c 0
 18.3333333333 -144.333333333 14 -147.333333333 8 -150 c 1
 8 -150 l 1
 4 -151.333333333 0.333333333333 -152 -3 -152 c 0
 -11 -152 -16 -149.333333333 -18 -144 c 0
 -26 -116.666666667 -35.6666666667 -90.8333333333 -47 -66.5 c 128
 -58.3333333333 -42.1666666667 -71.3333333333 -19 -86 3 c 0
 -100.666666667 25.6666666667 -116 48.3333333333 -132 71 c 128
 -148 93.6666666667 -164.333333333 116 -181 138 c 1
 -175.666666667 150.666666667 -169.333333333 164.166666667 -162 178.5 c 128
 -154.666666667 192.833333333 -147.666666667 207 -141 221 c 1
 -141 220 l 1
 -136 230 l 2
 -134.35546875 233.2890625 -130.688802083 235.2890625 -125 236 c 0
 -119.666666667 236.666666667 -115.666666667 235 -113 231 c 0
 -59 159.666666667 -13.3333333333 89 24 19 c 1
 41.3333333333 57 60.5 93.3333333333 81.5 128 c 128
 102.5 162.666666667 124.666666667 196.333333333 148 229 c 1
 148 229 l 1
 150 233 155 235 163 235 c 0
 164 235 164 235 166 235 c 128
 167.333333333 235 169 234.666666667 171 234 c 1
 178 226 l 1
EndSplineSet
EndChar
StartChar: vabove-ar
Encoding: 1626 1626 419
Width: 0
GlyphClass: 4
AnchorPoint: "Tashkil Above" 0 0 mark 0
LayerCount: 2
Back
SplineSet
86.9140625 110.3515625 m 1,0,1
 83.984375 99.609375 83.984375 99.609375 82.51953125 89.111328125 c 128,-1,2
 81.0546875 78.61328125 81.0546875 78.61328125 81.0546875 68.359375 c 1,3,4
 62.01171875 43.9453125 62.01171875 43.9453125 48.583984375 17.08984375 c 0,5,6
 27.34375 -25.390625 27.34375 -25.390625 22.94921875 -38.57421875 c 0,7,8
 21.97265625 -41.50390625 21.97265625 -41.50390625 21.240234375 -44.189453125 c 128,-1,9
 20.5078125 -46.875 20.5078125 -46.875 19.53125 -49.31640625 c 0,10,11
 18.06640625 -54.6875 18.06640625 -54.6875 15.869140625 -59.5703125 c 128,-1,12
 13.671875 -64.453125 13.671875 -64.453125 10.25390625 -68.84765625 c 0,13,14
 8.30078125 -71.2890625 8.30078125 -71.2890625 3.90625 -73.2421875 c 1,15,-1
 3.90625 -73.2421875 l 1,16,17
 0.9765625 -74.21875 0.9765625 -74.21875 -1.46484375 -74.21875 c 0,18,19
 -7.32421875 -74.21875 -7.32421875 -74.21875 -8.7890625 -70.3125 c 0,20,21
 -14.6484375 -50.29296875 -14.6484375 -50.29296875 -22.94921875 -32.470703125 c 128,-1,22
 -31.25 -14.6484375 -31.25 -14.6484375 -41.9921875 1.46484375 c 0,23,24
 -52.734375 18.06640625 -52.734375 18.06640625 -64.453125 34.66796875 c 128,-1,25
 -76.171875 51.26953125 -76.171875 51.26953125 -88.37890625 67.3828125 c 1,26,27
 -84.47265625 76.66015625 -84.47265625 76.66015625 -79.1015625 87.158203125 c 128,-1,28
 -73.73046875 97.65625 -73.73046875 97.65625 -68.84765625 107.91015625 c 1,29,-1
 -68.84765625 107.421875 l 1,30,-1
 -66.40625 112.3046875 l 2,31,32
 -65.2021484375 114.713867188 -65.2021484375 114.713867188 -61.03515625 115.234375 c 0,33,34
 -57.12890625 115.72265625 -57.12890625 115.72265625 -55.17578125 112.79296875 c 0,35,36
 -15.625 60.546875 -15.625 60.546875 11.71875 9.27734375 c 1,37,38
 24.4140625 37.109375 24.4140625 37.109375 39.794921875 62.5 c 128,-1,39
 55.17578125 87.890625 55.17578125 87.890625 72.265625 111.81640625 c 1,40,-1
 72.265625 111.81640625 l 1,41,42
 73.73046875 114.74609375 73.73046875 114.74609375 79.58984375 114.74609375 c 0,43,44
 80.078125 114.74609375 80.078125 114.74609375 81.0546875 114.74609375 c 128,-1,45
 82.03125 114.74609375 82.03125 114.74609375 83.49609375 114.2578125 c 1,46,-1
 86.9140625 110.3515625 l 1,0,1
EndSplineSet
Fore
SplineSet
87 110 m 1
 83 97 81 83 81 68 c 1
 68 52 58 35 49 17 c 0
 33 -16 25 -29 21 -44 c 128
 18 -56 14 -74 -1 -74 c 0
 -5 -74 -8 -73 -9 -70 c 0
 -25 -15 -57 26 -88 67 c 1
 -82 82 -73 98 -66 112 c 0
 -64 115 -57 117 -55 113 c 0
 -29 78 -6 43 12 9 c 1
 29 46 49 80 72 112 c 0
 73 114 76 115 80 115 c 0
 80 115 80 115 81 115 c 128
 82 115 82 114 83 114 c 1
 87 110 l 1
EndSplineSet
EndChar
StartChar: uni0660
Encoding: 1632 1632 36
AltUni2: 0006f0.ffffffff.0
Width: 475
GlyphClass: 2
LayerCount: 2
Back
SplineSet
192 742 m 1,0,-1
 191 741 l 1,1,2
 197 749 197 749 205 753 c 128,-1,3
 213 757 213 757 221 757 c 0,4,5
 230 757 230 757 236.5 754 c 128,-1,6
 243 751 243 751 250 745 c 2,7,-1
 416 606 l 2,8,9
 424 599 424 599 428.5 592 c 128,-1,10
 433 585 433 585 433 574 c 0,11,12
 433 567 433 567 430 561 c 128,-1,13
 427 555 427 555 422 548 c 2,14,-1
 275 366 l 1,15,-1
 276 366 l 1,16,17
 262 351 262 351 245 351 c 0,18,19
 230 351 230 351 217 361 c 2,20,-1
 51 502 l 2,21,22
 34 517 34 517 34 534 c 0,23,24
 34 547 34 547 44 559 c 2,25,-1
 192 742 l 1,0,-1
EndSplineSet
Fore
SplineSet
192 742 m 1
 191 741 l 1
 195 746.333333333 199.666666667 750.333333333 205 753 c 128
 210.333333333 755.666666667 215.666666667 757 221 757 c 0
 227 757 232.166666667 756 236.5 754 c 128
 240.833333333 752 245.333333333 749 250 745 c 2
 416 606 l 2
 421.333333333 601.333333333 425.5 596.666666667 428.5 592 c 128
 431.5 587.333333333 433 581.333333333 433 574 c 0
 433 569.333333333 432 565 430 561 c 128
 428 557 425.333333333 552.666666667 422 548 c 2
 275 366 l 1
 276 366 l 1
 266.666666667 356 256.333333333 351 245 351 c 0
 235 351 225.666666667 354.333333333 217 361 c 2
 51 502 l 2
 39.6666666667 512 34 522.666666667 34 534 c 0
 34 542.666666667 37.3333333333 551 44 559 c 2
 192 742 l 1
EndSplineSet
EndChar
StartChar: zero-ar
Encoding: 1632 1632 36
AltUni2: 0006f0.ffffffff.0
Width: 231
GlyphClass: 2
LayerCount: 2
Back
SplineSet
93.75 362.3046875 m 1,0,-1
 93.26171875 361.81640625 l 1,1,2
 96.19140625 365.72265625 96.19140625 365.72265625 100.09765625 367.67578125 c 128,-1,3
 104.00390625 369.62890625 104.00390625 369.62890625 107.91015625 369.62890625 c 0,4,5
 112.3046875 369.62890625 112.3046875 369.62890625 115.478515625 368.1640625 c 128,-1,6
 118.65234375 366.69921875 118.65234375 366.69921875 122.0703125 363.76953125 c 2,7,-1
 203.125 295.8984375 l 2,8,9
 207.03125 292.48046875 207.03125 292.48046875 209.228515625 289.0625 c 128,-1,10
 211.42578125 285.64453125 211.42578125 285.64453125 211.42578125 280.2734375 c 0,11,12
 211.42578125 276.85546875 211.42578125 276.85546875 209.9609375 273.92578125 c 128,-1,13
 208.49609375 270.99609375 208.49609375 270.99609375 206.0546875 267.578125 c 2,14,-1
 134.27734375 178.7109375 l 1,15,-1
 134.765625 178.7109375 l 1,16,17
 127.9296875 171.38671875 127.9296875 171.38671875 119.62890625 171.38671875 c 0,18,19
 112.3046875 171.38671875 112.3046875 171.38671875 105.95703125 176.26953125 c 2,20,-1
 24.90234375 245.1171875 l 2,21,22
 16.6015625 252.44140625 16.6015625 252.44140625 16.6015625 260.7421875 c 0,23,24
 16.6015625 267.08984375 16.6015625 267.08984375 21.484375 272.94921875 c 2,25,-1
 93.75 362.3046875 l 1,0,-1
EndSplineSet
Fore
SplineSet
21 273 m 2
 93 362 l 2
 96 366 102 370 108 370 c 0
 115 370 118 367 122 364 c 2
 203 296 l 2
 208 292 211 288 211 280 c 0
 211 274 209 272 206 268 c 2
 134 179 l 1
 135 179 l 1
 130 174 126 171 120 171 c 0
 115 171 110 173 106 176 c 2
 25 245 l 2
 19 250 17 255 17 261 c 0
 17 265 18 269 21 273 c 2
EndSplineSet
EndChar
StartChar: one-ar
Encoding: 1633 1633 37
AltUni2: 0006f1.ffffffff.0
Width: 188
GlyphClass: 2
LayerCount: 2
Back
SplineSet
162.109375 304.6875 m 1,0,1
 163.0859375 297.8515625 163.0859375 297.8515625 163.57421875 292.96875 c 128,-1,2
 164.0625 288.0859375 164.0625 288.0859375 164.0625 285.64453125 c 0,3,4
 165.0390625 271.484375 165.0390625 271.484375 165.771484375 257.568359375 c 128,-1,5
 166.50390625 243.65234375 166.50390625 243.65234375 166.50390625 229.98046875 c 0,6,7
 166.50390625 205.56640625 166.50390625 205.56640625 164.0625 182.373046875 c 128,-1,8
 161.62109375 159.1796875 161.62109375 159.1796875 156.25 137.20703125 c 0,9,10
 140.13671875 69.3359375 140.13671875 69.3359375 116.69921875 20.5078125 c 0,11,12
 106.93359375 0 106.93359375 0 92.28515625 0 c 0,13,14
 91.30859375 0 91.30859375 0 89.35546875 0.244140625 c 128,-1,15
 87.40234375 0.48828125 87.40234375 0.48828125 84.47265625 1.953125 c 256,16,17
 81.54296875 3.41796875 81.54296875 3.41796875 79.58984375 6.8359375 c 128,-1,18
 77.63671875 10.25390625 77.63671875 10.25390625 78.125 13.671875 c 0,19,20
 83.984375 66.40625 83.984375 66.40625 83.984375 115.72265625 c 0,21,22
 83.984375 149.4140625 83.984375 149.4140625 81.298828125 181.396484375 c 128,-1,23
 78.61328125 213.37890625 78.61328125 213.37890625 72.75390625 245.60546875 c 1,24,-1
 72.75390625 245.1171875 l 1,25,26
 62.5 300.29296875 62.5 300.29296875 47.36328125 349.365234375 c 128,-1,27
 32.2265625 398.4375 32.2265625 398.4375 12.20703125 442.3828125 c 1,28,29
 23.4375 474.609375 23.4375 474.609375 37.109375 511.71875 c 128,-1,30
 50.78125 548.828125 50.78125 548.828125 64.94140625 582.51953125 c 1,31,32
 67.87109375 590.8203125 67.87109375 590.8203125 75.439453125 590.576171875 c 128,-1,33
 83.0078125 590.33203125 83.0078125 590.33203125 86.42578125 582.03125 c 0,34,35
 98.6328125 550.29296875 98.6328125 550.29296875 110.3515625 517.578125 c 128,-1,36
 122.0703125 484.86328125 122.0703125 484.86328125 131.8359375 450.439453125 c 128,-1,37
 141.6015625 416.015625 141.6015625 416.015625 149.4140625 379.638671875 c 128,-1,38
 157.2265625 343.26171875 157.2265625 343.26171875 162.109375 304.19921875 c 1,39,-1
 162.109375 304.6875 l 1,0,1
EndSplineSet
Fore
SplineSet
164 286 m 0
 165 268 167 249 167 230 c 0
 167 148 143 74 117 21 c 0
 110 7 102 0 92 0 c 0
 85 0 77 6 78 14 c 0
 82 49 84 83 84 116 c 0
 84 246 53 352 12 442 c 1
 27 486 47 541 65 583 c 0
 69 595 82 592 86 582 c 0
 120 495 153 402 164 293 c 128
 164 290 164 288 164 286 c 0
EndSplineSet
EndChar
StartChar: uni0661
Encoding: 1633 1633 37
AltUni2: 0006f1.ffffffff.0
Width: 387
GlyphClass: 2
LayerCount: 2
Back
SplineSet
332 624 m 1,0,1
 334 610 334 610 335 600 c 128,-1,2
 336 590 336 590 336 585 c 0,3,4
 338 556 338 556 339.5 527.5 c 128,-1,5
 341 499 341 499 341 471 c 0,6,7
 341 421 341 421 336 373.5 c 128,-1,8
 331 326 331 326 320 281 c 0,9,10
 287 142 287 142 239 42 c 0,11,12
 219 0 219 0 189 0 c 0,13,14
 187 0 187 0 183 0.5 c 128,-1,15
 179 1 179 1 173 4 c 256,16,17
 167 7 167 7 163 14 c 128,-1,18
 159 21 159 21 160 28 c 0,19,20
 172 136 172 136 172 237 c 0,21,22
 172 306 172 306 166.5 371.5 c 128,-1,23
 161 437 161 437 149 503 c 1,24,-1
 149 502 l 1,25,26
 128 615 128 615 97 715.5 c 128,-1,27
 66 816 66 816 25 906 c 1,28,29
 48 972 48 972 76 1048 c 128,-1,30
 104 1124 104 1124 133 1193 c 1,31,32
 139 1210 139 1210 154.5 1209.5 c 128,-1,33
 170 1209 170 1209 177 1192 c 0,34,35
 202 1127 202 1127 226 1060 c 128,-1,36
 250 993 250 993 270 922.5 c 128,-1,37
 290 852 290 852 306 777.5 c 128,-1,38
 322 703 322 703 332 623 c 1,39,-1
 332 624 l 1,0,1
EndSplineSet
Fore
SplineSet
332 624 m 1
 333.333333333 614.666666667 334.333333333 606.666666667 335 600 c 128
 335.666666667 593.333333333 336 588.333333333 336 585 c 0
 337.333333333 565.666666667 338.5 546.5 339.5 527.5 c 128
 340.5 508.5 341 489.666666667 341 471 c 0
 341 437.666666667 339.333333333 405.166666667 336 373.5 c 128
 332.666666667 341.833333333 327.333333333 311 320 281 c 0
 298 188.333333333 271 108.666666667 239 42 c 0
 225.666666667 14 209 0 189 0 c 0
 187.666666667 0 185.666666667 0.166666666667 183 0.5 c 128
 180.333333333 0.833333333333 177 2 173 4 c 256
 169 6 165.666666667 9.33333333333 163 14 c 128
 160.333333333 18.6666666667 159.333333333 23.3333333333 160 28 c 0
 168 100 172 169.666666667 172 237 c 0
 172 283 170.166666667 327.833333333 166.5 371.5 c 128
 162.833333333 415.166666667 157 459 149 503 c 1
 149 502 l 1
 135 577.333333333 117.666666667 648.5 97 715.5 c 128
 76.3333333333 782.5 52.3333333333 846 25 906 c 1
 40.3333333333 950 57.3333333333 997.333333333 76 1048 c 128
 94.6666666667 1098.66666667 113.666666667 1147 133 1193 c 1
 137 1204.33333333 144.166666667 1209.83333333 154.5 1209.5 c 128
 164.833333333 1209.16666667 172.333333333 1203.33333333 177 1192 c 0
 193.666666667 1148.66666667 210 1104.66666667 226 1060 c 128
 242 1015.33333333 256.666666667 969.5 270 922.5 c 128
 283.333333333 875.5 295.333333333 827.166666667 306 777.5 c 128
 316.666666667 727.833333333 325.333333333 676.333333333 332 623 c 1
 332 624 l 1
EndSplineSet
EndChar
StartChar: two-ar
Encoding: 1634 1634 38
Width: 286
GlyphClass: 2
LayerCount: 2
Back
SplineSet
238.28125 453.125 m 1,0,1
 230.95703125 431.15234375 230.95703125 431.15234375 216.30859375 431.15234375 c 0,2,3
 213.8671875 431.15234375 213.8671875 431.15234375 211.669921875 431.396484375 c 128,-1,4
 209.47265625 431.640625 209.47265625 431.640625 207.03125 433.10546875 c 1,5,6
 194.3359375 436.5234375 194.3359375 436.5234375 178.466796875 439.453125 c 128,-1,7
 162.59765625 442.3828125 162.59765625 442.3828125 147.4609375 444.82421875 c 0,8,9
 135.7421875 446.2890625 135.7421875 446.2890625 125.9765625 446.2890625 c 0,10,11
 111.328125 446.2890625 111.328125 446.2890625 96.6796875 443.359375 c 1,12,13
 106.4453125 420.41015625 106.4453125 420.41015625 118.1640625 395.99609375 c 128,-1,14
 129.8828125 371.58203125 129.8828125 371.58203125 144.04296875 344.7265625 c 0,15,16
 176.26953125 284.1796875 176.26953125 284.1796875 193.359375 225.5859375 c 1,17,18
 194.3359375 217.7734375 194.3359375 217.7734375 194.82421875 209.47265625 c 128,-1,19
 195.3125 201.171875 195.3125 201.171875 195.3125 192.87109375 c 0,20,21
 195.3125 172.36328125 195.3125 172.36328125 192.3828125 152.83203125 c 128,-1,22
 189.453125 133.30078125 189.453125 133.30078125 183.10546875 115.72265625 c 0,23,24
 174.8046875 91.30859375 174.8046875 91.30859375 167.96875 67.3828125 c 128,-1,25
 161.1328125 43.45703125 161.1328125 43.45703125 155.76171875 21.484375 c 1,26,27
 151.3671875 7.32421875 151.3671875 7.32421875 140.625 1.46484375 c 0,28,29
 133.7890625 -2.44140625 133.7890625 -2.44140625 127.9296875 1.46484375 c 128,-1,30
 122.0703125 5.37109375 122.0703125 5.37109375 123.046875 13.18359375 c 0,31,32
 124.0234375 21.97265625 124.0234375 21.97265625 124.51171875 30.76171875 c 128,-1,33
 125 39.55078125 125 39.55078125 125 47.8515625 c 0,34,35
 125 103.515625 125 103.515625 104.98046875 155.2734375 c 0,36,37
 98.6328125 170.41015625 98.6328125 170.41015625 91.552734375 186.279296875 c 128,-1,38
 84.47265625 202.1484375 84.47265625 202.1484375 77.1484375 217.529296875 c 128,-1,39
 69.82421875 232.91015625 69.82421875 232.91015625 62.744140625 246.826171875 c 128,-1,40
 55.6640625 260.7421875 55.6640625 260.7421875 49.31640625 271.97265625 c 1,41,-1
 49.8046875 271.484375 l 1,42,43
 39.55078125 288.57421875 39.55078125 288.57421875 32.470703125 310.05859375 c 128,-1,44
 25.390625 331.54296875 25.390625 331.54296875 21.97265625 356.93359375 c 0,45,46
 20.01953125 369.62890625 20.01953125 369.62890625 19.04296875 382.568359375 c 128,-1,47
 18.06640625 395.5078125 18.06640625 395.5078125 18.06640625 409.1796875 c 0,48,49
 18.06640625 421.875 18.06640625 421.875 18.798828125 434.326171875 c 128,-1,50
 19.53125 446.77734375 19.53125 446.77734375 21.484375 458.49609375 c 0,51,52
 25.390625 483.3984375 25.390625 483.3984375 33.447265625 505.37109375 c 128,-1,53
 41.50390625 527.34375 41.50390625 527.34375 52.734375 546.38671875 c 1,54,55
 65.4296875 565.4296875 65.4296875 565.4296875 84.228515625 577.392578125 c 128,-1,56
 103.02734375 589.35546875 103.02734375 589.35546875 125 592.7734375 c 0,57,58
 133.30078125 593.75 133.30078125 593.75 141.6015625 594.23828125 c 128,-1,59
 149.90234375 594.7265625 149.90234375 594.7265625 157.71484375 594.7265625 c 0,60,61
 167.48046875 594.7265625 167.48046875 594.7265625 176.513671875 593.994140625 c 128,-1,62
 185.546875 593.26171875 185.546875 593.26171875 193.84765625 592.28515625 c 0,63,64
 209.47265625 589.84375 209.47265625 589.84375 226.07421875 586.181640625 c 128,-1,65
 242.67578125 582.51953125 242.67578125 582.51953125 261.23046875 577.63671875 c 1,66,67
 263.18359375 575.1953125 263.18359375 575.1953125 265.13671875 571.533203125 c 128,-1,68
 267.08984375 567.87109375 267.08984375 567.87109375 267.08984375 563.96484375 c 1,69,-1
 238.28125 453.125 l 1,0,1
EndSplineSet
Fore
SplineSet
238 453 m 1
 233 438 226 431 216 431 c 0
 212 431 210 431 207 433 c 1
 184 439 154 446 126 446 c 0
 116 446 107 445 97 443 c 1
 127 374 172 299 193 226 c 1
 194 216 195 204 195 193 c 0
 195 142 179 106 168 67 c 128
 163 51 160 36 156 21 c 1
 153 12 142 -8 128 1 c 128
 118 7 125 33 125 48 c 0
 125 85 118 120 105 155 c 0
 88 195 70 235 50 271 c 0
 29 306 18 354 18 409 c 0
 18 467 32 510 53 546 c 1
 74 578 106 595 158 595 c 0
 198 595 228 587 261 578 c 1
 263 575 267 569 267 564 c 1
 238 453 l 1
EndSplineSet
EndChar
StartChar: uni0662
Encoding: 1634 1634 38
Width: 586
GlyphClass: 2
LayerCount: 2
Back
SplineSet
488 928 m 1,0,1
 473 883 473 883 443 883 c 0,2,3
 438 883 438 883 433.5 883.5 c 128,-1,4
 429 884 429 884 424 887 c 1,5,6
 398 894 398 894 365.5 900 c 128,-1,7
 333 906 333 906 302 911 c 0,8,9
 278 914 278 914 258 914 c 0,10,11
 228 914 228 914 198 908 c 1,12,13
 218 861 218 861 242 811 c 128,-1,14
 266 761 266 761 295 706 c 0,15,16
 361 582 361 582 396 462 c 1,17,18
 398 446 398 446 399 429 c 128,-1,19
 400 412 400 412 400 395 c 0,20,21
 400 353 400 353 394 313 c 128,-1,22
 388 273 388 273 375 237 c 0,23,24
 358 187 358 187 344 138 c 128,-1,25
 330 89 330 89 319 44 c 1,26,27
 310 15 310 15 288 3 c 0,28,29
 274 -5 274 -5 262 3 c 128,-1,30
 250 11 250 11 252 27 c 0,31,32
 254 45 254 45 255 63 c 128,-1,33
 256 81 256 81 256 98 c 0,34,35
 256 212 256 212 215 318 c 0,36,37
 202 349 202 349 187.5 381.5 c 128,-1,38
 173 414 173 414 158 445.5 c 128,-1,39
 143 477 143 477 128.5 505.5 c 128,-1,40
 114 534 114 534 101 557 c 1,41,-1
 102 556 l 1,42,43
 81 591 81 591 66.5 635 c 128,-1,44
 52 679 52 679 45 731 c 0,45,46
 41 757 41 757 39 783.5 c 128,-1,47
 37 810 37 810 37 838 c 0,48,49
 37 864 37 864 38.5 889.5 c 128,-1,50
 40 915 40 915 44 939 c 0,51,52
 52 990 52 990 68.5 1035 c 128,-1,53
 85 1080 85 1080 108 1119 c 1,54,55
 134 1158 134 1158 172.5 1182.5 c 128,-1,56
 211 1207 211 1207 256 1214 c 0,57,58
 273 1216 273 1216 290 1217 c 128,-1,59
 307 1218 307 1218 323 1218 c 0,60,61
 343 1218 343 1218 361.5 1216.5 c 128,-1,62
 380 1215 380 1215 397 1213 c 0,63,64
 429 1208 429 1208 463 1200.5 c 128,-1,65
 497 1193 497 1193 535 1183 c 1,66,67
 539 1178 539 1178 543 1170.5 c 128,-1,68
 547 1163 547 1163 547 1155 c 1,69,-1
 488 928 l 1,0,1
EndSplineSet
Fore
SplineSet
488 928 m 1
 478 898 463 883 443 883 c 0
 439.666666667 883 436.5 883.166666667 433.5 883.5 c 128
 430.5 883.833333333 427.333333333 885 424 887 c 1
 406.666666667 891.666666667 387.166666667 896 365.5 900 c 128
 343.833333333 904 322.666666667 907.666666667 302 911 c 0
 286 913 271.333333333 914 258 914 c 0
 238 914 218 912 198 908 c 1
 211.333333333 876.666666667 226 844.333333333 242 811 c 128
 258 777.666666667 275.666666667 742.666666667 295 706 c 0
 339 623.333333333 372.666666667 542 396 462 c 1
 397.333333333 451.333333333 398.333333333 440.333333333 399 429 c 128
 399.666666667 417.666666667 400 406.333333333 400 395 c 0
 400 367 398 339.666666667 394 313 c 128
 390 286.333333333 383.666666667 261 375 237 c 0
 363.666666667 203.666666667 353.333333333 170.666666667 344 138 c 128
 334.666666667 105.333333333 326.333333333 74 319 44 c 1
 313 24.6666666667 302.666666667 11 288 3 c 0
 278.666666667 -2.33333333333 270 -2.33333333333 262 3 c 128
 254 8.33333333333 250.666666667 16.3333333333 252 27 c 0
 253.333333333 39 254.333333333 51 255 63 c 128
 255.666666667 75 256 86.6666666667 256 98 c 0
 256 174 242.333333333 247.333333333 215 318 c 0
 206.333333333 338.666666667 197.166666667 359.833333333 187.5 381.5 c 128
 177.833333333 403.166666667 168 424.5 158 445.5 c 128
 148 466.5 138.166666667 486.5 128.5 505.5 c 128
 118.833333333 524.5 109.666666667 541.666666667 101 557 c 1
 102 556 l 1
 88 579.333333333 76.1666666667 605.666666667 66.5 635 c 128
 56.8333333333 664.333333333 49.6666666667 696.333333333 45 731 c 0
 42.3333333333 748.333333333 40.3333333333 765.833333333 39 783.5 c 128
 37.6666666667 801.166666667 37 819.333333333 37 838 c 0
 37 855.333333333 37.5 872.5 38.5 889.5 c 128
 39.5 906.5 41.3333333333 923 44 939 c 0
 49.3333333333 973 57.5 1005 68.5 1035 c 128
 79.5 1065 92.6666666667 1093 108 1119 c 1
 125.333333333 1145 146.833333333 1166.16666667 172.5 1182.5 c 128
 198.166666667 1198.83333333 226 1209.33333333 256 1214 c 0
 267.333333333 1215.33333333 278.666666667 1216.33333333 290 1217 c 128
 301.333333333 1217.66666667 312.333333333 1218 323 1218 c 0
 336.333333333 1218 349.166666667 1217.5 361.5 1216.5 c 128
 373.833333333 1215.5 385.666666667 1214.33333333 397 1213 c 0
 418.333333333 1209.66666667 440.333333333 1205.5 463 1200.5 c 128
 485.666666667 1195.5 509.666666667 1189.66666667 535 1183 c 1
 537.666666667 1179.66666667 540.333333333 1175.5 543 1170.5 c 128
 545.666666667 1165.5 547 1160.33333333 547 1155 c 1
 488 928 l 1
EndSplineSet
EndChar
StartChar: three-ar
Encoding: 1635 1635 39
AltUni2: 0006f3.ffffffff.0
Width: 414
GlyphClass: 2
LayerCount: 2
Back
SplineSet
391.6015625 574.70703125 m 1,0,1
 389.16015625 548.33984375 389.16015625 548.33984375 385.25390625 522.705078125 c 128,-1,2
 381.34765625 497.0703125 381.34765625 497.0703125 375.9765625 471.6796875 c 0,3,4
 370.1171875 445.3125 370.1171875 445.3125 358.88671875 425.537109375 c 128,-1,5
 347.65625 405.76171875 347.65625 405.76171875 332.03125 391.11328125 c 1,6,-1
 332.03125 391.6015625 l 1,7,8
 317.3828125 378.41796875 317.3828125 378.41796875 292.96875 369.140625 c 0,9,10
 287.59765625 366.69921875 287.59765625 366.69921875 281.982421875 365.478515625 c 128,-1,11
 276.3671875 364.2578125 276.3671875 364.2578125 270.5078125 364.2578125 c 0,12,13
 254.8828125 364.2578125 254.8828125 364.2578125 239.2578125 373.53515625 c 0,14,15
 233.88671875 376.953125 233.88671875 376.953125 229.00390625 382.8125 c 1,16,-1
 221.19140625 375.48828125 l 1,17,-1
 218.26171875 372.55859375 l 1,18,19
 241.69921875 332.03125 241.69921875 332.03125 254.638671875 287.841796875 c 128,-1,20
 267.578125 243.65234375 267.578125 243.65234375 271.484375 194.82421875 c 0,21,22
 271.97265625 188.96484375 271.97265625 188.96484375 271.97265625 182.861328125 c 128,-1,23
 271.97265625 176.7578125 271.97265625 176.7578125 271.97265625 170.8984375 c 0,24,25
 271.97265625 87.40234375 271.97265625 87.40234375 224.609375 11.71875 c 0,26,27
 222.65625 8.30078125 222.65625 8.30078125 220.458984375 6.8359375 c 128,-1,28
 218.26171875 5.37109375 218.26171875 5.37109375 215.33203125 3.90625 c 0,29,30
 203.125 -2.9296875 203.125 -2.9296875 196.2890625 3.90625 c 0,31,32
 194.82421875 5.37109375 194.82421875 5.37109375 194.091796875 8.30078125 c 128,-1,33
 193.359375 11.23046875 193.359375 11.23046875 193.359375 13.18359375 c 0,34,35
 194.3359375 24.90234375 194.3359375 24.90234375 194.82421875 36.1328125 c 128,-1,36
 195.3125 47.36328125 195.3125 47.36328125 195.3125 57.6171875 c 0,37,38
 195.3125 92.7734375 195.3125 92.7734375 188.4765625 125.244140625 c 128,-1,39
 181.640625 157.71484375 181.640625 157.71484375 168.9453125 185.546875 c 1,40,41
 150.87890625 222.65625 150.87890625 222.65625 132.32421875 258.056640625 c 128,-1,42
 113.76953125 293.45703125 113.76953125 293.45703125 96.6796875 321.2890625 c 1,43,-1
 96.6796875 320.80078125 l 1,44,45
 86.42578125 336.9140625 86.42578125 336.9140625 76.171875 352.783203125 c 128,-1,46
 65.91796875 368.65234375 65.91796875 368.65234375 54.6875 384.27734375 c 0,47,48
 31.73828125 417.96875 31.73828125 417.96875 14.16015625 459.9609375 c 1,49,50
 25.390625 491.69921875 25.390625 491.69921875 37.59765625 523.193359375 c 128,-1,51
 49.8046875 554.6875 49.8046875 554.6875 63.96484375 584.9609375 c 0,52,53
 67.3828125 592.28515625 67.3828125 592.28515625 74.462890625 592.28515625 c 128,-1,54
 81.54296875 592.28515625 81.54296875 592.28515625 84.9609375 584.9609375 c 2,55,-1
 108.3984375 538.0859375 l 1,56,57
 118.65234375 516.11328125 118.65234375 516.11328125 137.20703125 503.41796875 c 0,58,59
 151.85546875 493.1640625 151.85546875 493.1640625 170.41015625 493.1640625 c 0,60,61
 179.6875 493.1640625 179.6875 493.1640625 189.94140625 496.09375 c 0,62,63
 205.56640625 500 205.56640625 500 217.28515625 506.8359375 c 128,-1,64
 229.00390625 513.671875 229.00390625 513.671875 235.83984375 521.97265625 c 0,65,66
 236.81640625 523.4375 236.81640625 523.4375 238.28125 527.587890625 c 128,-1,67
 239.74609375 531.73828125 239.74609375 531.73828125 242.1875 538.57421875 c 0,68,69
 244.62890625 545.8984375 244.62890625 545.8984375 247.0703125 551.513671875 c 128,-1,70
 249.51171875 557.12890625 249.51171875 557.12890625 251.953125 562.5 c 1,71,72
 254.39453125 565.91796875 254.39453125 565.91796875 257.8125 567.626953125 c 128,-1,73
 261.23046875 569.3359375 261.23046875 569.3359375 264.16015625 569.3359375 c 0,74,75
 274.4140625 569.3359375 274.4140625 569.3359375 277.34375 560.05859375 c 1,76,77
 279.78515625 555.17578125 279.78515625 555.17578125 279.78515625 549.8046875 c 2,78,-1
 279.78515625 545.41015625 l 1,79,80
 279.296875 542.96875 279.296875 542.96875 279.052734375 541.015625 c 128,-1,81
 278.80859375 539.0625 278.80859375 539.0625 278.80859375 538.57421875 c 0,82,83
 278.80859375 522.94921875 278.80859375 522.94921875 292.96875 520.01953125 c 0,84,85
 300.29296875 518.5546875 300.29296875 518.5546875 308.10546875 518.5546875 c 0,86,87
 324.21875 518.5546875 324.21875 518.5546875 336.42578125 527.83203125 c 1,88,-1
 335.9375 527.83203125 l 1,89,90
 354.00390625 542.96875 354.00390625 542.96875 359.375 564.453125 c 0,91,92
 360.3515625 566.89453125 360.3515625 566.89453125 361.572265625 571.2890625 c 128,-1,93
 362.79296875 575.68359375 362.79296875 575.68359375 365.234375 579.58984375 c 0,94,95
 368.1640625 584.47265625 368.1640625 584.47265625 372.55859375 587.158203125 c 128,-1,96
 376.953125 589.84375 376.953125 589.84375 378.90625 589.84375 c 0,97,98
 383.7890625 589.84375 383.7890625 589.84375 387.6953125 585.9375 c 128,-1,99
 391.6015625 582.03125 391.6015625 582.03125 391.6015625 575.68359375 c 2,100,-1
 391.6015625 574.70703125 l 1,0,1
EndSplineSet
Fore
SplineSet
379 590 m 0
 386 590 392 584 392 576 c 2
 392 575 l 1
 387 522 380 464 359 426 c 128
 352 413 342 401 332 391 c 1
 332 392 l 1
 320 381 296 364 271 364 c 0
 256 364 238 372 229 383 c 1
 225 380 221 377 218 373 c 1
 247 323 265 265 271 195 c 0
 271 191 272 187 272 183 c 128
 272 177 272 177 272 171 c 0
 272 115 257 62 225 12 c 0
 220 3 193 -8 193 13 c 0
 194 27 195 43 195 58 c 0
 195 107 185 151 169 186 c 1
 147 231 122 281 97 321 c 1
 97 321 l 1
 68 367 37 406 14 460 c 1
 29 503 45 545 64 585 c 0
 66 590 69 592 74 592 c 128
 79 592 83 590 85 585 c 2
 108 538 l 1
 119 515 139 493 170 493 c 0
 197 493 231 508 238 528 c 128
 243 541 247 569 264 569 c 0
 274 569 280 560 280 550 c 2
 280 545 l 2
 280 543 279 541 279 539 c 0
 279 522 291 519 308 519 c 0
 319 519 328 522 336 528 c 1
 336 528 l 1
 350 540 357 553 362 571 c 128
 364 578 371 590 379 590 c 0
EndSplineSet
EndChar
StartChar: uni0663
Encoding: 1635 1635 39
AltUni2: 0006f3.ffffffff.0
Width: 848
GlyphClass: 2
LayerCount: 2
Back
SplineSet
802 1177 m 1,0,1
 797 1123 797 1123 789 1070.5 c 128,-1,2
 781 1018 781 1018 770 966 c 0,3,4
 758 912 758 912 735 871.5 c 128,-1,5
 712 831 712 831 680 801 c 1,6,-1
 680 802 l 1,7,8
 650 775 650 775 600 756 c 0,9,10
 589 751 589 751 577.5 748.5 c 128,-1,11
 566 746 566 746 554 746 c 0,12,13
 522 746 522 746 490 765 c 0,14,15
 479 772 479 772 469 784 c 1,16,-1
 453 769 l 1,17,-1
 447 763 l 1,18,19
 495 680 495 680 521.5 589.5 c 128,-1,20
 548 499 548 499 556 399 c 0,21,22
 557 387 557 387 557 374.5 c 128,-1,23
 557 362 557 362 557 350 c 0,24,25
 557 179 557 179 460 24 c 0,26,27
 456 17 456 17 451.5 14 c 128,-1,28
 447 11 447 11 441 8 c 0,29,30
 416 -6 416 -6 402 8 c 0,31,32
 399 11 399 11 397.5 17 c 128,-1,33
 396 23 396 23 396 27 c 0,34,35
 398 51 398 51 399 74 c 128,-1,36
 400 97 400 97 400 118 c 0,37,38
 400 190 400 190 386 256.5 c 128,-1,39
 372 323 372 323 346 380 c 1,40,41
 309 456 309 456 271 528.5 c 128,-1,42
 233 601 233 601 198 658 c 1,43,-1
 198 657 l 1,44,45
 177 690 177 690 156 722.5 c 128,-1,46
 135 755 135 755 112 787 c 0,47,48
 65 856 65 856 29 942 c 1,49,50
 52 1007 52 1007 77 1071.5 c 128,-1,51
 102 1136 102 1136 131 1198 c 0,52,53
 138 1213 138 1213 152.5 1213 c 128,-1,54
 167 1213 167 1213 174 1198 c 2,55,-1
 222 1102 l 1,56,57
 243 1057 243 1057 281 1031 c 0,58,59
 311 1010 311 1010 349 1010 c 0,60,61
 368 1010 368 1010 389 1016 c 0,62,63
 421 1024 421 1024 445 1038 c 128,-1,64
 469 1052 469 1052 483 1069 c 0,65,66
 485 1072 485 1072 488 1080.5 c 128,-1,67
 491 1089 491 1089 496 1103 c 0,68,69
 501 1118 501 1118 506 1129.5 c 128,-1,70
 511 1141 511 1141 516 1152 c 1,71,72
 521 1159 521 1159 528 1162.5 c 128,-1,73
 535 1166 535 1166 541 1166 c 0,74,75
 562 1166 562 1166 568 1147 c 1,76,77
 573 1137 573 1137 573 1126 c 2,78,-1
 573 1117 l 1,79,80
 572 1112 572 1112 571.5 1108 c 128,-1,81
 571 1104 571 1104 571 1103 c 0,82,83
 571 1071 571 1071 600 1065 c 0,84,85
 615 1062 615 1062 631 1062 c 0,86,87
 664 1062 664 1062 689 1081 c 1,88,-1
 688 1081 l 1,89,90
 725 1112 725 1112 736 1156 c 0,91,92
 738 1161 738 1161 740.5 1170 c 128,-1,93
 743 1179 743 1179 748 1187 c 0,94,95
 754 1197 754 1197 763 1202.5 c 128,-1,96
 772 1208 772 1208 776 1208 c 0,97,98
 786 1208 786 1208 794 1200 c 128,-1,99
 802 1192 802 1192 802 1179 c 2,100,-1
 802 1177 l 1,0,1
EndSplineSet
Fore
SplineSet
802 1177 m 1
 798.666666667 1141 794.333333333 1105.5 789 1070.5 c 128
 783.666666667 1035.5 777.333333333 1000.66666667 770 966 c 0
 762 930 750.333333333 898.5 735 871.5 c 128
 719.666666667 844.5 701.333333333 821 680 801 c 1
 680 802 l 1
 660 784 633.333333333 768.666666667 600 756 c 0
 592.666666667 752.666666667 585.166666667 750.166666667 577.5 748.5 c 128
 569.833333333 746.833333333 562 746 554 746 c 0
 532.666666667 746 511.333333333 752.333333333 490 765 c 0
 482.666666667 769.666666667 475.666666667 776 469 784 c 1
 453 769 l 1
 447 763 l 1
 479 707.666666667 503.833333333 649.833333333 521.5 589.5 c 128
 539.166666667 529.166666667 550.666666667 465.666666667 556 399 c 0
 556.666666667 391 557 382.833333333 557 374.5 c 128
 557 362 557 362 557 350 c 0
 557 236 524.666666667 127.333333333 460 24 c 0
 457.333333333 19.3333333333 454.5 16 451.5 14 c 128
 448.5 12 445 10 441 8 c 0
 424.333333333 -1.33333333333 411.333333333 -1.33333333333 402 8 c 0
 400 10 398.5 13 397.5 17 c 128
 396.5 21 396 24.3333333333 396 27 c 0
 397.333333333 43 398.333333333 58.6666666667 399 74 c 128
 399.666666667 89.3333333333 400 104 400 118 c 0
 400 166 395.333333333 212.166666667 386 256.5 c 128
 376.666666667 300.833333333 363.333333333 342 346 380 c 1
 321.333333333 430.666666667 296.333333333 480.166666667 271 528.5 c 128
 245.666666667 576.833333333 221.333333333 620 198 658 c 1
 198 657 l 1
 184 679 170 700.833333333 156 722.5 c 128
 142 744.166666667 127.333333333 765.666666667 112 787 c 0
 80.6666666667 833 53 884.666666667 29 942 c 1
 44.3333333333 985.333333333 60.3333333333 1028.5 77 1071.5 c 128
 93.6666666667 1114.5 111.666666667 1156.66666667 131 1198 c 0
 135.666666667 1208 142.833333333 1213 152.5 1213 c 128
 162.166666667 1213 169.333333333 1208 174 1198 c 2
 222 1102 l 1
 236 1072 255.666666667 1048.33333333 281 1031 c 0
 301 1017 323.666666667 1010 349 1010 c 0
 361.666666667 1010 375 1012 389 1016 c 0
 410.333333333 1021.33333333 429 1028.66666667 445 1038 c 128
 461 1047.33333333 473.666666667 1057.66666667 483 1069 c 0
 484.333333333 1071 486 1074.83333333 488 1080.5 c 128
 490 1086.16666667 492.666666667 1093.66666667 496 1103 c 0
 499.333333333 1113 502.666666667 1121.83333333 506 1129.5 c 128
 509.333333333 1137.16666667 512.666666667 1144.66666667 516 1152 c 1
 519.333333333 1156.66666667 523.333333333 1160.16666667 528 1162.5 c 128
 532.666666667 1164.83333333 537 1166 541 1166 c 0
 555 1166 564 1159.66666667 568 1147 c 1
 571.333333333 1140.33333333 573 1133.33333333 573 1126 c 2
 573 1117 l 1
 572.333333333 1113.66666667 571.833333333 1110.66666667 571.5 1108 c 128
 571.166666667 1105.33333333 571 1103.66666667 571 1103 c 0
 571 1081.66666667 580.666666667 1069 600 1065 c 0
 610 1063 620.333333333 1062 631 1062 c 0
 653 1062 672.333333333 1068.33333333 689 1081 c 1
 688 1081 l 1
 712.666666667 1101.66666667 728.666666667 1126.66666667 736 1156 c 0
 737.333333333 1159.33333333 738.833333333 1164 740.5 1170 c 128
 742.166666667 1176 744.666666667 1181.66666667 748 1187 c 0
 752 1193.66666667 757 1198.83333333 763 1202.5 c 128
 769 1206.16666667 773.333333333 1208 776 1208 c 0
 782.666666667 1208 788.666666667 1205.33333333 794 1200 c 128
 799.333333333 1194.66666667 802 1187.66666667 802 1179 c 2
 802 1177 l 1
EndSplineSet
EndChar
StartChar: four-ar
Encoding: 1636 1636 40
Width: 358
GlyphClass: 2
LayerCount: 2
Back
SplineSet
335.44921875 149.90234375 m 1,0,1
 328.61328125 138.18359375 328.61328125 138.18359375 322.021484375 126.708984375 c 128,-1,2
 315.4296875 115.234375 315.4296875 115.234375 308.59375 102.5390625 c 0,3,4
 300.29296875 86.9140625 300.29296875 86.9140625 291.50390625 71.2890625 c 128,-1,5
 282.71484375 55.6640625 282.71484375 55.6640625 273.4375 41.50390625 c 1,6,7
 234.375 4.8828125 234.375 4.8828125 159.66796875 0.9765625 c 0,8,9
 156.25 0.48828125 156.25 0.48828125 152.34375 0.48828125 c 128,-1,10
 148.4375 0.48828125 148.4375 0.48828125 145.01953125 0.48828125 c 0,11,12
 113.28125 0.48828125 113.28125 0.48828125 87.646484375 9.033203125 c 128,-1,13
 62.01171875 17.578125 62.01171875 17.578125 42.48046875 33.203125 c 0,14,15
 26.3671875 46.38671875 26.3671875 46.38671875 20.5078125 73.73046875 c 1,16,-1
 20.5078125 72.265625 l 1,17,18
 19.04296875 76.171875 19.04296875 76.171875 18.5546875 80.56640625 c 128,-1,19
 18.06640625 84.9609375 18.06640625 84.9609375 18.06640625 89.35546875 c 0,20,21
 18.06640625 108.3984375 18.06640625 108.3984375 27.34375 122.55859375 c 1,22,-1
 27.34375 122.0703125 l 1,23,-1
 42.96875 148.4375 l 1,24,-1
 42.48046875 148.4375 l 1,25,26
 54.6875 168.9453125 54.6875 168.9453125 66.40625 190.4296875 c 128,-1,27
 78.125 211.9140625 78.125 211.9140625 86.9140625 236.81640625 c 1,28,29
 79.1015625 254.8828125 79.1015625 254.8828125 66.40625 260.7421875 c 1,30,31
 56.640625 266.11328125 56.640625 266.11328125 48.33984375 270.99609375 c 128,-1,32
 40.0390625 275.87890625 40.0390625 275.87890625 33.69140625 281.73828125 c 0,33,34
 17.578125 296.38671875 17.578125 296.38671875 17.578125 322.75390625 c 0,35,36
 17.578125 346.19140625 17.578125 346.19140625 45.41015625 398.92578125 c 0,37,38
 58.10546875 422.36328125 58.10546875 422.36328125 72.75390625 446.533203125 c 128,-1,39
 87.40234375 470.703125 87.40234375 470.703125 104.4921875 495.60546875 c 0,40,41
 139.16015625 545.8984375 139.16015625 545.8984375 189.453125 578.125 c 0,42,43
 200.1953125 584.47265625 200.1953125 584.47265625 214.35546875 589.35546875 c 0,44,45
 218.26171875 590.8203125 218.26171875 590.8203125 221.923828125 589.35546875 c 128,-1,46
 225.5859375 587.890625 225.5859375 587.890625 227.783203125 585.205078125 c 128,-1,47
 229.98046875 582.51953125 229.98046875 582.51953125 230.224609375 578.61328125 c 128,-1,48
 230.46875 574.70703125 230.46875 574.70703125 228.02734375 571.2890625 c 0,49,50
 217.28515625 556.15234375 217.28515625 556.15234375 209.716796875 539.0625 c 128,-1,51
 202.1484375 521.97265625 202.1484375 521.97265625 194.82421875 504.39453125 c 1,52,-1
 194.82421875 504.8828125 l 1,53,54
 192.3828125 498.53515625 192.3828125 498.53515625 188.4765625 490.478515625 c 128,-1,55
 184.5703125 482.421875 184.5703125 482.421875 182.12890625 476.07421875 c 1,56,57
 170.8984375 467.7734375 170.8984375 467.7734375 160.15625 460.693359375 c 128,-1,58
 149.4140625 453.61328125 149.4140625 453.61328125 138.671875 448.2421875 c 0,59,60
 119.62890625 437.98828125 119.62890625 437.98828125 113.28125 419.43359375 c 0,61,62
 112.79296875 418.45703125 112.79296875 418.45703125 112.79296875 416.015625 c 0,63,64
 112.79296875 413.0859375 112.79296875 413.0859375 117.67578125 411.1328125 c 1,65,66
 184.08203125 370.1171875 184.08203125 370.1171875 184.08203125 325.68359375 c 0,67,68
 184.08203125 317.87109375 184.08203125 317.87109375 182.373046875 311.03515625 c 128,-1,69
 180.6640625 304.19921875 180.6640625 304.19921875 177.24609375 296.875 c 0,70,71
 151.85546875 246.58203125 151.85546875 246.58203125 112.79296875 183.10546875 c 1,72,73
 117.1875 166.015625 117.1875 166.015625 134.765625 156.73828125 c 0,74,75
 145.99609375 150.87890625 145.99609375 150.87890625 157.958984375 147.216796875 c 128,-1,76
 169.921875 143.5546875 169.921875 143.5546875 183.10546875 141.11328125 c 0,77,78
 200.68359375 138.18359375 200.68359375 138.18359375 214.35546875 138.18359375 c 0,79,80
 232.91015625 138.18359375 232.91015625 138.18359375 252.9296875 143.5546875 c 1,81,82
 269.53125 147.4609375 269.53125 147.4609375 284.912109375 154.296875 c 128,-1,83
 300.29296875 161.1328125 300.29296875 161.1328125 314.94140625 169.921875 c 1,84,-1
 320.80078125 169.921875 l 2,85,86
 322.265625 169.921875 322.265625 169.921875 325.439453125 169.189453125 c 128,-1,87
 328.61328125 168.45703125 328.61328125 168.45703125 332.03125 166.015625 c 1,88,-1
 335.44921875 149.90234375 l 1,0,1
EndSplineSet
Fore
SplineSet
214 138 m 0
 254 138 289 154 315 170 c 1
 321 170 l 2
 325 170 329 168 332 166 c 1
 335 150 l 1
 314 115 295 76 273 42 c 1
 247 17 204 0 152 0 c 128
 148 0 148 0 145 0 c 0
 101 0 67 13 42 33 c 0
 31 42 25 56 21 74 c 1
 21 72 l 1
 19 77 18 83 18 89 c 0
 18 102 21 114 27 123 c 1
 27 122 l 1
 43 148 l 1
 42 148 l 1
 59 176 75 204 87 237 c 1
 82 249 74 257 66 261 c 1
 42 274 18 286 18 323 c 0
 18 350 55 418 73 447 c 128
 83 463 93 479 104 496 c 0
 127 530 155 557 189 578 c 0
 196 582 205 586 214 589 c 0
 225 593 235 580 228 571 c 0
 211 547 201 518 188 490 c 128
 185 485 184 480 182 476 c 1
 168 466 155 456 139 448 c 0
 128 442 113 430 113 416 c 0
 113 414 115 412 118 411 c 1
 162 384 184 356 184 326 c 0
 184 314 181 306 177 297 c 0
 160 263 139 225 113 183 c 1
 121 150 173 138 214 138 c 0
EndSplineSet
EndChar
StartChar: uni0664
Encoding: 1636 1636 40
Width: 734
GlyphClass: 2
LayerCount: 2
Back
SplineSet
687 307 m 1,0,1
 673 283 673 283 659.5 259.5 c 128,-1,2
 646 236 646 236 632 210 c 0,3,4
 615 178 615 178 597 146 c 128,-1,5
 579 114 579 114 560 85 c 1,6,7
 480 10 480 10 327 2 c 0,8,9
 320 1 320 1 312 1 c 128,-1,10
 304 1 304 1 297 1 c 0,11,12
 232 1 232 1 179.5 18.5 c 128,-1,13
 127 36 127 36 87 68 c 0,14,15
 54 95 54 95 42 151 c 1,16,-1
 42 148 l 1,17,18
 39 156 39 156 38 165 c 128,-1,19
 37 174 37 174 37 183 c 0,20,21
 37 222 37 222 56 251 c 1,22,-1
 56 250 l 1,23,-1
 88 304 l 1,24,-1
 87 304 l 1,25,26
 112 346 112 346 136 390 c 128,-1,27
 160 434 160 434 178 485 c 1,28,29
 162 522 162 522 136 534 c 1,30,31
 116 545 116 545 99 555 c 128,-1,32
 82 565 82 565 69 577 c 0,33,34
 36 607 36 607 36 661 c 0,35,36
 36 709 36 709 93 817 c 0,37,38
 119 865 119 865 149 914.5 c 128,-1,39
 179 964 179 964 214 1015 c 0,40,41
 285 1118 285 1118 388 1184 c 0,42,43
 410 1197 410 1197 439 1207 c 0,44,45
 447 1210 447 1210 454.5 1207 c 128,-1,46
 462 1204 462 1204 466.5 1198.5 c 128,-1,47
 471 1193 471 1193 471.5 1185 c 128,-1,48
 472 1177 472 1177 467 1170 c 0,49,50
 445 1139 445 1139 429.5 1104 c 128,-1,51
 414 1069 414 1069 399 1033 c 1,52,-1
 399 1034 l 1,53,54
 394 1021 394 1021 386 1004.5 c 128,-1,55
 378 988 378 988 373 975 c 1,56,57
 350 958 350 958 328 943.5 c 128,-1,58
 306 929 306 929 284 918 c 0,59,60
 245 897 245 897 232 859 c 0,61,62
 231 857 231 857 231 852 c 0,63,64
 231 846 231 846 241 842 c 1,65,66
 377 758 377 758 377 667 c 0,67,68
 377 651 377 651 373.5 637 c 128,-1,69
 370 623 370 623 363 608 c 0,70,71
 311 505 311 505 231 375 c 1,72,73
 240 340 240 340 276 321 c 0,74,75
 299 309 299 309 323.5 301.5 c 128,-1,76
 348 294 348 294 375 289 c 0,77,78
 411 283 411 283 439 283 c 0,79,80
 477 283 477 283 518 294 c 1,81,82
 552 302 552 302 583.5 316 c 128,-1,83
 615 330 615 330 645 348 c 1,84,-1
 657 348 l 2,85,86
 660 348 660 348 666.5 346.5 c 128,-1,87
 673 345 673 345 680 340 c 1,88,-1
 687 307 l 1,0,1
EndSplineSet
Fore
SplineSet
687 307 m 1
 677.666666667 291 668.5 275.166666667 659.5 259.5 c 128
 650.5 243.833333333 641.333333333 227.333333333 632 210 c 0
 620.666666667 188.666666667 609 167.333333333 597 146 c 128
 585 124.666666667 572.666666667 104.333333333 560 85 c 1
 506.666666667 35 429 7.33333333333 327 2 c 0
 322.333333333 1.33333333333 317.333333333 1 312 1 c 128
 304 1 304 1 297 1 c 0
 253.666666667 1 214.5 6.83333333333 179.5 18.5 c 128
 144.5 30.1666666667 113.666666667 46.6666666667 87 68 c 0
 65 86 50 113.666666667 42 151 c 1
 42 148 l 1
 40 153.333333333 38.6666666667 159 38 165 c 128
 37.3333333333 171 37 177 37 183 c 0
 37 209 43.3333333333 231.666666667 56 251 c 1
 56 250 l 1
 88 304 l 1
 87 304 l 1
 103.666666667 332 120 360.666666667 136 390 c 128
 152 419.333333333 166 451 178 485 c 1
 167.333333333 509.666666667 153.333333333 526 136 534 c 1
 122.666666667 541.333333333 110.333333333 548.333333333 99 555 c 128
 87.6666666667 561.666666667 77.6666666667 569 69 577 c 0
 47 597 36 625 36 661 c 0
 36 693 55 745 93 817 c 0
 110.333333333 849 129 881.5 149 914.5 c 128
 169 947.5 190.666666667 981 214 1015 c 0
 261.333333333 1083.66666667 319.333333333 1140 388 1184 c 0
 402.666666667 1192.66666667 419.666666667 1200.33333333 439 1207 c 0
 444.333333333 1209 449.5 1209 454.5 1207 c 128
 459.5 1205 463.5 1202.16666667 466.5 1198.5 c 128
 469.5 1194.83333333 471.166666667 1190.33333333 471.5 1185 c 128
 471.833333333 1179.66666667 470.333333333 1174.66666667 467 1170 c 0
 452.333333333 1149.33333333 439.833333333 1127.33333333 429.5 1104 c 128
 419.166666667 1080.66666667 409 1057 399 1033 c 1
 399 1034 l 1
 395.666666667 1025.33333333 391.333333333 1015.5 386 1004.5 c 128
 380.666666667 993.5 376.333333333 983.666666667 373 975 c 1
 357.666666667 963.666666667 342.666666667 953.166666667 328 943.5 c 128
 313.333333333 933.833333333 298.666666667 925.333333333 284 918 c 0
 258 904 240.666666667 884.333333333 232 859 c 0
 231.333333333 857.666666667 231 855.333333333 231 852 c 0
 231 848 234.333333333 844.666666667 241 842 c 1
 331.666666667 786 377 727.666666667 377 667 c 0
 377 656.333333333 375.833333333 646.333333333 373.5 637 c 128
 371.166666667 627.666666667 367.666666667 618 363 608 c 0
 328.333333333 539.333333333 284.333333333 461.666666667 231 375 c 1
 237 351.666666667 252 333.666666667 276 321 c 0
 291.333333333 313 307.166666667 306.5 323.5 301.5 c 128
 339.833333333 296.5 357 292.333333333 375 289 c 0
 399 285 420.333333333 283 439 283 c 0
 464.333333333 283 490.666666667 286.666666667 518 294 c 1
 540.666666667 299.333333333 562.5 306.666666667 583.5 316 c 128
 604.5 325.333333333 625 336 645 348 c 1
 657 348 l 2
 659 348 662.166666667 347.5 666.5 346.5 c 128
 670.833333333 345.5 675.333333333 343.333333333 680 340 c 1
 687 307 l 1
EndSplineSet
EndChar
StartChar: five-ar
Encoding: 1637 1637 41
Width: 338
GlyphClass: 2
LayerCount: 2
Back
SplineSet
239.2578125 179.6875 m 1,0,-1
 239.2578125 180.17578125 l 1,1,-1
 239.2578125 179.6875 l 1,0,-1
186.03515625 161.1328125 m 0,2,3
 236.81640625 172.8515625 236.81640625 172.8515625 239.2578125 180.17578125 c 1,4,5
 235.3515625 193.84765625 235.3515625 193.84765625 228.02734375 212.890625 c 128,-1,6
 220.703125 231.93359375 220.703125 231.93359375 209.47265625 257.8125 c 0,7,8
 199.70703125 281.25 199.70703125 281.25 188.96484375 297.607421875 c 128,-1,9
 178.22265625 313.96484375 178.22265625 313.96484375 168.45703125 321.77734375 c 1,10,11
 160.64453125 327.1484375 160.64453125 327.1484375 155.2734375 327.1484375 c 0,12,13
 149.4140625 327.1484375 149.4140625 327.1484375 141.6015625 320.3125 c 0,14,15
 132.32421875 312.01171875 132.32421875 312.01171875 120.60546875 291.748046875 c 128,-1,16
 108.88671875 271.484375 108.88671875 271.484375 93.75 239.2578125 c 0,17,18
 86.42578125 223.6328125 86.42578125 223.6328125 82.763671875 211.669921875 c 128,-1,19
 79.1015625 199.70703125 79.1015625 199.70703125 79.1015625 189.94140625 c 0,20,21
 79.1015625 176.7578125 79.1015625 176.7578125 88.37890625 170.8984375 c 0,22,23
 110.3515625 156.25 110.3515625 156.25 143.06640625 156.25 c 0,24,25
 152.83203125 156.25 152.83203125 156.25 163.818359375 157.470703125 c 128,-1,26
 174.8046875 158.69140625 174.8046875 158.69140625 186.03515625 161.1328125 c 0,2,3
227.5390625 45.41015625 m 1,27,28
 198.73046875 14.16015625 198.73046875 14.16015625 138.671875 2.44140625 c 0,29,30
 124.0234375 -0.48828125 124.0234375 -0.48828125 107.91015625 -0.48828125 c 0,31,32
 65.4296875 -0.48828125 65.4296875 -0.48828125 37.59765625 25.87890625 c 0,33,34
 18.5546875 43.45703125 18.5546875 43.45703125 18.5546875 86.9140625 c 0,35,36
 18.5546875 91.30859375 18.5546875 91.30859375 18.798828125 96.923828125 c 128,-1,37
 19.04296875 102.5390625 19.04296875 102.5390625 19.53125 107.91015625 c 0,38,39
 23.92578125 161.1328125 23.92578125 161.1328125 39.55078125 227.5390625 c 0,40,41
 47.36328125 259.27734375 47.36328125 259.27734375 56.15234375 289.55078125 c 128,-1,42
 64.94140625 319.82421875 64.94140625 319.82421875 74.70703125 348.6328125 c 0,43,44
 95.703125 408.69140625 95.703125 408.69140625 105.46875 430.17578125 c 1,45,-1
 105.46875 429.6875 l 1,46,47
 135.7421875 494.62890625 135.7421875 494.62890625 171.875 494.62890625 c 0,48,49
 190.91796875 494.62890625 190.91796875 494.62890625 210.44921875 475.09765625 c 0,50,51
 256.8359375 427.24609375 256.8359375 427.24609375 286.1328125 355.95703125 c 1,52,53
 297.36328125 326.66015625 297.36328125 326.66015625 303.22265625 298.095703125 c 128,-1,54
 309.08203125 269.53125 309.08203125 269.53125 309.08203125 241.2109375 c 0,55,56
 309.08203125 228.515625 309.08203125 228.515625 308.10546875 216.30859375 c 128,-1,57
 307.12890625 204.1015625 307.12890625 204.1015625 305.17578125 192.3828125 c 0,58,59
 291.50390625 112.3046875 291.50390625 112.3046875 227.5390625 45.41015625 c 1,27,28
EndSplineSet
Fore
SplineSet
239 180 m 1
 239 180 l 1
 239 180 l 1
79 190 m 0
 79 163 117 156 143 156 c 0
 174 156 236 172 239 180 c 1
 231 206 221 230 209 258 c 0
 199 283 185 308 168 322 c 0
 163 326 159 327 155 327 c 0
 151 327 147 325 142 320 c 0
 136 314 129 306 121 292 c 128
 111 274 91 237 83 212 c 128
 81 204 79 197 79 190 c 0
228 45 m 1
 206 21 160 0 108 -0 c 0
 80 0 57 8 38 26 c 0
 25 38 19 58 19 87 c 0
 19 153 39 230 56 290 c 128
 68 330 95 407 105 430 c 0
 125 473 148 495 172 495 c 0
 185 495 197 488 210 475 c 0
 241 443 266 404 286 356 c 1
 299 322 309 285 309 241 c 0
 309 224 308 207 305 192 c 0
 296 139 271 90 228 45 c 1
EndSplineSet
EndChar
StartChar: uni0665
Encoding: 1637 1637 41
Width: 694
GlyphClass: 2
LayerCount: 2
Back
SplineSet
490 368 m 1,0,-1
 490 369 l 1,1,-1
 490 368 l 1,0,-1
381 330 m 0,2,3
 485 354 485 354 490 369 c 1,4,5
 482 397 482 397 467 436 c 128,-1,6
 452 475 452 475 429 528 c 0,7,8
 409 576 409 576 387 609.5 c 128,-1,9
 365 643 365 643 345 659 c 1,10,11
 329 670 329 670 318 670 c 0,12,13
 306 670 306 670 290 656 c 0,14,15
 271 639 271 639 247 597.5 c 128,-1,16
 223 556 223 556 192 490 c 0,17,18
 177 458 177 458 169.5 433.5 c 128,-1,19
 162 409 162 409 162 389 c 0,20,21
 162 362 162 362 181 350 c 0,22,23
 226 320 226 320 293 320 c 0,24,25
 313 320 313 320 335.5 322.5 c 128,-1,26
 358 325 358 325 381 330 c 0,2,3
466 93 m 1,27,28
 407 29 407 29 284 5 c 0,29,30
 254 -1 254 -1 221 -1 c 0,31,32
 134 -1 134 -1 77 53 c 0,33,34
 38 89 38 89 38 178 c 0,35,36
 38 187 38 187 38.5 198.5 c 128,-1,37
 39 210 39 210 40 221 c 0,38,39
 49 330 49 330 81 466 c 0,40,41
 97 531 97 531 115 593 c 128,-1,42
 133 655 133 655 153 714 c 0,43,44
 196 837 196 837 216 881 c 1,45,-1
 216 880 l 1,46,47
 278 1013 278 1013 352 1013 c 0,48,49
 391 1013 391 1013 431 973 c 0,50,51
 526 875 526 875 586 729 c 1,52,53
 609 669 609 669 621 610.5 c 128,-1,54
 633 552 633 552 633 494 c 0,55,56
 633 468 633 468 631 443 c 128,-1,57
 629 418 629 418 625 394 c 0,58,59
 597 230 597 230 466 93 c 1,27,28
EndSplineSet
Fore
SplineSet
490 368 m 1
 490 369 l 1
 490 368 l 1
381 330 m 0
 450.333333333 346 486.666666667 359 490 369 c 1
 484.666666667 387.666666667 477 410 467 436 c 128
 457 462 444.333333333 492.666666667 429 528 c 0
 415.666666667 560 401.666666667 587.166666667 387 609.5 c 128
 372.333333333 631.833333333 358.333333333 648.333333333 345 659 c 1
 334.333333333 666.333333333 325.333333333 670 318 670 c 0
 310 670 300.666666667 665.333333333 290 656 c 0
 277.333333333 644.666666667 263 625.166666667 247 597.5 c 128
 231 569.833333333 212.666666667 534 192 490 c 0
 182 468.666666667 174.5 449.833333333 169.5 433.5 c 128
 164.5 417.166666667 162 402.333333333 162 389 c 0
 162 371 168.333333333 358 181 350 c 0
 211 330 248.333333333 320 293 320 c 0
 306.333333333 320 320.5 320.833333333 335.5 322.5 c 128
 350.5 324.166666667 365.666666667 326.666666667 381 330 c 0
466 93 m 1
 426.666666667 50.3333333333 366 21 284 5 c 0
 264 1 243 -1 221 -1 c 0
 163 -1 115 17 77 53 c 0
 51 77 38 118.666666667 38 178 c 0
 38 184 38.1666666667 190.833333333 38.5 198.5 c 128
 38.8333333333 206.166666667 39.3333333333 213.666666667 40 221 c 0
 46 293.666666667 59.6666666667 375.333333333 81 466 c 0
 91.6666666667 509.333333333 103 551.666666667 115 593 c 128
 127 634.333333333 139.666666667 674.666666667 153 714 c 0
 181.666666667 796 202.666666667 851.666666667 216 881 c 1
 216 880 l 1
 257.333333333 968.666666667 302.666666667 1013 352 1013 c 0
 378 1013 404.333333333 999.666666667 431 973 c 0
 494.333333333 907.666666667 546 826.333333333 586 729 c 1
 601.333333333 689 613 649.5 621 610.5 c 128
 629 571.5 633 532.666666667 633 494 c 0
 633 476.666666667 632.333333333 459.666666667 631 443 c 128
 629.666666667 426.333333333 627.666666667 410 625 394 c 0
 606.333333333 284.666666667 553.333333333 184.333333333 466 93 c 1
EndSplineSet
EndChar
StartChar: six-ar
Encoding: 1638 1638 42
Width: 379
GlyphClass: 2
LayerCount: 2
Back
SplineSet
355.95703125 138.671875 m 2,0,1
 356.93359375 137.20703125 356.93359375 137.20703125 357.421875 134.033203125 c 128,-1,2
 357.91015625 130.859375 357.91015625 130.859375 357.421875 129.39453125 c 0,3,4
 347.65625 97.65625 347.65625 97.65625 336.42578125 67.87109375 c 128,-1,5
 325.1953125 38.0859375 325.1953125 38.0859375 312.5 10.25390625 c 1,6,7
 310.05859375 6.34765625 310.05859375 6.34765625 306.396484375 3.90625 c 128,-1,8
 302.734375 1.46484375 302.734375 1.46484375 295.41015625 0.48828125 c 1,9,10
 283.203125 0.48828125 283.203125 0.48828125 278.3203125 10.7421875 c 1,11,12
 264.16015625 46.38671875 264.16015625 46.38671875 252.44140625 89.35546875 c 128,-1,13
 240.72265625 132.32421875 240.72265625 132.32421875 233.88671875 174.8046875 c 0,14,15
 229.98046875 201.171875 229.98046875 201.171875 227.5390625 229.736328125 c 128,-1,16
 225.09765625 258.30078125 225.09765625 258.30078125 225.09765625 287.59765625 c 0,17,18
 225.09765625 307.12890625 225.09765625 307.12890625 226.318359375 328.61328125 c 128,-1,19
 227.5390625 350.09765625 227.5390625 350.09765625 229.00390625 370.60546875 c 0,20,21
 229.00390625 373.53515625 229.00390625 373.53515625 229.248046875 378.173828125 c 128,-1,22
 229.4921875 382.8125 229.4921875 382.8125 230.46875 386.23046875 c 1,23,-1
 230.46875 387.20703125 l 1,24,25
 169.43359375 389.6484375 169.43359375 389.6484375 121.337890625 404.296875 c 128,-1,26
 73.2421875 418.9453125 73.2421875 418.9453125 32.2265625 440.91796875 c 1,27,28
 19.04296875 448.73046875 19.04296875 448.73046875 19.04296875 462.890625 c 0,29,30
 19.04296875 469.7265625 19.04296875 469.7265625 22.94921875 479.98046875 c 2,31,-1
 38.0859375 517.578125 l 2,32,33
 44.921875 533.69140625 44.921875 533.69140625 50.78125 549.8046875 c 128,-1,34
 56.640625 565.91796875 56.640625 565.91796875 62.01171875 581.54296875 c 0,35,36
 63.96484375 587.40234375 63.96484375 587.40234375 69.091796875 589.35546875 c 128,-1,37
 74.21875 591.30859375 74.21875 591.30859375 79.1015625 588.37890625 c 0,38,39
 101.5625 575.68359375 101.5625 575.68359375 126.46484375 565.673828125 c 128,-1,40
 151.3671875 555.6640625 151.3671875 555.6640625 179.19921875 548.33984375 c 1,41,42
 202.1484375 541.50390625 202.1484375 541.50390625 228.02734375 538.57421875 c 128,-1,43
 253.90625 535.64453125 253.90625 535.64453125 283.203125 535.64453125 c 0,44,45
 288.57421875 535.64453125 288.57421875 535.64453125 293.45703125 535.64453125 c 128,-1,46
 298.33984375 535.64453125 298.33984375 535.64453125 303.7109375 536.1328125 c 0,47,48
 310.05859375 536.62109375 310.05859375 536.62109375 313.720703125 532.470703125 c 128,-1,49
 317.3828125 528.3203125 317.3828125 528.3203125 316.40625 522.4609375 c 0,50,51
 306.15234375 457.03125 306.15234375 457.03125 306.15234375 391.6015625 c 0,52,53
 306.15234375 373.53515625 306.15234375 373.53515625 306.884765625 355.224609375 c 128,-1,54
 307.6171875 336.9140625 307.6171875 336.9140625 309.5703125 318.359375 c 1,55,56
 317.3828125 213.37890625 317.3828125 213.37890625 352.05078125 145.01953125 c 1,57,-1
 351.5625 146.484375 l 1,58,-1
 355.95703125 138.671875 l 2,0,1
EndSplineSet
Fore
SplineSet
229 371 m 0
 229 376 229 382 230 386 c 1
 230 387 l 1
 148 390 87 411 32 441 c 0
 23 446 19 454 19 463 c 0
 19 468 20 473 23 480 c 2
 38 518 l 2
 47 539 55 560 62 582 c 0
 64 588 71 593 79 588 c 0
 109 571 142 558 179 548 c 1
 209 539 244 536 283 536 c 0
 288 536 288 536 293 536 c 128
 305 536 318 537 316 522 c 0
 309 478 306 436 306 392 c 0
 306 367 308 342 310 318 c 1
 315 248 329 191 352 145 c 1
 352 146 l 1
 354 142 359 136 357 129 c 0
 344 87 329 47 312 10 c 0
 308 4 304 1 295 0 c 1
 287 0 281 4 278 11 c 1
 247 89 225 181 225 288 c 0
 225 315 227 345 229 371 c 0
EndSplineSet
EndChar
StartChar: uni0666
Encoding: 1638 1638 42
Width: 777
GlyphClass: 2
LayerCount: 2
Back
SplineSet
729 284 m 2,0,1
 731 281 731 281 732 274.5 c 128,-1,2
 733 268 733 268 732 265 c 0,3,4
 712 200 712 200 689 139 c 128,-1,5
 666 78 666 78 640 21 c 1,6,7
 635 13 635 13 627.5 8 c 128,-1,8
 620 3 620 3 605 1 c 1,9,10
 580 1 580 1 570 22 c 1,11,12
 541 95 541 95 517 183 c 128,-1,13
 493 271 493 271 479 358 c 0,14,15
 471 412 471 412 466 470.5 c 128,-1,16
 461 529 461 529 461 589 c 0,17,18
 461 629 461 629 463.5 673 c 128,-1,19
 466 717 466 717 469 759 c 0,20,21
 469 765 469 765 469.5 774.5 c 128,-1,22
 470 784 470 784 472 791 c 1,23,-1
 472 793 l 1,24,25
 347 798 347 798 248.5 828 c 128,-1,26
 150 858 150 858 66 903 c 1,27,28
 39 919 39 919 39 948 c 0,29,30
 39 962 39 962 47 983 c 2,31,-1
 78 1060 l 2,32,33
 92 1093 92 1093 104 1126 c 128,-1,34
 116 1159 116 1159 127 1191 c 0,35,36
 131 1203 131 1203 141.5 1207 c 128,-1,37
 152 1211 152 1211 162 1205 c 0,38,39
 208 1179 208 1179 259 1158.5 c 128,-1,40
 310 1138 310 1138 367 1123 c 1,41,42
 414 1109 414 1109 467 1103 c 128,-1,43
 520 1097 520 1097 580 1097 c 0,44,45
 591 1097 591 1097 601 1097 c 128,-1,46
 611 1097 611 1097 622 1098 c 0,47,48
 635 1099 635 1099 642.5 1090.5 c 128,-1,49
 650 1082 650 1082 648 1070 c 0,50,51
 627 936 627 936 627 802 c 0,52,53
 627 765 627 765 628.5 727.5 c 128,-1,54
 630 690 630 690 634 652 c 1,55,56
 650 437 650 437 721 297 c 1,57,-1
 720 300 l 1,58,-1
 729 284 l 2,0,1
EndSplineSet
Fore
SplineSet
729 284 m 2
 730.333333333 282 731.333333333 278.833333333 732 274.5 c 128
 732.666666667 270.166666667 732.666666667 267 732 265 c 0
 718.666666667 221.666666667 704.333333333 179.666666667 689 139 c 128
 673.666666667 98.3333333333 657.333333333 59 640 21 c 1
 636.666666667 15.6666666667 632.5 11.3333333333 627.5 8 c 128
 622.5 4.66666666667 615 2.33333333333 605 1 c 1
 588.333333333 1 576.666666667 8 570 22 c 1
 550.666666667 70.6666666667 533 124.333333333 517 183 c 128
 501 241.666666667 488.333333333 300 479 358 c 0
 473.666666667 394 469.333333333 431.5 466 470.5 c 128
 462.666666667 509.5 461 549 461 589 c 0
 461 615.666666667 461.833333333 643.666666667 463.5 673 c 128
 465.166666667 702.333333333 467 731 469 759 c 0
 469 763 469.166666667 768.166666667 469.5 774.5 c 128
 469.833333333 780.833333333 470.666666667 786.333333333 472 791 c 1
 472 793 l 1
 388.666666667 796.333333333 314.166666667 808 248.5 828 c 128
 182.833333333 848 122 873 66 903 c 1
 48 913.666666667 39 928.666666667 39 948 c 0
 39 957.333333333 41.6666666667 969 47 983 c 2
 78 1060 l 2
 87.3333333333 1082 96 1104 104 1126 c 128
 112 1148 119.666666667 1169.66666667 127 1191 c 0
 129.666666667 1199 134.5 1204.33333333 141.5 1207 c 128
 148.5 1209.66666667 155.333333333 1209 162 1205 c 0
 192.666666667 1187.66666667 225 1172.16666667 259 1158.5 c 128
 293 1144.83333333 329 1133 367 1123 c 1
 398.333333333 1113.66666667 431.666666667 1107 467 1103 c 128
 502.333333333 1099 540 1097 580 1097 c 0
 591 1097 591 1097 601 1097 c 128
 607.666666667 1097 614.666666667 1097.33333333 622 1098 c 0
 630.666666667 1098.66666667 637.5 1096.16666667 642.5 1090.5 c 128
 647.5 1084.83333333 649.333333333 1078 648 1070 c 0
 634 980.666666667 627 891.333333333 627 802 c 0
 627 777.333333333 627.5 752.5 628.5 727.5 c 128
 629.5 702.5 631.333333333 677.333333333 634 652 c 1
 644.666666667 508.666666667 673.666666667 390.333333333 721 297 c 1
 720 300 l 1
 729 284 l 2
EndSplineSet
EndChar
